<svg width="160" height="160" viewBox="0 0 160 160" fill="none" xmlns="http://www.w3.org/2000/svg">
<path d="M129.125 58.2688C136.916 72.992 140.708 90.2938 133.125 105.183C125.833 119.491 109.041 124.981 93.0414 129.431C76.458 134.047 58.3747 138.747 43.7914 129.93C28.083 120.406 18.7914 102.729 19.4997 84.9285C20.083 68.3754 33.708 56.3556 46.8747 45.5836C59.958 35.0195 74.5414 24.0395 91.458 26.6598C108.75 29.3216 121.125 43.2545 129.125 58.2688Z" fill="#A3333D"/>
<mask id="mask0_746_1631" style="mask-type:alpha" maskUnits="userSpaceOnUse" x="19" y="0" width="119" height="135">
<path d="M129.125 58.2688C136.916 72.9919 140.708 90.2937 133.125 105.183C125.833 119.49 109.041 124.981 93.0414 129.431C76.458 134.047 58.3747 138.747 43.7914 129.93C28.083 120.406 18.7914 102.729 19.4997 84.9285C20.208 68.5001 30.708 14.0577 43.8747 3.28567C56.958 -7.27841 81.7497 10.1897 94.1247 22.0431C112.25 29.9038 121.125 43.2545 129.125 58.2688Z" fill="#FFA07D"/>
</mask>
<g mask="url(#mask0_746_1631)">
<path d="M110.542 55.1078V106.639C110.542 108.926 109.958 110.881 108.625 112.295C107.333 113.626 105.542 114.333 103.333 114.333C101.125 114.333 99.3333 113.959 98.0417 113.169C96.8333 112.42 95.4583 111.131 94.0417 109.425L65.9583 75.7784V106.181C65.9583 108.885 65.25 110.881 63.875 112.254C62.4583 113.584 60.4583 114.292 57.7917 114.292C55.125 114.292 53 113.626 51.5833 112.254C50.1667 110.923 49.5 108.885 49.5 106.181V55.5653C49.5 52.8619 50.2083 50.7407 51.5833 49.3266C53 47.8709 54.875 47.1223 57.1667 47.1223C59.25 47.1223 60.875 47.4966 62.0833 48.2869C63.2917 49.0355 64.5833 50.3248 66 52.03L94.0833 85.5938V55.1078C94.0833 52.5291 94.7917 50.4912 96.0833 49.1603C97.5 47.8294 99.5833 47.1223 102.292 47.1223C105 47.1223 107.083 47.7878 108.375 49.1603C109.833 50.5744 110.542 52.4875 110.542 55.1078Z" fill="white"/>
</g>
</svg>
