<svg width="500" height="500" viewBox="0 0 500 500" fill="none" xmlns="http://www.w3.org/2000/svg">
<path d="M124.65 166.86C115.28 250.42 131.9 336.4 229.4 348.47C279.67 354.69 383.18 332.35 385.93 267.97C389.73 179.25 290.68 211.73 249.12 181.97C220.63 161.58 242.65 106.56 190.12 97.34C148.54 90.06 128.54 132.13 124.65 166.86Z" fill="#F5F5F5"/>
<path d="M409 448.31C409 448.46 331.91 448.57 236.84 448.57C141.77 448.57 64.6699 448.46 64.6699 448.31C64.6699 448.16 141.74 448.05 236.84 448.05C331.94 448.05 409 448.17 409 448.31Z" fill="#263238"/>
<path d="M330.16 394.58C313.27 383.53 308.98 362.37 309.16 343.25C309.16 340.06 308.76 336.7 310.22 333.87C311.68 331.04 315.22 329.04 318.16 330.31C320.58 331.37 321.7 334.1 323.1 336.31C324.974 339.325 327.66 341.752 330.85 343.31C332.93 344.31 335.49 344.9 337.5 343.74C340.25 342.16 340.5 338.35 340.38 335.18L339.84 317.45C339.74 314.28 339.65 311.04 340.57 308.01C341.49 304.98 343.64 302.13 346.68 301.21C349.72 300.29 353.53 301.94 354.26 305.03C354.41 306.337 354.471 307.654 354.44 308.97C354.56 310.29 355.22 311.73 356.5 312.07C357.78 312.41 359.05 311.48 359.99 310.53C363.23 307.25 365.38 303.07 367.38 298.92C369.38 294.77 371.32 290.52 374.25 286.92C377.18 283.32 381.25 280.49 385.86 280.12C390.47 279.75 395.43 282.44 396.7 286.87C397.97 291.3 395.44 295.87 392.7 299.6C388.543 305.076 383.619 309.926 378.08 314C376.996 314.617 376.141 315.568 375.64 316.71C375 318.84 377.08 320.89 379.21 321.54C381.63 322.26 384.21 321.96 386.73 322.19C389.25 322.42 391.99 323.44 392.99 325.76C394.39 328.97 391.72 332.43 389.07 334.76C383.755 339.359 377.691 343.012 371.14 345.56C368.8 346.47 366.33 347.27 364.47 348.96C362.61 350.65 361.47 353.52 362.73 355.73C363.99 357.94 366.91 358.58 369.37 358.07C371.83 357.56 374.02 356.18 376.37 355.24C380.74 353.49 386.45 353.66 389.37 357.35C390.264 358.62 390.847 360.083 391.073 361.62C391.299 363.157 391.161 364.726 390.67 366.2C389.669 369.156 388.077 371.878 385.99 374.2C379.167 382.683 370.221 389.211 360.06 393.12C349.9 396.87 340.44 398.05 330.17 394.62" fill="#A3333D"/>
<path d="M392 282.66L391.69 282.97L390.75 283.83C389.93 284.58 388.75 285.69 387.19 287.16C382.859 291.304 378.847 295.77 375.19 300.52C372.87 303.52 370.46 306.9 367.94 310.58C365.42 314.26 362.78 318.23 360.15 322.49C357.368 326.931 354.83 331.521 352.55 336.24C351.37 338.69 350.32 341.24 349.26 343.87L346 351.82C341.856 361.873 338.284 372.153 335.3 382.61C332.905 391.16 331.331 399.92 330.6 408.77C330.126 414.739 330.176 420.739 330.75 426.7C330.98 428.8 331.18 430.44 331.36 431.54C331.44 432.08 331.5 432.49 331.55 432.8C331.6 433.11 331.6 433.23 331.6 433.23C331.154 431.078 330.82 428.906 330.6 426.72C329.945 420.742 329.842 414.716 330.29 408.72C330.975 399.841 332.522 391.049 334.91 382.47C337.868 371.984 341.434 361.68 345.59 351.61L348.81 343.66C349.87 341.05 350.92 338.47 352.11 336.01C354.403 331.278 356.957 326.678 359.76 322.23C362.41 317.96 365.08 314.01 367.61 310.33C370.14 306.65 372.61 303.27 374.91 300.28C378.581 295.539 382.624 291.099 387 287C388.55 285.54 389.78 284.45 390.63 283.72L391.63 282.9L392 282.66Z" fill="#263238"/>
<path d="M352.23 336C352.089 335.559 351.982 335.107 351.91 334.65C351.72 333.77 351.5 332.5 351.24 330.93C350.71 327.78 350.14 323.41 349.51 318.59C348.88 313.77 348.23 309.42 347.65 306.29C347.36 304.72 347.11 303.46 346.92 302.59C346.797 302.142 346.72 301.683 346.69 301.22C346.862 301.648 346.999 302.089 347.1 302.54C347.34 303.4 347.64 304.66 347.98 306.22C348.65 309.34 349.36 313.7 349.98 318.53C350.6 323.36 351.14 327.63 351.56 330.88C351.77 332.39 351.95 333.64 352.08 334.62C352.176 335.074 352.226 335.536 352.23 336Z" fill="#263238"/>
<path d="M393.36 327.38C393.221 327.426 393.076 327.453 392.93 327.46L391.71 327.59C390.65 327.7 389.12 327.86 387.23 328.12C383.46 328.6 378.23 329.46 372.58 330.65C366.93 331.84 361.8 333.18 358.15 334.24C356.32 334.76 354.85 335.24 353.83 335.54L352.65 335.89C352.515 335.94 352.374 335.974 352.23 335.99C352.35 335.908 352.481 335.844 352.62 335.8L353.77 335.36C354.77 334.99 356.23 334.48 358.05 333.92C361.69 332.77 366.79 331.4 372.48 330.19C378.17 328.98 383.4 328.19 387.19 327.78C389.09 327.57 390.63 327.46 391.7 327.41L392.93 327.36C393.073 327.345 393.218 327.352 393.36 327.38Z" fill="#263238"/>
<path d="M335.35 381.72C335.234 381.569 335.136 381.405 335.06 381.23L334.33 379.76C333.7 378.49 332.83 376.63 331.78 374.32C329.68 369.69 326.98 363.21 324.09 356.02C321.2 348.83 318.55 342.34 316.53 337.69C315.53 335.41 314.71 333.54 314.12 332.18C313.85 331.57 313.64 331.07 313.47 330.68C313.391 330.508 313.324 330.331 313.27 330.15C313.386 330.301 313.484 330.465 313.56 330.64L314.29 332.1C314.92 333.38 315.79 335.24 316.84 337.55C318.94 342.18 321.64 348.66 324.53 355.85C327.42 363.04 330.07 369.52 332.09 374.18C333.09 376.46 333.9 378.33 334.5 379.69C334.77 380.3 334.98 380.8 335.15 381.19C335.231 381.361 335.298 381.538 335.35 381.72Z" fill="#263238"/>
<path d="M389.82 363C389.642 363.087 389.459 363.16 389.27 363.22L387.69 363.78L381.85 365.78C376.92 367.48 370.15 369.91 362.66 372.61C355.17 375.31 348.38 377.69 343.42 379.31C340.94 380.12 338.93 380.76 337.53 381.17L335.92 381.64C335.736 381.706 335.545 381.749 335.35 381.77C335.523 381.679 335.703 381.606 335.89 381.55L337.48 380.99L343.31 378.99C348.24 377.29 355.02 374.86 362.5 372.16C369.98 369.46 376.78 367.08 381.74 365.46C384.22 364.65 386.23 364.02 387.63 363.6L389.24 363.13C389.427 363.063 389.622 363.019 389.82 363Z" fill="#263238"/>
<path d="M240.63 207.78L238.49 448.31H333.77V211.06L240.63 207.78Z" fill="#455A64"/>
<path d="M243.62 247.75V281.47H288.75V249.35L243.62 247.75Z" fill="#263238"/>
<path d="M291.96 209.59L291.11 448.31H333.77V211.06L291.96 209.59Z" fill="#263238"/>
<path d="M243.62 210.75V244.47H288.75V212.34L243.62 210.75Z" fill="#263238"/>
<path d="M259.18 220.02V225H272.99V219.57L259.18 220.02Z" fill="#263238"/>
<path d="M273.44 229.19H259.18V231.23H273.44V229.19Z" fill="#263238"/>
<g opacity="0.4">
<path d="M259.18 220.02V225H272.99V219.57L259.18 220.02Z" fill="black"/>
<path d="M273.44 229.19H259.18V231.23H273.44V229.19Z" fill="black"/>
</g>
<path d="M243.62 328.9V362.61H288.75V330.49L243.62 328.9Z" fill="#263238"/>
<path d="M259.18 338.17V343.15H272.99V337.72L259.18 338.17Z" fill="#263238"/>
<path d="M273.44 347.34H259.18V349.38H273.44V347.34Z" fill="#263238"/>
<g opacity="0.4">
<path d="M259.18 338.17V343.15H272.99V337.72L259.18 338.17Z" fill="black"/>
<path d="M273.44 347.34H259.18V349.38H273.44V347.34Z" fill="black"/>
</g>
<path d="M243.62 366.9V400.61H288.75V368.49L243.62 366.9Z" fill="#263238"/>
<path d="M259.18 376.17V381.15H272.99V375.72L259.18 376.17Z" fill="#263238"/>
<path d="M273.44 385.34H259.18V387.38H273.44V385.34Z" fill="#263238"/>
<g opacity="0.4">
<path d="M259.18 376.17V381.15H272.99V375.72L259.18 376.17Z" fill="black"/>
<path d="M273.44 385.34H259.18V387.38H273.44V385.34Z" fill="black"/>
</g>
<path d="M243.14 404.9V438.61H288.27V406.49L243.14 404.9Z" fill="#263238"/>
<path d="M258.69 414.17V419.15H272.5V413.72L258.69 414.17Z" fill="#263238"/>
<path d="M272.95 423.34H258.69V425.38H272.95V423.34Z" fill="#263238"/>
<g opacity="0.4">
<path d="M258.69 414.17V419.15H272.5V413.72L258.69 414.17Z" fill="black"/>
<path d="M272.95 423.34H258.69V425.38H272.95V423.34Z" fill="black"/>
</g>
<path d="M242.76 287.5H197.63V321.22H242.76V287.5Z" fill="#455A64"/>
<path d="M213.49 302.69V307.37H226.47V302.27L213.49 302.69Z" fill="#263238"/>
<path d="M226.89 311.31H213.49V313.22H226.89V311.31Z" fill="#263238"/>
<g opacity="0.4">
<path d="M213.49 302.69V307.37H226.47V302.27L213.49 302.69Z" fill="black"/>
<path d="M226.89 311.31H213.49V313.22H226.89V311.31Z" fill="black"/>
</g>
<path d="M242.76 287.5L287.25 287.17L286.44 321.21H242.76V287.5Z" fill="#263238"/>
<path opacity="0.4" d="M242.76 287.5L287.25 287.17L286.44 321.21H242.76V287.5Z" fill="black"/>
<path d="M285.67 256.88H241.19V287.16H285.67V256.88Z" fill="#FAFAFA"/>
<path d="M230.4 261.71L232.64 287.44L285.64 287.17L282.5 262C282.39 261.216 281.976 260.507 281.347 260.028C280.717 259.549 279.924 259.337 279.14 259.44L257.75 261.3L254.11 258.6C253.777 258.367 253.374 258.258 252.97 258.29L231.85 260.15C231.453 260.17 231.079 260.345 230.809 260.636C230.538 260.927 230.391 261.312 230.4 261.71Z" fill="#263238"/>
<path d="M230.4 261.71L232.64 287.44L285.64 287.17L282.5 262C282.39 261.216 281.976 260.507 281.347 260.028C280.717 259.549 279.924 259.337 279.14 259.44L257.75 261.3L254.11 258.6C253.777 258.367 253.374 258.258 252.97 258.29L231.85 260.15C231.453 260.17 231.079 260.345 230.809 260.636C230.538 260.927 230.391 261.312 230.4 261.71Z" fill="#A3333D"/>
<path d="M215.19 280.74L214.07 274.04L263.1 270.8L267.41 287.43L216.16 287.17L215.19 280.74Z" fill="#FAFAFA"/>
<path d="M208.93 277.48L209.8 287.48H262.24L261 277.75C260.891 276.968 260.478 276.261 259.851 275.782C259.223 275.303 258.433 275.09 257.65 275.19L236.26 277.05L232.61 274.35C232.282 274.116 231.881 274.006 231.48 274.04L210.36 275.91C209.963 275.93 209.59 276.107 209.322 276.401C209.055 276.695 208.914 277.082 208.93 277.48Z" fill="#A3333D"/>
<path opacity="0.7" d="M208.93 277.48L209.8 287.48H262.24L261 277.75C260.891 276.968 260.478 276.261 259.851 275.782C259.223 275.303 258.433 275.09 257.65 275.19L236.26 277.05L232.61 274.35C232.282 274.116 231.881 274.006 231.48 274.04L210.36 275.91C209.963 275.93 209.59 276.107 209.322 276.401C209.055 276.695 208.914 277.082 208.93 277.48Z" fill="#FAFAFA"/>
<path d="M264.27 275.29H271.27C271.535 275.291 271.796 275.351 272.034 275.467C272.272 275.582 272.481 275.75 272.646 275.958C272.81 276.165 272.926 276.407 272.983 276.666C273.041 276.924 273.04 277.192 272.98 277.45L270.72 287.16H267.45L264.27 275.29Z" fill="#263238"/>
<path d="M356 141.33L324.89 148C324.627 148.055 324.356 148.056 324.092 148.004C323.828 147.952 323.578 147.847 323.356 147.696C323.134 147.545 322.944 147.35 322.799 147.124C322.654 146.898 322.555 146.645 322.51 146.38L318.31 125.38C318.193 124.847 318.292 124.29 318.584 123.829C318.876 123.369 319.338 123.042 319.87 122.92L350.97 116.23C351.233 116.175 351.504 116.174 351.768 116.226C352.032 116.279 352.282 116.383 352.504 116.535C352.726 116.686 352.916 116.88 353.061 117.106C353.206 117.332 353.305 117.585 353.35 117.85L357.56 138.85C357.674 139.385 357.575 139.944 357.284 140.407C356.993 140.87 356.532 141.202 356 141.33Z" fill="#A3333D"/>
<path d="M338.79 129.7L343.55 131.35L339.79 134.8L336.03 138.25L335.03 133.15L334.03 128.05L338.79 129.7Z" fill="#FAFAFA"/>
<path d="M297.06 130.33L297.37 129.92C297.59 129.66 297.9 129.27 298.3 128.74C299.462 127.198 300.467 125.543 301.3 123.8C301.898 122.544 302.4 121.243 302.8 119.91C303.23 118.45 303.57 116.82 304 115.09C304.84 111.61 305.8 107.66 306.85 103.29C307.9 98.9201 309.08 94.1301 310.32 89.0001C310.605 87.6753 310.973 86.3694 311.42 85.0901C311.911 83.7774 312.527 82.5149 313.26 81.3201C314.027 80.0918 314.918 78.9458 315.92 77.9001C316.427 77.3664 316.965 76.8622 317.53 76.3901H317.58C317.79 77.2101 317.58 76.6101 317.66 76.7901H317.53L317.26 76.7201L316.72 76.5901L315.64 76.3301L297.52 71.9101L287.93 69.5601L283.03 68.3601L280.55 67.7601H280.4H280.32C280.27 67.7601 280.58 67.7601 280.43 67.7601L280.14 67.8701L279.55 68.1001C279.18 68.2901 278.78 68.4401 278.42 68.6501C275.446 70.216 273.052 72.6939 271.59 75.7201C270.896 77.2095 270.399 78.7826 270.11 80.4001C269.74 82.0001 269.37 83.5901 269.01 85.1701C267.55 91.4701 266.15 97.5501 264.81 103.35L263.81 107.64C262.775 111.715 260.95 115.548 258.44 118.92C258.04 119.45 257.63 119.92 257.21 120.46L257.05 120.65L256.97 120.75C256.76 120.06 256.97 120.56 256.89 120.41H256.98L257.45 120.53L258.38 120.76L262.02 121.66L268.88 123.36L289.54 128.5L295.16 129.93L296.61 130.31L297.11 130.46L296.6 130.36L295.13 130.03L289.5 128.7L268.79 123.7L261.93 122.04L258.28 121.15L257.35 120.93L256.88 120.81H256.79C256.73 120.66 256.87 121.15 256.65 120.46L256.73 120.37L256.88 120.18C257.3 119.69 257.7 119.18 258.09 118.65C259.704 116.465 261.031 114.082 262.04 111.56C263.04 108.853 263.81 106.067 264.34 103.23C265.67 97.4301 267.07 91.3501 268.51 85.0401C268.88 83.4601 269.24 81.8701 269.61 80.2701C269.904 78.6181 270.412 77.0113 271.12 75.4901C272.583 72.3027 275.039 69.6749 278.12 68.0001C278.5 67.7801 278.91 67.6201 279.3 67.4401L279.91 67.2001L280.21 67.0801H280.39H280.47H280.63L283.1 67.6901L288 69.0001L297.59 71.3501L315.7 75.8001L316.78 76.0701L317.32 76.2001L317.59 76.2701H317.72C317.77 76.4601 317.66 75.8601 317.84 76.6901H317.79C317.24 77.1601 316.71 77.6901 316.21 78.1701C314.274 80.177 312.77 82.5593 311.79 85.1701C311.349 86.4302 310.985 87.7159 310.7 89.0201L307.17 103.3L304.25 115.08C303.8 116.81 303.44 118.43 302.99 119.9C302.577 121.241 302.062 122.548 301.45 123.81C300.603 125.553 299.571 127.199 298.37 128.72C297.965 129.282 297.528 129.82 297.06 130.33Z" fill="#263238"/>
<path d="M303.69 87.44C303.31 87.4367 302.933 87.3795 302.57 87.27C301.86 87.13 300.83 86.91 299.57 86.63C297.04 86.06 293.57 85.24 289.71 84.26C285.85 83.28 282.41 82.26 279.92 81.56C278.67 81.19 277.67 80.87 276.98 80.64C276.613 80.5509 276.26 80.413 275.93 80.23C276.307 80.2648 276.679 80.3385 277.04 80.45L280.04 81.21L289.85 83.75L299.68 86.27L302.68 87.08C303.028 87.1656 303.366 87.2862 303.69 87.44Z" fill="#263238"/>
<path d="M303 91.6299C302.622 91.6137 302.246 91.5567 301.88 91.4599C301.16 91.3199 300.14 91.0999 298.88 90.8099C296.35 90.2399 292.88 89.4199 289.01 88.4399C285.14 87.4599 281.72 86.4399 279.23 85.7499C277.98 85.3699 276.98 85.0599 276.29 84.8299C275.942 84.7315 275.607 84.594 275.29 84.4199C275.667 84.4472 276.039 84.5177 276.4 84.6299L279.4 85.3899L289.21 87.9399L299 90.4599L302 91.2599C302.346 91.3462 302.681 91.4703 303 91.6299Z" fill="#263238"/>
<path d="M302 95.8099C301.621 95.8074 301.244 95.7536 300.88 95.6499C300.16 95.5099 299.14 95.2799 297.88 94.9999C295.35 94.4299 291.88 93.6099 288.01 92.6299C284.14 91.6499 280.72 90.6799 278.23 89.9299C276.98 89.5599 275.98 89.2499 275.29 89.0199C274.927 88.9194 274.575 88.7821 274.24 88.6099C274.618 88.6307 274.991 88.7014 275.35 88.8199L278.35 89.5799L288.16 92.1199L298 94.6399L301 95.4499C301.344 95.5379 301.679 95.6584 302 95.8099Z" fill="#263238"/>
<path d="M301.13 100C300.751 99.9901 300.375 99.933 300.01 99.83C299.3 99.69 298.27 99.47 297.01 99.19C294.48 98.62 291.01 97.8 287.15 96.81C283.29 95.82 279.85 94.87 277.36 94.12C276.12 93.75 275.12 93.43 274.43 93.2C274.061 93.1093 273.704 92.9716 273.37 92.79C273.747 92.8239 274.119 92.8977 274.48 93.01L277.48 93.76L287.3 96.31L297.12 98.83L300.12 99.64C300.469 99.7235 300.807 99.8442 301.13 100Z" fill="#263238"/>
<path d="M299.78 104.19C299.402 104.174 299.026 104.117 298.66 104.02C297.94 103.88 296.92 103.66 295.66 103.37C293.13 102.8 289.66 101.98 285.79 101C281.92 100.02 278.5 99 276.01 98.3C274.76 97.93 273.76 97.62 273.07 97.39C272.699 97.3031 272.34 97.1722 272 97C272.378 97.0209 272.751 97.0915 273.11 97.21L276.11 97.97L285.92 100.52L295.75 103.03L298.75 103.84C299.106 103.915 299.452 104.032 299.78 104.19Z" fill="#263238"/>
<path d="M298.8 108.37C298.421 108.367 298.043 108.31 297.68 108.2C296.97 108.06 295.94 107.84 294.68 107.56C292.15 106.99 288.68 106.17 284.82 105.19C280.96 104.21 277.52 103.19 275.03 102.49C273.79 102.12 272.78 101.8 272.09 101.57C271.723 101.481 271.37 101.343 271.04 101.16C271.417 101.195 271.789 101.269 272.15 101.38L275.15 102.14L284.97 104.68L294.79 107.2L297.79 108.01C298.138 108.096 298.476 108.216 298.8 108.37Z" fill="#263238"/>
<path d="M297.56 112.71C297.181 112.708 296.804 112.654 296.44 112.55C295.73 112.41 294.7 112.19 293.44 111.9C290.91 111.33 287.44 110.51 283.57 109.53C279.7 108.55 276.28 107.53 273.79 106.83C272.55 106.46 271.54 106.15 270.85 105.92C270.502 105.822 270.167 105.684 269.85 105.51C270.228 105.531 270.601 105.602 270.96 105.72L273.96 106.48L283.77 109.03L293.6 111.54L296.6 112.35C296.931 112.439 297.252 112.56 297.56 112.71Z" fill="#263238"/>
<path d="M296.64 116.88C295.829 116.833 295.025 116.702 294.24 116.49C292.77 116.18 290.75 115.73 288.53 115.16C286.31 114.59 284.33 113.97 282.89 113.54C282.098 113.351 281.329 113.073 280.6 112.71C281.41 112.789 282.211 112.946 282.99 113.18C284.45 113.53 286.45 114.08 288.66 114.66C290.87 115.24 292.88 115.73 294.33 116.13C295.125 116.297 295.899 116.548 296.64 116.88Z" fill="#263238"/>
<path d="M232.22 215.89L198.05 229.31C195.347 212.718 190.049 196.654 182.35 181.71L203.35 172.71C205.267 171.888 207.331 171.467 209.416 171.474C211.502 171.48 213.564 171.914 215.475 172.748C217.386 173.581 219.107 174.798 220.53 176.322C221.953 177.846 223.049 179.646 223.75 181.61C227.777 192.705 230.616 204.196 232.22 215.89Z" fill="#FAFAFA"/>
<path d="M232.22 215.89C232.22 215.89 232.22 215.74 232.14 215.46C232.06 215.18 232.02 214.75 231.94 214.23C231.76 213.15 231.5 211.54 231.12 209.48C230.04 203.657 228.664 197.893 227 192.21C226.46 190.41 225.89 188.52 225.24 186.58C224.59 184.64 223.94 182.58 223.08 180.58C222.166 178.519 220.799 176.69 219.08 175.23C217.232 173.699 215.055 172.614 212.72 172.06C210.262 171.504 207.703 171.576 205.28 172.27C204.65 172.43 204.06 172.7 203.45 172.91L201.63 173.7L197.92 175.29L182.47 181.94L182.6 181.59C182.87 182.13 183.16 182.72 183.46 183.31C187.298 191.048 190.531 199.072 193.13 207.31C195.382 214.508 197.103 221.861 198.28 229.31L198 229.15L222.82 219.52L229.76 216.85L231.6 216.16C232.01 216 232.24 215.93 232.24 215.93C232.24 215.93 232.05 216.03 231.65 216.19L229.87 216.92L223 219.64L198.15 229.51L197.91 229.61V229.34C196.701 221.919 194.963 214.594 192.71 207.42C190.086 199.224 186.84 191.241 183 183.54L182.15 181.82L182.02 181.57L182.28 181.47L197.73 174.83L201.44 173.23L203.26 172.45C203.9 172.23 204.51 171.96 205.15 171.79C207.657 171.084 210.301 171.019 212.84 171.6C215.244 172.174 217.483 173.296 219.38 174.88C221.157 176.385 222.566 178.277 223.5 180.41C224.38 182.47 224.99 184.51 225.65 186.46C226.31 188.41 226.85 190.3 227.38 192.1C229.027 197.803 230.362 203.592 231.38 209.44C231.72 211.52 231.96 213.12 232.1 214.23C232.16 214.76 232.21 215.17 232.25 215.48C232.253 215.617 232.243 215.755 232.22 215.89Z" fill="#263238"/>
<path d="M204.49 172.24C204.49 172.24 209.59 182.7 209.14 183.07C208.69 183.44 221.8 178.18 221.96 178.07C222 178.1 215.18 169 204.49 172.24Z" fill="#263238"/>
<path d="M202.58 186.34C201.118 187.244 199.566 187.994 197.95 188.58C196.405 189.322 194.79 189.912 193.13 190.34C194.587 189.432 196.135 188.681 197.75 188.1C199.298 187.355 200.916 186.766 202.58 186.34Z" fill="#263238"/>
<path d="M219.54 184.84C219.6 184.97 214.06 187.66 207.17 190.84C200.28 194.02 194.64 196.49 194.58 196.36C194.52 196.23 200.06 193.55 206.95 190.36C213.84 187.17 219.48 184.71 219.54 184.84Z" fill="#263238"/>
<path d="M221.84 191C221.9 191.13 216.36 193.81 209.47 197C202.58 200.19 196.94 202.66 196.88 202.53C196.82 202.4 202.36 199.72 209.25 196.53C216.14 193.34 221.78 190.86 221.84 191Z" fill="#263238"/>
<path d="M224.19 197.11C224.25 197.24 218.71 199.92 211.82 203.11C204.93 206.3 199.29 208.76 199.23 208.63C199.17 208.5 204.71 205.82 211.6 202.63C218.49 199.44 224.13 197 224.19 197.11Z" fill="#263238"/>
<path d="M217.58 208.46C216.848 208.94 216.071 209.349 215.26 209.68C213.8 210.37 211.77 211.3 209.51 212.29C205.97 213.85 202.93 215.12 201.78 215.51L201.62 215.57V215.42C201.7 215.05 201.76 214.88 201.79 214.88C201.82 214.88 201.79 215.07 201.79 215.45L201.67 215.35C202.73 214.77 205.67 213.35 209.26 211.82C211.52 210.82 213.58 209.95 215.08 209.34C215.88 208.958 216.718 208.663 217.58 208.46Z" fill="#263238"/>
<path d="M375.86 215L337.93 198.6C341.92 195.307 345.044 191.087 347.03 186.31L358.1 159.73C359.15 157.305 360.788 155.181 362.866 153.548C364.944 151.916 367.396 150.827 370 150.38L405.18 165.62C401.374 167.829 398.377 171.201 396.63 175.24L384 204.37C382.192 208.523 379.398 212.171 375.86 215Z" fill="#A3333D"/>
<path opacity="0.7" d="M375.86 215L337.93 198.6C341.92 195.307 345.044 191.087 347.03 186.31L358.1 159.73C359.15 157.305 360.788 155.181 362.866 153.548C364.944 151.916 367.396 150.827 370 150.38L405.18 165.62C401.374 167.829 398.377 171.201 396.63 175.24L384 204.37C382.192 208.523 379.398 212.171 375.86 215Z" fill="#FAFAFA"/>
<path d="M389.53 176.63C389.47 176.76 383.26 174.17 375.65 170.83C368.04 167.49 361.92 164.69 361.98 164.56C362.04 164.43 368.25 167.02 375.86 170.36C383.47 173.7 389.59 176.5 389.53 176.63Z" fill="#263238"/>
<path d="M388 181.86C387.94 181.99 381.52 179.3 373.65 175.86C365.78 172.42 359.46 169.51 359.52 169.38C359.58 169.25 366 171.93 373.86 175.38C381.72 178.83 388 181.73 388 181.86Z" fill="#263238"/>
<path d="M386 186.48C385.95 186.61 379.52 183.92 371.66 180.48C363.8 177.04 357.47 174.14 357.52 174.01C357.57 173.88 364 176.56 371.87 180.01C379.74 183.46 386 186.34 386 186.48Z" fill="#263238"/>
<path d="M383.93 191.1C383.87 191.23 377.45 188.54 369.58 185.1C361.71 181.66 355.39 178.76 355.45 178.62C355.51 178.48 361.93 181.18 369.79 184.62C377.65 188.06 384 191 383.93 191.1Z" fill="#263238"/>
<path d="M381.9 195.71C381.9 195.85 375.42 193.16 367.56 189.71C359.7 186.26 353.37 183.37 353.43 183.23C353.49 183.09 359.9 185.79 367.77 189.23C375.64 192.67 382 195.58 381.9 195.71Z" fill="#263238"/>
<path d="M366.19 194.33C365.415 194.16 364.663 193.898 363.95 193.55C362.59 193.01 360.73 192.23 358.69 191.33C356.65 190.43 354.81 189.6 353.49 188.97C352.752 188.678 352.051 188.303 351.4 187.85C352.171 188.032 352.922 188.293 353.64 188.63C355 189.18 356.86 189.96 358.9 190.85C360.94 191.74 362.78 192.59 364.1 193.22C364.834 193.514 365.535 193.886 366.19 194.33Z" fill="#263238"/>
<path d="M375.74 205C375.69 205 375.85 204.64 375.94 204C376.051 203.078 375.861 202.146 375.4 201.34C375.027 200.704 374.486 200.183 373.836 199.835C373.185 199.487 372.452 199.325 371.715 199.368C370.979 199.411 370.269 199.657 369.664 200.078C369.058 200.5 368.581 201.08 368.285 201.755C367.989 202.431 367.885 203.175 367.986 203.906C368.086 204.636 368.386 205.325 368.854 205.896C369.321 206.466 369.937 206.897 370.633 207.139C371.33 207.382 372.079 207.427 372.8 207.27C373.707 207.067 374.522 206.572 375.12 205.86C375.54 205.35 375.7 205 375.74 205.02C375.676 205.387 375.517 205.732 375.28 206.02C374.705 206.835 373.857 207.417 372.89 207.66C372.167 207.849 371.409 207.852 370.685 207.668C369.961 207.485 369.295 207.121 368.75 206.61C368.077 205.976 367.616 205.149 367.432 204.243C367.247 203.337 367.347 202.396 367.719 201.549C368.09 200.703 368.714 199.991 369.506 199.513C370.298 199.036 371.218 198.814 372.14 198.88C372.885 198.933 373.605 199.175 374.231 199.583C374.857 199.99 375.37 200.55 375.72 201.21C376.191 202.088 376.336 203.105 376.13 204.08C376.072 204.412 375.939 204.727 375.74 205Z" fill="#263238"/>
<path d="M375.259 164.178L364.268 159.363L363.574 160.947L374.565 165.763L375.259 164.178Z" fill="#263238"/>
<path d="M353.91 262.05L312.96 261.09L328.2 240.69H368.15L353.91 262.05Z" fill="#A3333D"/>
<path d="M319.04 258.03L351.43 259.02L346.93 252.4L340.56 255.13L335.52 246.42L319.04 258.03Z" fill="#A3333D"/>
<path d="M346.07 246.36C346.07 246.776 345.947 247.182 345.716 247.527C345.485 247.872 345.157 248.141 344.774 248.3C344.39 248.459 343.968 248.501 343.56 248.42C343.153 248.339 342.779 248.139 342.485 247.845C342.192 247.551 341.991 247.177 341.91 246.77C341.829 246.363 341.871 245.94 342.03 245.557C342.189 245.173 342.458 244.845 342.803 244.614C343.149 244.383 343.555 244.26 343.97 244.26C344.527 244.26 345.061 244.482 345.455 244.875C345.849 245.269 346.07 245.803 346.07 246.36Z" fill="#A3333D"/>
<g opacity="0.7">
<path d="M319.04 258.03L351.43 259.02L346.93 252.4L340.56 255.13L335.52 246.42L319.04 258.03Z" fill="#FAFAFA"/>
<path d="M346.07 246.36C346.07 246.776 345.947 247.182 345.716 247.527C345.485 247.872 345.157 248.141 344.774 248.3C344.39 248.459 343.968 248.501 343.56 248.42C343.153 248.339 342.779 248.139 342.485 247.845C342.192 247.551 341.991 247.177 341.91 246.77C341.829 246.363 341.871 245.94 342.03 245.557C342.189 245.173 342.458 244.845 342.803 244.614C343.149 244.383 343.555 244.26 343.97 244.26C344.527 244.26 345.061 244.482 345.455 244.875C345.849 245.269 346.07 245.803 346.07 246.36Z" fill="#FAFAFA"/>
</g>
<path d="M242.85 142.14L206.78 158.16L205.92 130.68L241.95 113.65L242.85 142.14Z" fill="#A3333D"/>
<path opacity="0.7" d="M242.85 142.14L206.78 158.16L205.92 130.68L241.95 113.65L242.85 142.14Z" fill="#FAFAFA"/>
<path d="M208.38 153.33L241.11 138.07L230.47 131.89L226.38 139.09L214.37 133.32L208.38 153.33Z" fill="#A3333D"/>
<path d="M226.92 131.89C226.92 132.241 226.816 132.583 226.621 132.875C226.426 133.166 226.149 133.393 225.825 133.526C225.501 133.66 225.145 133.694 224.801 133.625C224.458 133.556 224.142 133.387 223.895 133.138C223.648 132.89 223.48 132.573 223.413 132.229C223.346 131.885 223.382 131.529 223.518 131.206C223.653 130.883 223.882 130.607 224.174 130.414C224.466 130.22 224.81 130.118 225.16 130.12C225.392 130.12 225.622 130.166 225.836 130.255C226.05 130.344 226.245 130.475 226.408 130.639C226.572 130.804 226.701 130.999 226.789 131.214C226.877 131.428 226.921 131.658 226.92 131.89Z" fill="#A3333D"/>
<path d="M219.79 130.07C219.688 129.061 219.525 128.059 219.3 127.07C218.58 124.367 216.975 121.983 214.74 120.3C213.098 119.067 211.175 118.264 209.143 117.964C207.112 117.663 205.038 117.875 203.11 118.58C201.997 118.975 200.952 119.538 200.01 120.25C199.014 120.978 198.14 121.859 197.42 122.86C195.881 124.958 195.05 127.493 195.05 130.095C195.05 132.698 195.881 135.232 197.42 137.33C198.14 138.332 199.014 139.213 200.01 139.94C200.952 140.652 201.997 141.216 203.11 141.61C205.17 142.36 207.393 142.55 209.55 142.16C211.435 141.816 213.212 141.036 214.74 139.88C216.974 138.201 218.58 135.821 219.3 133.12C219.526 132.131 219.689 131.129 219.79 130.12C219.807 130.387 219.807 130.654 219.79 130.92C219.795 131.255 219.771 131.589 219.72 131.92C219.675 132.363 219.595 132.801 219.48 133.23C218.918 135.582 217.688 137.721 215.939 139.39C214.19 141.06 211.995 142.188 209.62 142.64C207.396 143.021 205.11 142.8 203 142C200.625 141.144 198.558 139.602 197.06 137.57C195.443 135.389 194.57 132.746 194.57 130.03C194.57 127.315 195.443 124.671 197.06 122.49C197.815 121.453 198.73 120.542 199.77 119.79C200.752 119.055 201.842 118.475 203 118.07C205.001 117.353 207.15 117.154 209.248 117.491C211.347 117.829 213.325 118.692 215 120C217.272 121.741 218.873 124.214 219.53 127C219.646 127.43 219.726 127.868 219.77 128.31C219.84 128.894 219.86 129.483 219.83 130.07H219.79Z" fill="#263238"/>
<path d="M199 139.31C199.1 139.42 195.4 142.85 190.75 146.97C186.1 151.09 182.24 154.35 182.15 154.25C182.06 154.15 185.75 150.71 190.4 146.58C195.05 142.45 198.92 139.2 199 139.31Z" fill="#263238"/>
<path d="M120.94 187.44C117.5 185.58 112.35 186.72 110.25 190.02C108.966 192.387 108.498 195.111 108.92 197.77C109.19 200.43 109.86 203.04 109.92 205.71C110.033 207.151 109.839 208.6 109.35 209.96C109.104 210.638 108.724 211.258 108.232 211.786C107.741 212.313 107.149 212.736 106.49 213.03C104.44 213.85 101.88 213.03 100.05 214.3C99.6499 214.618 99.3169 215.012 99.0707 215.46C98.8244 215.908 98.6698 216.4 98.6158 216.908C98.5618 217.417 98.6095 217.931 98.7562 218.42C98.9029 218.91 99.1456 219.365 99.4702 219.76C100.177 220.522 101.114 221.031 102.137 221.212C103.161 221.392 104.215 221.234 105.14 220.76C103.21 222.55 103.57 226 105.52 227.76C106.548 228.587 107.783 229.117 109.091 229.294C110.399 229.47 111.73 229.285 112.94 228.76C115.351 227.67 117.404 225.919 118.86 223.71C122.615 218.284 124.574 211.817 124.46 205.22C124.465 199.054 123.12 192.961 120.52 187.37" fill="#263238"/>
<path d="M233.25 245.8C232.1 243.94 224.12 248.39 223.41 248.71C222.7 249.03 222.22 248.03 222.87 247.77C223.8 247.4 233.53 243.22 232.41 241.39C231.79 240.39 230.06 241.65 230.06 241.65C230.06 241.65 221.25 246.23 220.75 245.34C220.25 244.45 225.33 241.58 227.11 240.74C228.89 239.9 229.19 238.74 228.17 238.26C227.48 237.93 221.96 240.39 220.22 241.26C218.48 242.13 213.74 244.63 215.08 241.5C216.42 238.37 216.27 235.5 215.68 234.71C215.528 234.546 215.329 234.435 215.11 234.391C214.891 234.348 214.664 234.375 214.461 234.468C214.258 234.561 214.09 234.716 213.98 234.91C213.871 235.104 213.825 235.328 213.85 235.55C213.762 236.695 213.517 237.822 213.12 238.9C212.84 239.777 212.41 240.599 211.85 241.33C211.19 242.19 210.6 242.88 210.08 243.46C205 245.24 190.49 249.74 176.93 248.46C176.44 248.41 175.73 247.46 174.93 245.95L156.54 251.87C157.23 253.29 157.98 254.87 158.79 256.44C169.05 276.94 216.61 255.67 216.61 255.67V255.62C220.175 254.938 223.7 254.063 227.17 253C231.93 251.29 231.78 250.86 231.49 250.34C230.7 248.94 223 253.04 224.14 251.2C225.28 249.36 234.14 247.23 233.25 245.8Z" fill="#EB996E"/>
<path d="M168.55 254.73L201.85 241.75L222.4 253.87L185.99 266.87L168.55 254.73Z" fill="#263238"/>
<path d="M202.79 242.31L205.96 241.46C211.95 244.874 217.475 249.045 222.4 253.87L221.47 253.32L202.79 242.31Z" fill="#FAFAFA"/>
<path d="M222.4 253.87C221.553 253.309 220.751 252.684 220 252C218.53 250.81 216.48 249.19 214.17 247.47C211.86 245.75 209.72 244.25 208.17 243.2C207.291 242.671 206.449 242.083 205.65 241.44C206.605 241.821 207.514 242.307 208.36 242.89C210.472 244.172 212.518 245.561 214.49 247.05C216.81 248.78 218.83 250.46 220.25 251.72C221.036 252.364 221.756 253.084 222.4 253.87Z" fill="#263238"/>
<path d="M162.67 283.22L161.22 253.22L161.11 251.96L177 244.61L171.94 232.22C166.36 211.31 146.44 211 146.44 211L131.25 209.51L124.4 211C124.4 211 111.71 213.19 111.23 231.28C111.001 242.302 113.35 253.226 118.09 263.18L122.74 260.75C122.726 263.695 121.831 266.568 120.17 269C118.215 271.837 116.826 275.026 116.08 278.39L162.67 283.22Z" fill="#A3333D"/>
<path d="M128.06 227.42C128.14 227.42 128.26 228.9 128.61 231.28C129.524 237.48 131.411 243.498 134.2 249.11C135.27 251.26 136.02 252.55 135.95 252.59C135.706 252.336 135.497 252.05 135.33 251.74C134.95 251.18 134.45 250.34 133.87 249.28C130.869 243.71 128.961 237.617 128.25 231.33C128.11 230.13 128.04 229.15 128.03 228.47C127.989 228.12 127.999 227.767 128.06 227.42Z" fill="#263238"/>
<path d="M159.11 245.88C160.173 245.421 161.124 244.739 161.9 243.88C162.695 242.933 163.127 241.735 163.12 240.5C163.128 239.753 162.95 239.016 162.6 238.356C162.251 237.696 161.742 237.133 161.12 236.72C160.651 236.404 160.124 236.186 159.569 236.078C159.014 235.97 158.443 235.974 157.89 236.09L157.64 236.15L157.59 235.9C157.1 233.49 156.7 231.41 156.43 229.9C156.255 229.12 156.141 228.327 156.09 227.53C156.375 228.276 156.592 229.045 156.74 229.83C157.09 231.29 157.55 233.36 158.08 235.76L157.77 235.57C158.389 235.429 159.03 235.416 159.654 235.531C160.278 235.646 160.872 235.887 161.4 236.24C162.086 236.705 162.643 237.336 163.021 238.073C163.398 238.811 163.584 239.632 163.56 240.46C163.549 241.803 163.044 243.096 162.14 244.09C161.541 244.743 160.808 245.258 159.99 245.6C159.72 245.755 159.42 245.851 159.11 245.88Z" fill="#263238"/>
<path d="M161.66 258.3C161.189 256.217 160.917 254.094 160.85 251.96C160.58 248.45 160.14 245.64 160.28 245.61C160.926 247.651 161.293 249.77 161.37 251.91C161.605 254.031 161.702 256.166 161.66 258.3Z" fill="#263238"/>
<path d="M177.05 244.73C176.363 245.243 175.622 245.679 174.84 246.03C173.44 246.76 171.48 247.73 169.27 248.72C167.06 249.71 165.05 250.54 163.57 251.1C162.793 251.457 161.978 251.726 161.14 251.9C161.863 251.444 162.63 251.062 163.43 250.76L169.06 248.24L174.68 245.7C175.439 245.305 176.232 244.98 177.05 244.73Z" fill="#263238"/>
<path d="M117.83 230.48C117.655 229.558 117.655 228.611 117.83 227.69C117.82 226.748 117.983 225.813 118.31 224.93C118.485 225.855 118.485 226.805 118.31 227.73C118.319 228.668 118.156 229.6 117.83 230.48Z" fill="#FAFAFA"/>
<path d="M119.32 236.68C118.543 236.64 117.785 236.428 117.1 236.06C116.364 235.842 115.682 235.471 115.1 234.97C115.88 235.002 116.642 235.211 117.33 235.58C118.47 236.05 119.38 236.54 119.32 236.68Z" fill="#FAFAFA"/>
<path d="M124.88 233.72C124.584 233.076 124.51 232.351 124.67 231.66C124.79 230.51 125.18 229.66 125.31 229.66C125.379 230.329 125.338 231.004 125.19 231.66C125.193 232.359 125.089 233.053 124.88 233.72Z" fill="#FAFAFA"/>
<path d="M124 244.05C123.842 243.247 123.984 242.414 124.4 241.71C124.95 240.49 125.82 239.79 125.91 239.89C126 239.99 125.38 240.8 124.91 241.89C124.44 242.98 124.13 244.06 124 244.05Z" fill="#FAFAFA"/>
<path d="M122 249.74C121.218 249.409 120.477 248.99 119.79 248.49C118.59 247.77 117.57 247.27 117.63 247.13C118.505 247.207 119.342 247.521 120.05 248.04C121.31 248.77 122.12 249.64 122 249.74Z" fill="#FAFAFA"/>
<path d="M130.43 248.57C130.249 249.442 129.971 250.29 129.6 251.1C129.387 251.963 129.075 252.798 128.67 253.59C128.57 252.68 128.723 251.759 129.11 250.93C129.332 250.039 129.787 249.225 130.43 248.57Z" fill="#FAFAFA"/>
<path d="M122 256.09C121.294 256.15 120.583 256.037 119.93 255.76C118.82 255.44 117.93 255.07 118 254.93C118.707 254.869 119.417 254.983 120.07 255.26C121.2 255.58 122.06 256 122 256.09Z" fill="#FAFAFA"/>
<path d="M129.28 220.18C128.631 220.76 127.873 221.205 127.05 221.49C126.299 221.926 125.47 222.211 124.61 222.33C126.005 221.304 127.594 220.572 129.28 220.18Z" fill="#FAFAFA"/>
<path d="M123.08 213.2C123.19 213.31 122.37 214.2 121.47 215.4C120.99 216.172 120.426 216.89 119.79 217.54C119.984 216.621 120.423 215.771 121.06 215.08C122 213.85 123 213.09 123.08 213.2Z" fill="#FAFAFA"/>
<path d="M139.09 229.06C138.166 228.749 137.335 228.213 136.67 227.5C135.895 226.908 135.286 226.126 134.9 225.23C135.667 225.786 136.377 226.415 137.02 227.11C138.16 228.16 139.17 228.93 139.09 229.06Z" fill="#FAFAFA"/>
<path d="M148.64 219.51C148.196 220.403 147.645 221.239 147 222C146.512 222.847 145.921 223.629 145.24 224.33C145.482 223.363 145.94 222.464 146.58 221.7C147.55 220.31 148.54 219.41 148.64 219.51Z" fill="#FAFAFA"/>
<path d="M142.57 237.46C140.952 237.806 139.278 237.806 137.66 237.46C139.278 237.113 140.952 237.113 142.57 237.46Z" fill="#FAFAFA"/>
<path d="M151.6 234C151.116 233.191 150.867 232.263 150.88 231.32C150.726 230.391 150.837 229.438 151.2 228.57C151.354 229.465 151.421 230.372 151.4 231.28C151.558 232.177 151.625 233.089 151.6 234Z" fill="#FAFAFA"/>
<path d="M153.94 245.72C153.026 245.516 152.155 245.15 151.37 244.64C150.51 244.275 149.724 243.756 149.05 243.11C149.965 243.305 150.837 243.668 151.62 244.18C152.484 244.542 153.271 245.065 153.94 245.72Z" fill="#FAFAFA"/>
<path d="M160.38 239.77C160.45 239.9 159.87 240.34 159.09 240.77C158.31 241.2 157.61 241.44 157.54 241.31C157.47 241.18 158.05 240.74 158.84 240.31C159.63 239.88 160.32 239.64 160.38 239.77Z" fill="#FAFAFA"/>
<path d="M140.1 250.76C140.07 249.718 140.304 248.686 140.78 247.76C141.102 246.774 141.678 245.891 142.45 245.2C142.126 246.149 141.728 247.072 141.26 247.96C140.955 248.925 140.567 249.862 140.1 250.76Z" fill="#FAFAFA"/>
<path d="M150.7 255.8C149.913 254.913 149.351 253.85 149.06 252.7C148.605 251.603 148.423 250.413 148.53 249.23C148.924 250.314 149.257 251.419 149.53 252.54C149.978 253.605 150.369 254.693 150.7 255.8Z" fill="#FAFAFA"/>
<path d="M158.08 252.2C158.2 252.29 157.82 252.92 157.52 253.74C157.22 254.56 157.09 255.28 156.94 255.28C156.79 255.28 156.69 254.48 157.03 253.56C157.37 252.64 158 252.1 158.08 252.2Z" fill="#FAFAFA"/>
<path d="M169.06 243.43C167.641 244.308 166.054 244.877 164.4 245.1C165.065 244.591 165.828 244.223 166.64 244.02C167.399 243.663 168.222 243.462 169.06 243.43Z" fill="#FAFAFA"/>
<path d="M168.55 237C168.377 236.122 168.461 235.212 168.79 234.38C168.95 233.485 169.371 232.657 170 232C169.834 232.845 169.586 233.673 169.26 234.47C169.112 235.336 168.874 236.184 168.55 237Z" fill="#FAFAFA"/>
<path d="M165.44 231.52C164.557 231.767 163.633 231.836 162.722 231.721C161.812 231.605 160.934 231.31 160.14 230.85C161.032 230.893 161.918 231.01 162.79 231.2C163.681 231.229 164.568 231.336 165.44 231.52Z" fill="#FAFAFA"/>
<path d="M161.82 225.07C162.035 224.254 162.492 223.522 163.13 222.97C164.07 221.97 165.07 221.42 165.13 221.54C165.19 221.66 164.4 222.36 163.5 223.33C162.6 224.3 162 225.15 161.82 225.07Z" fill="#FAFAFA"/>
<path d="M155.06 220.29C154.369 218.84 154.004 217.256 153.99 215.65C154.681 217.1 155.047 218.684 155.06 220.29Z" fill="#FAFAFA"/>
<path d="M122 270.52C122.08 270.63 121.72 271.07 121.19 271.52C120.66 271.97 120.19 272.2 120.06 272.09C119.93 271.98 120.33 271.54 120.86 271.09C121.39 270.64 121.94 270.41 122 270.52Z" fill="#FAFAFA"/>
<path d="M160.39 276.5C159.405 276.713 158.39 276.757 157.39 276.63C156.375 276.667 155.36 276.532 154.39 276.23C156.414 275.979 158.466 276.07 160.46 276.5H160.39Z" fill="#FAFAFA"/>
<path d="M136.21 252.3C136.28 252.43 132.21 254.97 127.05 257.98C121.89 260.99 117.7 263.32 117.63 263.2C117.56 263.08 121.63 260.54 126.79 257.53C131.95 254.52 136.13 252.18 136.21 252.3Z" fill="#263238"/>
<path d="M116.67 276.28C116.19 276.28 110.89 291.92 115.96 302.28C116.47 303.28 118.24 305.66 120.45 309.05C130.95 325.16 157.57 361.24 158.37 366.79C159.37 373.51 176.52 443.79 176.52 443.79H190.52L178.75 363.6L161.21 287.53L116.67 276.28Z" fill="#FFBE9D"/>
<path d="M161.78 382.41C162.77 381.501 163.547 380.384 164.053 379.139C164.56 377.894 164.784 376.552 164.71 375.21C164.59 370.39 161.77 358.89 161.77 358.89L157.26 361.65C157.26 361.65 160.81 371.09 160.98 374.05C161.18 377.36 160.56 378.44 160.56 378.44L161.78 382.41Z" fill="#EB996E"/>
<path d="M125.25 315.33L140.06 370.33L93.79 418.44L103.52 430C103.52 430 160.36 383.4 161.39 376.7C162.57 369.05 148.71 314.7 148.71 314.7L125.25 315.33Z" fill="#FFBE9D"/>
<path d="M106.25 428.58L95.8601 416.29L93.1201 418.88L96.6301 423.65C99.0501 426.83 107.38 437.38 109.73 438.89C112.35 440.57 106.25 428.58 106.25 428.58Z" fill="#A3333D"/>
<path d="M110.49 438.69C110.59 438.6 106.82 434.06 102.07 428.54C97.32 423.02 93.37 418.63 93.27 418.72C93.17 418.81 96.94 423.35 101.69 428.87C106.44 434.39 110.39 438.78 110.49 438.69Z" fill="#263238"/>
<path d="M95.8901 421.92C95.9501 421.92 96.0801 421.67 96.2301 421.22C96.4193 420.612 96.4972 419.975 96.4601 419.34C96.4201 418.678 96.1555 418.05 95.7101 417.56C95.3501 417.2 95.0301 417.12 95.0101 417.17C94.9901 417.22 95.2001 417.42 95.4401 417.78C95.743 418.263 95.9248 418.812 95.9701 419.38C95.9955 419.971 95.9654 420.564 95.8801 421.15C95.8301 421.61 95.8201 421.91 95.8901 421.92Z" fill="#263238"/>
<path d="M106.7 429.54C106.7 429.69 106.17 429.7 105.57 429.69C104.97 429.68 104.48 429.64 104.46 429.5C104.44 429.36 104.93 429.15 105.58 429.16C106.23 429.17 106.73 429.4 106.7 429.54Z" fill="#263238"/>
<path d="M107.29 430.69C107.29 430.84 106.79 430.94 106.21 430.93C105.63 430.92 105.21 430.78 105.15 430.63C105.09 430.48 105.62 430.38 106.23 430.4C106.84 430.42 107.3 430.55 107.29 430.69Z" fill="#263238"/>
<path d="M107.75 431.71C107.75 431.86 107.38 431.98 106.93 432.05C106.48 432.12 106.09 432.11 106.05 431.97C106.01 431.83 106.36 431.61 106.85 431.54C107.34 431.47 107.75 431.57 107.75 431.71Z" fill="#263238"/>
<path d="M106.59 429.64C106.711 429.089 106.962 428.575 107.32 428.14C107.668 427.623 108.108 427.175 108.62 426.82C108.928 426.606 109.265 426.438 109.62 426.32C109.824 426.255 110.036 426.218 110.25 426.21C110.382 426.209 110.512 426.234 110.634 426.284C110.756 426.334 110.867 426.407 110.96 426.5C111.106 426.715 111.162 426.978 111.117 427.234C111.073 427.489 110.93 427.717 110.72 427.87C110.43 428.096 110.118 428.294 109.79 428.46C109.253 428.747 108.691 428.985 108.11 429.17C107.596 429.392 107.04 429.501 106.48 429.49C106.956 429.215 107.458 428.99 107.98 428.82C108.519 428.593 109.043 428.332 109.55 428.04C109.838 427.871 110.116 427.684 110.38 427.48C110.62 427.29 110.69 426.98 110.57 426.85C110.45 426.72 110.1 426.71 109.77 426.85C109.457 426.948 109.158 427.085 108.88 427.26C108.405 427.578 107.98 427.965 107.62 428.41C107 429.14 106.66 429.68 106.59 429.64Z" fill="#263238"/>
<path d="M106.7 429.35C107.211 429.098 107.771 428.965 108.34 428.96C108.96 428.897 109.586 428.917 110.2 429.02C110.571 429.079 110.934 429.184 111.28 429.33C111.479 429.398 111.665 429.5 111.83 429.63C111.944 429.707 112.034 429.815 112.09 429.94C112.13 430.017 112.15 430.103 112.15 430.19C112.15 430.277 112.13 430.363 112.09 430.44C111.96 430.635 111.787 430.798 111.584 430.915C111.381 431.033 111.154 431.103 110.92 431.12C110.54 431.191 110.15 431.191 109.77 431.12C109.16 430.994 108.568 430.789 108.01 430.51C107.01 430.05 106.65 429.46 106.71 429.42C107.178 429.7 107.662 429.95 108.16 430.17C108.709 430.379 109.274 430.539 109.85 430.65C110.182 430.697 110.519 430.697 110.85 430.65C111.149 430.62 111.427 430.481 111.63 430.26C111.73 430.26 111.41 429.94 111.09 429.83C110.768 429.693 110.433 429.589 110.09 429.52C109.514 429.404 108.928 429.35 108.34 429.36C107.794 429.404 107.246 429.401 106.7 429.35Z" fill="#263238"/>
<path d="M106.05 428.33C105.91 428.44 103.37 425.93 100.58 422.59C97.79 419.25 95.73 416.39 95.87 416.29C96.01 416.19 98.3 418.88 101.09 422.21C103.88 425.54 106.19 428.22 106.05 428.33Z" fill="#263238"/>
<path d="M191.06 443.8L176.32 443.64L176.49 448.27H177.49C181.77 448.34 199.25 448.33 202.07 447.42C205.18 446.42 191.06 443.8 191.06 443.8Z" fill="#A3333D"/>
<path d="M202.37 446.72C202.37 446.58 196.57 446.72 189.43 447.01C182.29 447.3 176.52 447.67 176.52 447.8C176.52 447.93 182.32 447.8 189.46 447.51C196.6 447.22 202.37 446.85 202.37 446.72Z" fill="#263238"/>
<path d="M181.18 447.56C181.24 447.51 181.1 447.25 180.81 446.85C180.427 446.317 179.945 445.862 179.39 445.51C178.795 445.13 178.094 444.952 177.39 445C176.85 445.05 176.57 445.26 176.6 445.31C176.63 445.36 176.93 445.31 177.4 445.31C178.004 445.364 178.586 445.559 179.1 445.88C179.613 446.216 180.089 446.605 180.52 447.04C180.88 447.41 181.12 447.6 181.18 447.56Z" fill="#263238"/>
<path d="M192.16 444C192.26 444.12 191.94 444.51 191.54 445C191.14 445.49 190.78 445.83 190.64 445.76C190.5 445.69 190.64 445.17 191.11 444.66C191.58 444.15 192.07 443.93 192.16 444Z" fill="#263238"/>
<path d="M193.52 444.29C193.63 444.39 193.4 444.83 193.01 445.29C192.62 445.75 192.19 446.02 192.06 445.94C191.93 445.86 192.16 445.42 192.58 444.94C193 444.46 193.41 444.19 193.52 444.29Z" fill="#263238"/>
<path d="M194.68 444.56C194.81 444.64 194.68 445.01 194.43 445.41C194.18 445.81 193.92 446.11 193.78 446.05C193.64 445.99 193.68 445.58 193.94 445.15C194.2 444.72 194.56 444.47 194.68 444.56Z" fill="#263238"/>
<path d="M192.17 444.19C191.803 443.755 191.539 443.242 191.4 442.69C191.201 442.098 191.113 441.474 191.14 440.85C191.168 440.473 191.252 440.102 191.39 439.75C191.468 439.548 191.576 439.36 191.71 439.19C191.797 439.08 191.906 438.989 192.03 438.923C192.154 438.858 192.29 438.819 192.43 438.81C192.695 438.81 192.95 438.915 193.137 439.103C193.325 439.291 193.43 439.545 193.43 439.81C193.424 440.18 193.384 440.548 193.31 440.91C193.194 441.511 193.023 442.1 192.8 442.67C192.641 443.216 192.364 443.721 191.99 444.15C192.064 443.6 192.208 443.063 192.42 442.55C192.584 441.989 192.711 441.418 192.8 440.84C192.851 440.509 192.878 440.175 192.88 439.84C192.88 439.54 192.66 439.29 192.47 439.31C192.28 439.33 192.05 439.58 191.92 439.91C191.79 440.213 191.706 440.533 191.67 440.86C191.618 441.43 191.661 442.005 191.8 442.56C191.982 443.088 192.107 443.635 192.17 444.19Z" fill="#263238"/>
<path d="M192 443.93C192.129 443.364 192.39 442.837 192.76 442.39C193.113 441.876 193.529 441.409 194 441C194.31 440.75 194.645 440.532 195 440.35C195.198 440.239 195.41 440.155 195.63 440.1C195.771 440.064 195.919 440.064 196.06 440.1C196.149 440.115 196.234 440.15 196.308 440.202C196.383 440.254 196.445 440.321 196.49 440.4C196.567 440.624 196.588 440.864 196.554 441.099C196.519 441.334 196.428 441.557 196.29 441.75C196.075 442.083 195.808 442.38 195.5 442.63C194.98 443.026 194.416 443.361 193.82 443.63C193.287 443.954 192.656 444.078 192.04 443.98C192.589 443.793 193.124 443.566 193.64 443.3C194.175 443.017 194.681 442.682 195.15 442.3C195.406 442.079 195.625 441.819 195.8 441.53C195.887 441.408 195.948 441.27 195.981 441.124C196.014 440.978 196.017 440.827 195.99 440.68C195.99 440.58 195.57 440.68 195.27 440.84C194.951 440.998 194.649 441.189 194.37 441.41C193.894 441.787 193.458 442.212 193.07 442.68C192.749 443.125 192.391 443.543 192 443.93Z" fill="#263238"/>
<path d="M190.71 443.8C188.367 444.149 185.996 444.273 183.63 444.17C181.263 444.243 178.894 444.109 176.55 443.77C178.905 443.582 181.27 443.542 183.63 443.65C185.991 443.578 188.354 443.628 190.71 443.8Z" fill="#263238"/>
<path d="M147 210.48C146.93 207.33 146.89 204.48 146.89 204.48C146.89 204.48 153.06 203.83 153.43 197.72C153.8 191.61 153.43 177.5 153.43 177.5L142.2 172.01L129.85 181.37L130.57 210.82C130.627 212.96 131.517 214.993 133.051 216.487C134.584 217.981 136.639 218.818 138.78 218.82C139.87 218.82 140.949 218.603 141.954 218.183C142.959 217.762 143.87 217.146 144.635 216.37C145.4 215.594 146.003 214.673 146.409 213.662C146.815 212.651 147.016 211.569 147 210.48Z" fill="#FFBE9D"/>
<path d="M130.67 186.12C130.67 186.12 140.76 185.12 142.54 176.02L153.54 186.12C154.457 183.92 154.686 181.493 154.197 179.16C153.708 176.827 152.524 174.697 150.8 173.05C144.73 166.75 140.57 168.05 138.19 168.05C135.98 168.05 124.77 170.43 121.43 183.18C121.19 184.11 120.99 186.4 120.84 187.44L130.67 186.12Z" fill="#263238"/>
<path d="M152.09 187.82C152.09 187.974 152.044 188.125 151.959 188.253C151.873 188.382 151.751 188.482 151.609 188.541C151.466 188.6 151.309 188.615 151.158 188.585C151.007 188.555 150.868 188.481 150.758 188.372C150.649 188.262 150.575 188.124 150.545 187.972C150.515 187.821 150.53 187.664 150.589 187.522C150.648 187.379 150.748 187.257 150.877 187.171C151.005 187.086 151.156 187.04 151.31 187.04C151.517 187.04 151.715 187.122 151.862 187.269C152.008 187.415 152.09 187.613 152.09 187.82Z" fill="#263238"/>
<path d="M152.85 187C152.75 187.1 152.17 186.61 151.33 186.56C150.49 186.51 149.85 186.92 149.77 186.81C149.69 186.7 149.83 186.57 150.1 186.38C150.475 186.139 150.916 186.024 151.36 186.05C151.804 186.076 152.229 186.245 152.57 186.53C152.82 186.72 152.9 186.92 152.85 187Z" fill="#263238"/>
<path d="M143 187.82C143 187.974 142.954 188.125 142.869 188.253C142.783 188.382 142.661 188.482 142.519 188.541C142.376 188.6 142.219 188.615 142.068 188.585C141.917 188.555 141.778 188.481 141.669 188.372C141.56 188.262 141.485 188.124 141.455 187.972C141.425 187.821 141.441 187.664 141.5 187.522C141.559 187.379 141.659 187.257 141.787 187.171C141.915 187.086 142.066 187.04 142.22 187.04C142.427 187.04 142.625 187.122 142.772 187.269C142.918 187.415 143 187.613 143 187.82Z" fill="#263238"/>
<path d="M143.51 187C143.41 187.1 142.83 186.61 141.99 186.56C141.15 186.51 140.51 186.92 140.42 186.81C140.33 186.7 140.49 186.57 140.76 186.38C141.134 186.139 141.576 186.023 142.02 186.05C142.464 186.077 142.888 186.245 143.23 186.53C143.48 186.72 143.56 186.92 143.51 187Z" fill="#263238"/>
<path d="M146.55 194.08C147.002 193.97 147.465 193.913 147.93 193.91C148.14 193.91 148.35 193.91 148.4 193.71C148.426 193.477 148.384 193.241 148.28 193.03L147.7 191.28C147.3 190.04 146.96 188.91 146.7 188.09C146.546 187.65 146.442 187.194 146.39 186.73C146.647 187.125 146.852 187.552 147 188C147.29 188.81 147.67 189.93 148.07 191.17C148.27 191.78 148.45 192.37 148.63 192.92C148.753 193.196 148.781 193.506 148.71 193.8C148.681 193.877 148.632 193.946 148.569 194C148.506 194.055 148.431 194.092 148.35 194.11C148.231 194.123 148.11 194.123 147.99 194.11C147.511 194.163 147.027 194.153 146.55 194.08Z" fill="#263238"/>
<path d="M143.77 194.88C145.095 195.434 146.455 195.901 147.84 196.28C147.534 196.709 147.092 197.022 146.585 197.167C146.078 197.313 145.537 197.282 145.05 197.08C143.25 196.32 143.77 194.88 143.77 194.88Z" fill="#FAFAFA"/>
<path d="M146.88 204.52C143.975 204.401 141.164 203.454 138.78 201.79C138.78 201.79 140.78 206.29 146.88 206.04V204.52Z" fill="#EB996E"/>
<path d="M142.24 175.29C142.24 175.29 144.48 179.62 143.52 182.88L153.33 185.41C153.33 185.41 155.56 173 142.24 175.29Z" fill="#263238"/>
<path d="M120.79 187.44C120.79 187.44 119.06 200.57 130.96 203.11L130.67 186.11L120.79 187.44Z" fill="#263238"/>
<path d="M143.11 171.29C144.124 171.19 145.148 171.313 146.11 171.65C148.515 172.319 150.688 173.64 152.389 175.466C154.09 177.293 155.253 179.554 155.75 182C156.013 182.978 156.061 184.002 155.89 185C155.77 185 155.76 183.84 155.28 182.07C154.685 179.761 153.523 177.636 151.899 175.89C150.275 174.144 148.24 172.831 145.98 172.07C144.25 171.5 143.1 171.4 143.11 171.29Z" fill="#263238"/>
<path d="M146 187.44C146 187.44 146 187.01 145.78 186.28C145.497 185.256 144.882 184.355 144.03 183.72C143.341 183.208 142.524 182.897 141.669 182.822C140.814 182.748 139.955 182.913 139.188 183.298C138.421 183.683 137.776 184.274 137.326 185.005C136.875 185.735 136.637 186.577 136.637 187.435C136.637 188.293 136.875 189.135 137.326 189.865C137.776 190.596 138.421 191.187 139.188 191.572C139.955 191.957 140.814 192.122 141.669 192.048C142.524 191.973 143.341 191.662 144.03 191.15C144.882 190.515 145.497 189.614 145.78 188.59C145.98 187.86 145.96 187.43 146 187.44C146.011 187.54 146.011 187.64 146 187.74C146.003 188.036 145.969 188.332 145.9 188.62C145.69 189.533 145.219 190.365 144.544 191.015C143.869 191.665 143.02 192.104 142.1 192.28C141.186 192.454 140.242 192.367 139.375 192.03C138.509 191.692 137.755 191.117 137.2 190.37C136.571 189.521 136.231 188.492 136.231 187.435C136.231 186.378 136.571 185.349 137.2 184.5C137.755 183.753 138.509 183.178 139.375 182.84C140.242 182.503 141.186 182.416 142.1 182.59C142.854 182.736 143.564 183.058 144.17 183.53C145.044 184.209 145.656 185.17 145.9 186.25C145.969 186.538 146.002 186.834 146 187.13C146.011 187.233 146.011 187.337 146 187.44Z" fill="#263238"/>
<path d="M157.07 187.44C157.07 187.44 157.07 187.01 156.86 186.28C156.578 185.256 155.962 184.355 155.11 183.72C154.615 183.352 154.052 183.086 153.453 182.937C152.854 182.788 152.232 182.759 151.622 182.852C151.012 182.945 150.426 183.158 149.899 183.479C149.372 183.799 148.913 184.221 148.55 184.72C148.002 185.47 147.692 186.367 147.66 187.295C147.627 188.224 147.874 189.141 148.369 189.927C148.863 190.713 149.582 191.333 150.433 191.706C151.284 192.079 152.227 192.189 153.14 192.02C153.865 191.898 154.55 191.607 155.14 191.17C155.992 190.535 156.608 189.634 156.89 188.61C157.08 187.88 157.06 187.45 157.1 187.46C157.115 187.559 157.115 187.66 157.1 187.76C157.103 188.056 157.069 188.352 157 188.64C156.779 189.544 156.305 190.367 155.633 191.012C154.961 191.657 154.119 192.097 153.206 192.28C152.294 192.464 151.347 192.384 150.478 192.049C149.609 191.714 148.854 191.139 148.3 190.39C147.671 189.541 147.331 188.512 147.331 187.455C147.331 186.398 147.671 185.369 148.3 184.52C148.876 183.726 149.683 183.129 150.61 182.81C151.439 182.508 152.335 182.439 153.2 182.61C153.951 182.758 154.656 183.08 155.26 183.55C156.137 184.228 156.752 185.189 157 186.27C157.069 186.558 157.102 186.854 157.1 187.15C157.103 187.247 157.093 187.345 157.07 187.44Z" fill="#263238"/>
<path d="M147.49 187.59C147.49 187.68 147.09 187.76 146.61 187.76C146.13 187.76 145.73 187.68 145.73 187.59C145.73 187.5 146.13 187.42 146.61 187.42C147.09 187.42 147.49 187.49 147.49 187.59Z" fill="#263238"/>
<path d="M136.61 188.44C135.232 188.882 133.821 189.217 132.39 189.44C130.987 189.777 129.559 190.001 128.12 190.11C129.495 189.667 130.903 189.333 132.33 189.11C133.738 188.777 135.168 188.553 136.61 188.44Z" fill="#263238"/>
<path d="M130 195.64C129.5 195.946 128.91 196.07 128.329 195.992C127.748 195.913 127.211 195.637 126.81 195.21C126.425 194.764 126.15 194.234 126.007 193.663C125.865 193.091 125.859 192.494 125.99 191.92C126.084 191.215 126.441 190.572 126.99 190.12C127.425 189.92 127.903 189.83 128.382 189.86C128.86 189.89 129.323 190.037 129.73 190.29L130 195.64Z" fill="#FFBE9D"/>
<path d="M128.63 194.65C128.63 194.57 128.32 194.52 127.96 194.26C127.733 194.096 127.551 193.877 127.434 193.623C127.316 193.369 127.267 193.089 127.29 192.81C127.314 192.53 127.414 192.261 127.577 192.032C127.741 191.804 127.963 191.623 128.22 191.51C128.62 191.31 128.94 191.32 128.94 191.24C128.94 191.16 128.63 191.02 128.09 191.16C127.736 191.265 127.421 191.473 127.186 191.759C126.951 192.044 126.807 192.393 126.773 192.761C126.738 193.129 126.815 193.499 126.993 193.823C127.17 194.148 127.441 194.411 127.77 194.58C128.28 194.81 128.63 194.72 128.63 194.65Z" fill="#EB996E"/>
<path d="M117.82 273.19C117.82 273.19 107.09 284.33 109.3 308.19C111.51 332.05 114.41 364 114.41 364C114.41 364 128.21 351.55 135.22 356.87C142.23 362.19 149.22 366.54 158.37 360.77C170.85 352.87 184.53 358.09 184.53 358.09L162.53 279.2L117.82 273.19Z" fill="#263238"/>
<path d="M131.76 276C131.79 276.811 131.636 277.617 131.31 278.36C130.632 280.21 129.426 281.82 127.84 282.99C126.246 284.143 124.346 284.797 122.38 284.87C121.574 284.955 120.76 284.852 120 284.57C120 284.48 120.91 284.65 122.35 284.51C124.223 284.345 126.016 283.673 127.535 282.564C129.054 281.456 130.242 279.954 130.97 278.22C131.54 276.92 131.67 276 131.76 276Z" fill="#455A64"/>
<path d="M122.18 276.33C122.04 276.28 122.11 275.72 122.34 275.06C122.57 274.4 122.85 273.92 122.99 273.96C123.13 274 123.05 274.58 122.83 275.23C122.61 275.88 122.31 276.37 122.18 276.33Z" fill="#455A64"/>
<path d="M119.81 285.74C119.723 284.921 119.812 284.092 120.07 283.31C120.162 282.495 120.425 281.708 120.84 281C120.921 281.816 120.833 282.64 120.58 283.42C120.49 284.239 120.228 285.03 119.81 285.74Z" fill="#455A64"/>
<path d="M118.58 295.37C118.392 293.744 118.556 292.097 119.06 290.54C119.227 291.345 119.227 292.175 119.06 292.98C119.073 293.802 118.909 294.617 118.58 295.37Z" fill="#455A64"/>
<path d="M118.34 305.08C118.087 304.296 118.002 303.468 118.09 302.65C118.002 301.83 118.09 301.002 118.35 300.22C118.603 301.003 118.691 301.83 118.61 302.65C118.697 303.47 118.605 304.299 118.34 305.08Z" fill="#455A64"/>
<path d="M118.94 314.78C118.627 314.019 118.474 313.202 118.49 312.38C118.334 311.572 118.355 310.739 118.55 309.94C118.867 310.696 119.02 311.51 119 312.33C119.149 313.142 119.128 313.976 118.94 314.78Z" fill="#455A64"/>
<path d="M120.17 324.42C119.802 323.679 119.598 322.867 119.57 322.04C119.372 321.241 119.345 320.41 119.49 319.6C119.851 320.341 120.055 321.147 120.09 321.97C120.281 322.773 120.309 323.606 120.17 324.42Z" fill="#455A64"/>
<path d="M121.94 334C121.529 333.285 121.276 332.491 121.2 331.67C120.961 330.883 120.886 330.056 120.98 329.24C121.644 330.739 121.984 332.361 121.98 334H121.94Z" fill="#455A64"/>
<path d="M124.14 343.42C123.709 342.719 123.43 341.935 123.32 341.12C123.044 340.345 122.935 339.52 123 338.7C123.431 339.401 123.711 340.184 123.82 341C124.097 341.775 124.206 342.599 124.14 343.42Z" fill="#455A64"/>
<path d="M125.94 350.55C125.8 350.55 125.55 350.07 125.38 349.4C125.21 348.73 125.18 348.16 125.32 348.13C125.46 348.1 125.71 348.61 125.88 349.28C126.05 349.95 126.08 350.52 125.94 350.55Z" fill="#455A64"/>
<path d="M150.81 298C150.596 297.012 150.462 296.009 150.41 295C150.22 293.14 149.97 290.58 149.77 287.74C149.57 284.9 149.47 282.33 149.47 280.46C149.425 279.458 149.472 278.454 149.61 277.46C149.769 278.452 149.846 279.455 149.84 280.46C149.93 282.32 150.08 284.88 150.29 287.72C150.5 290.56 150.68 293.12 150.77 294.98C150.876 295.983 150.889 296.994 150.81 298Z" fill="#455A64"/>
<path d="M152.47 277.93C152.672 278.952 152.789 279.988 152.82 281.03C152.98 282.94 153.15 285.58 153.31 288.51C153.38 289.96 153.45 291.35 153.51 292.63C153.635 293.78 153.508 294.943 153.14 296.04C152.862 296.79 152.327 297.417 151.63 297.81C151.13 298.06 150.81 298.05 150.81 298.02C150.81 297.99 151.1 297.92 151.53 297.64C152.124 297.21 152.568 296.605 152.8 295.91C153.09 294.852 153.168 293.748 153.03 292.66C152.96 291.37 152.87 289.99 152.79 288.54C152.63 285.61 152.51 282.96 152.46 281.05C152.377 280.011 152.381 278.968 152.47 277.93Z" fill="#455A64"/>
<path d="M164.88 287.6C164.281 287.607 163.689 287.463 163.16 287.18C161.833 286.606 160.666 285.717 159.76 284.59C158.854 283.461 158.233 282.13 157.95 280.71C157.811 280.128 157.811 279.522 157.95 278.94C158.121 279.495 158.258 280.059 158.36 280.63C158.722 281.954 159.353 283.19 160.213 284.26C161.073 285.33 162.144 286.212 163.36 286.85C163.879 287.075 164.386 287.325 164.88 287.6Z" fill="#455A64"/>
<path d="M184.17 352.79C183.918 352.78 183.667 352.75 183.42 352.7L181.27 352.37C178.62 351.976 175.948 351.745 173.27 351.68C169.33 351.57 165.397 352.069 161.61 353.16C159.48 353.77 157.38 354.79 155.1 355.69C153.936 356.15 152.725 356.485 151.49 356.69C150.194 356.903 148.867 356.834 147.6 356.49C145.03 355.78 142.96 354.22 140.86 353.06C138.834 351.948 136.643 351.168 134.37 350.75C132.306 350.37 130.202 350.262 128.11 350.43C126.291 350.608 124.494 350.973 122.75 351.52C120.224 352.344 117.857 353.592 115.75 355.21C115.17 355.64 114.619 356.108 114.1 356.61C113.92 356.791 113.726 356.958 113.52 357.11C113.669 356.902 113.84 356.711 114.03 356.54C114.52 356.002 115.051 355.503 115.62 355.05C117.704 353.35 120.074 352.036 122.62 351.17C124.384 350.59 126.204 350.197 128.05 350C130.179 349.814 132.324 349.905 134.43 350.27C136.763 350.687 139.012 351.481 141.09 352.62C143.23 353.79 145.28 355.32 147.72 355.99C150.16 356.66 152.72 356.04 154.9 355.18C157.08 354.32 159.28 353.28 161.46 352.67C165.295 351.586 169.278 351.117 173.26 351.28C175.943 351.381 178.617 351.668 181.26 352.14C182.19 352.31 182.91 352.45 183.4 352.57C183.665 352.61 183.924 352.684 184.17 352.79Z" fill="#455A64"/>
<path d="M189.67 263.19C192.06 262.67 196.61 260.8 196.67 260.19C196.86 259.05 192.67 260.39 191.5 260.62C190.33 260.85 184.09 259.72 184.09 259.72C182.56 258.87 181.09 257.98 179.87 257.26C179.321 256.723 178.936 256.042 178.759 255.295C178.582 254.548 178.621 253.766 178.87 253.04C179.47 251.27 179.51 249.79 179.2 249.23C179.073 249.05 178.893 248.914 178.685 248.841C178.478 248.767 178.252 248.759 178.04 248.818C177.828 248.877 177.639 249 177.5 249.171C177.36 249.341 177.276 249.55 177.26 249.77C176.994 250.89 176.573 251.967 176.01 252.97C175.576 253.809 175.005 254.57 174.32 255.22C173.56 255.93 172.88 256.51 172.32 256.99C167.02 257.94 151.98 260.09 138.78 256.72C137.13 255.986 135.7 254.835 134.63 253.38L119.78 262.32C126.67 284.18 176.78 270.06 176.78 270.06L190.51 265.41C190.51 265.41 198.15 263.54 198.15 262.89C198.19 261.86 192.54 263.15 189.67 263.19Z" fill="#FFBE9D"/>
<path d="M146.9 210.93C146.956 211.261 146.956 211.599 146.9 211.93C146.766 212.885 146.482 213.813 146.06 214.68C145.443 215.981 144.516 217.111 143.36 217.97C141.919 219.034 140.147 219.551 138.36 219.43C136.58 219.337 134.888 218.63 133.57 217.43C132.515 216.447 131.709 215.227 131.22 213.87C130.887 212.968 130.695 212.02 130.65 211.06C130.621 210.725 130.644 210.388 130.72 210.06C130.844 211.331 131.13 212.581 131.57 213.78C132.081 215.054 132.875 216.196 133.89 217.12C135.137 218.239 136.727 218.902 138.4 219C140.068 219.109 141.724 218.643 143.09 217.68C144.198 216.871 145.105 215.817 145.74 214.6C146.296 213.437 146.687 212.202 146.9 210.93Z" fill="#263238"/>
</svg>
