<svg width="30" height="20" viewBox="0 0 30 20" fill="none" xmlns="http://www.w3.org/2000/svg">
<g clip-path="url(#clip0_954_2001)">
<path fill-rule="evenodd" clip-rule="evenodd" d="M15.7147 17.9058C15.7192 17.356 15.515 16.8251 15.1433 16.4201L9.06901 10.0001L15.1433 3.58005C15.5155 3.17619 15.7221 2.6471 15.7221 2.09791C15.7221 1.54872 15.5155 1.01963 15.1433 0.615767C14.9653 0.421553 14.7489 0.266476 14.5077 0.160386C14.2666 0.0542964 14.006 -0.000488281 13.7426 -0.000488281C13.4791 -0.000488281 13.2186 0.0542964 12.9774 0.160386C12.7363 0.266476 12.5199 0.421553 12.3419 0.615767L4.86759 8.51862C4.49385 8.92085 4.28613 9.44957 4.28613 9.99862C4.28613 10.5477 4.49385 11.0764 4.86759 11.4786L12.3347 19.3843C12.5127 19.5786 12.7292 19.7336 12.9703 19.8397C13.2114 19.9458 13.472 20.0006 13.7354 20.0006C13.9989 20.0006 14.2594 19.9458 14.5006 19.8397C14.7417 19.7336 14.9582 19.5786 15.1362 19.3843C15.5074 18.9819 15.7117 18.4533 15.7076 17.9058" fill="#808080"/>
<path fill-rule="evenodd" clip-rule="evenodd" d="M25.7147 17.9058C25.7192 17.356 25.515 16.8251 25.1433 16.4201L19.069 10.0001L25.1433 3.58005C25.5155 3.17619 25.7221 2.6471 25.7221 2.09791C25.7221 1.54872 25.5155 1.01963 25.1433 0.615767C24.9653 0.421553 24.7489 0.266476 24.5077 0.160386C24.2666 0.0542964 24.006 -0.000488281 23.7426 -0.000488281C23.4791 -0.000488281 23.2186 0.0542964 22.9774 0.160386C22.7363 0.266476 22.5199 0.421553 22.3419 0.615767L14.8676 8.51862C14.4939 8.92085 14.2861 9.44957 14.2861 9.99862C14.2861 10.5477 14.4939 11.0764 14.8676 11.4786L22.3347 19.3843C22.5127 19.5786 22.7292 19.7336 22.9703 19.8397C23.2114 19.9458 23.472 20.0006 23.7354 20.0006C23.9989 20.0006 24.2594 19.9458 24.5006 19.8397C24.7417 19.7336 24.9582 19.5786 25.1362 19.3843C25.5074 18.9819 25.7117 18.4533 25.7076 17.9058" fill="#808080"/>
</g>
<defs>
<clipPath id="clip0_954_2001">
<rect width="30" height="20" fill="white"/>
</clipPath>
</defs>
</svg>
