<svg width="213" height="234" viewBox="0 0 213 234" fill="none" xmlns="http://www.w3.org/2000/svg">
<g clip-path="url(#clip0_981_2038)">
<path d="M33.661 58.1803C33.0138 56.6145 33.494 54.9302 34.7338 54.4178C57.403 45.0481 84.6368 62.4468 101.034 80.1211C110.452 90.1907 115.785 100.976 116.633 111.291C116.702 112.149 116.728 113.003 116.708 113.848C147.131 118.848 177.05 134.636 202.415 159.076C203.021 159.603 203.453 160.368 203.61 161.191C203.768 162.014 203.635 162.822 203.245 163.421C202.854 164.022 202.24 164.36 201.55 164.357C200.858 164.354 200.151 164.009 199.597 163.405C174.833 139.498 145.563 124.144 115.844 119.469C114.781 123.409 112.704 126.704 109.867 128.954C106.51 131.767 101.866 132.101 97.5493 129.842C95.504 128.873 93.7279 127.064 92.588 124.79C91.4593 122.45 91.3647 119.779 92.3396 117.745C94.1333 113.861 99.2552 112.054 103.391 112.27C106.123 112.409 108.862 112.649 111.608 112.989L111.607 112.99C111.648 112.264 111.642 111.527 111.589 110.784C110.697 99.9355 103.701 90.3021 97.9713 84.1531C82.7535 67.8063 57.6748 51.6403 37.0781 60.0887C35.8383 60.6012 34.3091 59.7475 33.6619 58.1816L33.661 58.1803ZM110.352 118.818C108.236 118.587 106.123 118.42 104.014 118.319C101.023 118.161 97.7089 119.553 96.8767 121.269L96.8763 121.268C96.6559 121.664 96.6849 122.22 96.9505 122.676C97.4514 123.516 98.1668 124.163 98.9645 124.498C101.672 125.899 104.577 125.667 106.664 123.882C108.254 122.614 109.516 120.882 110.352 118.818Z" fill="black"/>
<path d="M184.139 160.345C183.688 159.278 183.751 158.099 184.301 157.296C184.85 156.493 185.793 156.204 186.739 156.548C191.037 158.046 195.4 159.319 199.745 160.378L199.745 160.379C196.359 154.788 193.22 149.021 190.347 143.109C189.991 142.376 189.876 141.552 190.028 140.82C190.181 140.087 190.586 139.504 191.158 139.201C192.348 138.568 193.915 139.293 194.656 140.819C198.379 148.472 202.56 155.866 207.161 162.934C207.811 163.928 207.965 165.189 207.556 166.158C207.146 167.127 206.248 167.628 205.256 167.438C198.843 166.195 192.436 164.46 186.08 162.243C185.258 161.975 184.533 161.267 184.14 160.346L184.139 160.345Z" fill="black"/>
</g>
<defs>
<clipPath id="clip0_981_2038">
<rect width="190" height="150.434" fill="white" transform="translate(139.896 0.106689) rotate(67.5436)"/>
</clipPath>
</defs>
</svg>
