<svg width="500" height="500" viewBox="0 0 500 500" fill="none" xmlns="http://www.w3.org/2000/svg">
<path d="M429.42 94.23C456.12 147.43 447.67 214.57 414.31 263.85C380.95 313.13 325.43 345.05 267.06 356.66C225.39 364.96 180.57 363.27 142.5 344.42C104.43 325.57 74.5 287.63 72.21 245.2C71.34 229.2 74.74 212.2 85.43 200.2C102.51 181.1 131.66 180.42 157.27 181.2C182.88 181.98 212.01 181.39 229.17 162.36C242.35 147.74 244.29 126.53 251.24 108.11C263.05 76.79 291.55 52.33 324.3 45.41C328.845 44.4532 333.454 43.8282 338.09 43.54C374.09 41.29 408.28 59.83 427.18 90.54L429.42 94.23Z" fill="#F5F5F5"/>
<path d="M454.63 448.79C454.63 448.93 359.69 449.05 242.63 449.05C125.57 449.05 30.6299 448.93 30.6299 448.79C30.6299 448.65 125.55 448.53 242.68 448.53C359.81 448.53 454.63 448.65 454.63 448.79Z" fill="#263238"/>
<path d="M427.33 175.85C427.101 175.754 426.863 175.68 426.62 175.63C425.906 175.469 425.164 175.469 424.45 175.63C423.292 175.928 422.216 176.482 421.3 177.25C420.055 178.328 418.976 179.585 418.1 180.98C416.05 184.12 414.44 188.46 412.56 193.52C410.385 199.298 408.502 205.182 406.92 211.15C406.626 211.701 406.233 212.192 405.76 212.6C405.516 212.822 405.228 212.989 404.913 213.089C404.599 213.189 404.267 213.22 403.94 213.18C403.298 213.017 402.717 212.669 402.27 212.18C401.8 211.75 401.36 211.29 400.92 210.82C400.052 209.865 399.127 208.964 398.15 208.12C397.206 207.212 395.95 206.7 394.64 206.69C393.985 206.802 393.36 207.05 392.807 207.419C392.254 207.787 391.785 208.268 391.43 208.83C390.72 210.045 390.338 211.423 390.32 212.83C390.15 215.69 390.98 218.58 391.48 221.57C391.98 224.56 392.61 227.63 393.19 230.76C393.49 232.33 393.78 233.91 394.08 235.51L394.53 237.93C394.667 238.353 394.713 238.8 394.663 239.242C394.613 239.683 394.468 240.109 394.24 240.49C394.09 240.691 393.882 240.841 393.645 240.922C393.407 241.002 393.151 241.008 392.91 240.94C392.478 240.815 392.074 240.607 391.72 240.33L389.72 238.81C388.359 237.782 386.944 236.827 385.48 235.95C384.015 235.038 382.415 234.363 380.74 233.95C379.911 233.755 379.049 233.755 378.22 233.95C377.395 234.159 376.667 234.646 376.16 235.33C375.198 236.814 374.726 238.563 374.81 240.33C374.813 242.15 374.99 243.965 375.34 245.75C376.061 249.421 377.081 253.026 378.39 256.53C378.771 257.426 379.062 258.357 379.26 259.31C379.308 259.58 379.3 259.857 379.236 260.124C379.172 260.39 379.055 260.641 378.89 260.86C378.801 260.964 378.704 261.061 378.6 261.15C378.487 261.252 378.354 261.33 378.21 261.38C377.905 261.426 377.594 261.354 377.34 261.18C376.509 260.647 375.735 260.031 375.03 259.34L372.89 257.34C371.489 255.983 369.966 254.758 368.34 253.68C367.53 253.148 366.643 252.743 365.71 252.48C365.267 252.343 364.8 252.301 364.34 252.358C363.879 252.415 363.436 252.569 363.04 252.81C362.268 253.371 361.73 254.197 361.53 255.13C361.289 256.085 361.168 257.066 361.17 258.05C361.179 260.073 361.431 262.087 361.92 264.05C362.908 268.04 364.368 271.897 366.27 275.54C368.163 279.276 370.325 282.869 372.74 286.29C373.948 288.026 375.25 289.695 376.64 291.29C377.98 292.95 379.34 294.6 380.7 296.29V296.35L380.46 296.25L386.82 295.33C388.927 295.079 391.02 294.719 393.09 294.25C397.17 293.332 401.18 292.126 405.09 290.64C408.947 289.214 412.623 287.338 416.04 285.05C417.718 283.939 419.253 282.626 420.61 281.14C421.279 280.412 421.854 279.602 422.32 278.73C422.797 277.905 422.954 276.933 422.76 276C422.631 275.553 422.409 275.139 422.107 274.786C421.805 274.432 421.431 274.147 421.01 273.95C420.141 273.525 419.214 273.229 418.26 273.07C416.331 272.778 414.38 272.661 412.43 272.72H409.51C408.506 272.759 407.501 272.696 406.51 272.53C406.203 272.491 405.923 272.333 405.73 272.09C405.657 271.954 405.613 271.804 405.6 271.65C405.585 271.514 405.585 271.376 405.6 271.24C405.631 270.969 405.714 270.707 405.846 270.468C405.978 270.23 406.156 270.02 406.37 269.85C407.157 269.28 407.998 268.788 408.88 268.38C412.208 266.669 415.389 264.686 418.39 262.45C419.843 261.367 421.183 260.141 422.39 258.79C423.639 257.541 424.464 255.933 424.75 254.19C424.834 253.342 424.622 252.49 424.15 251.78C423.672 251.076 423.035 250.493 422.29 250.08C420.782 249.251 419.152 248.667 417.46 248.35C415.788 248.013 414.099 247.77 412.4 247.62L409.88 247.38C409.43 247.354 408.991 247.235 408.59 247.03C408.367 246.915 408.183 246.735 408.064 246.514C407.944 246.292 407.894 246.04 407.92 245.79C408.012 245.357 408.194 244.948 408.454 244.59C408.714 244.231 409.047 243.932 409.43 243.71L411.43 242.23L415.28 239.3L422.72 233.65C425.11 231.78 427.66 230.2 429.46 227.96C430.381 226.913 431.015 225.645 431.3 224.28C431.416 223.624 431.393 222.951 431.231 222.305C431.069 221.659 430.772 221.054 430.36 220.53C429.924 220.048 429.358 219.701 428.73 219.53C428.103 219.344 427.454 219.236 426.8 219.21C425.512 219.176 424.223 219.223 422.94 219.35C422.3 219.35 421.66 219.44 421.03 219.45C420.374 219.499 419.717 219.357 419.14 219.04C418.864 218.853 418.632 218.609 418.46 218.325C418.287 218.04 418.178 217.721 418.14 217.39C418.066 216.769 418.103 216.139 418.25 215.53C421.112 210.108 423.699 204.544 426 198.86C428 193.86 429.73 189.56 430.35 185.86C430.653 184.245 430.721 182.595 430.55 180.96C430.42 179.772 430.02 178.629 429.38 177.62C428.993 177.003 428.465 176.485 427.84 176.11C427.627 175.98 427.403 175.87 427.17 175.78C427.412 175.845 427.644 175.943 427.86 176.07C428.504 176.438 429.052 176.952 429.46 177.57C430.113 178.588 430.527 179.74 430.67 180.94C430.865 182.589 430.814 184.257 430.52 185.89C429.92 189.6 428.22 193.89 426.23 198.89C423.977 204.639 421.434 210.269 418.61 215.76C418.472 216.323 418.438 216.906 418.51 217.48C418.537 217.763 418.624 218.037 418.766 218.284C418.907 218.53 419.1 218.744 419.33 218.91C419.852 219.186 420.442 219.308 421.03 219.26C421.65 219.26 422.28 219.2 422.92 219.15C424.219 219.019 425.525 218.969 426.83 219C427.508 219.027 428.18 219.138 428.83 219.33C429.518 219.513 430.141 219.884 430.63 220.4C431.066 220.961 431.38 221.606 431.552 222.295C431.724 222.983 431.751 223.701 431.63 224.4C431.339 225.833 430.677 227.164 429.71 228.26C427.86 230.56 425.29 232.16 422.92 234.04L415.49 239.7L411.65 242.62L409.7 244.11C409.371 244.33 409.072 244.593 408.81 244.89C408.569 245.176 408.41 245.521 408.35 245.89C408.333 246.056 408.366 246.224 408.447 246.371C408.527 246.517 408.65 246.636 408.8 246.71C409.154 246.881 409.538 246.98 409.93 247L412.45 247.24C414.163 247.386 415.865 247.63 417.55 247.97C419.3 248.293 420.987 248.89 422.55 249.74C423.347 250.199 424.031 250.831 424.55 251.59C425.071 252.386 425.311 253.333 425.23 254.28C424.933 256.124 424.07 257.829 422.76 259.16C421.518 260.534 420.145 261.783 418.66 262.89C415.639 265.148 412.438 267.155 409.09 268.89C408.239 269.276 407.429 269.745 406.67 270.29C406.504 270.418 406.365 270.577 406.262 270.759C406.159 270.941 406.094 271.142 406.07 271.35C406.06 271.45 406.06 271.55 406.07 271.65C406.07 271.73 406.07 271.92 406.14 271.91C406.269 272.025 406.429 272.098 406.6 272.12C407.539 272.272 408.49 272.332 409.44 272.3H412.36C414.34 272.228 416.322 272.345 418.28 272.65C419.289 272.807 420.268 273.121 421.18 273.58C421.662 273.811 422.09 274.141 422.435 274.55C422.78 274.959 423.034 275.436 423.18 275.95C423.407 277.001 423.236 278.098 422.7 279.03C422.217 279.94 421.619 280.783 420.92 281.54C419.537 283.059 417.971 284.403 416.26 285.54C412.813 287.859 409.099 289.756 405.2 291.19C401.26 292.693 397.216 293.91 393.1 294.83C391.024 295.301 388.924 295.661 386.81 295.91L380.44 296.84H380.29L380.2 296.72H380.15L376.09 291.72C374.701 290.122 373.396 288.453 372.18 286.72C369.747 283.273 367.568 279.654 365.66 275.89C363.749 272.207 362.282 268.309 361.29 264.28C360.784 262.29 360.526 260.244 360.52 258.19C360.521 257.158 360.649 256.131 360.9 255.13C361.136 254.082 361.748 253.157 362.62 252.53C363.076 252.249 363.586 252.067 364.117 251.998C364.648 251.929 365.188 251.974 365.7 252.13C366.679 252.407 367.609 252.832 368.46 253.39C370.113 254.483 371.66 255.729 373.08 257.11L375.22 259.11C375.901 259.771 376.644 260.364 377.44 260.88C377.583 260.983 377.754 261.039 377.93 261.04C377.93 261.04 378.08 260.95 378.15 260.9L378.37 260.68C378.491 260.511 378.577 260.32 378.621 260.117C378.666 259.914 378.669 259.704 378.63 259.5C378.44 258.584 378.159 257.69 377.79 256.83C376.475 253.3 375.452 249.668 374.73 245.97C374.375 244.155 374.197 242.31 374.2 240.46C374.121 238.591 374.632 236.743 375.66 235.18C376.23 234.421 377.041 233.878 377.96 233.64C378.858 233.43 379.792 233.43 380.69 233.64C382.408 234.047 384.052 234.722 385.56 235.64C387.041 236.52 388.471 237.485 389.84 238.53L391.84 240.05C392.138 240.291 392.477 240.478 392.84 240.6C393.001 240.647 393.173 240.644 393.332 240.59C393.491 240.537 393.63 240.435 393.73 240.3C393.927 240.002 394.041 239.657 394.06 239.3C394.07 238.903 394.026 238.506 393.93 238.12C393.78 237.31 393.64 236.51 393.49 235.71C393.19 234.11 392.9 232.52 392.61 230.96C392.04 227.82 391.47 224.76 390.92 221.77C390.37 218.78 389.6 215.88 389.77 212.93C389.799 211.468 390.206 210.039 390.95 208.78C391.335 208.171 391.846 207.651 392.448 207.255C393.049 206.858 393.728 206.594 394.44 206.48C395.148 206.422 395.859 206.564 396.49 206.89C397.104 207.188 397.678 207.561 398.2 208C399.189 208.855 400.124 209.77 401 210.74C401.427 211.207 401.867 211.657 402.32 212.09C402.727 212.521 403.247 212.83 403.82 212.98C404.103 213.012 404.389 212.983 404.66 212.895C404.931 212.807 405.18 212.662 405.39 212.47C405.828 212.092 406.194 211.638 406.47 211.13C408.072 205.152 409.981 199.261 412.19 193.48C414.09 188.43 415.73 184.08 417.82 180.94C418.714 179.538 419.812 178.277 421.08 177.2C422.013 176.427 423.111 175.88 424.29 175.6C425.013 175.429 425.767 175.429 426.49 175.6C426.782 175.635 427.066 175.72 427.33 175.85Z" fill="#263238"/>
<path d="M422.08 189.45C422.063 189.564 422.029 189.676 421.98 189.78L421.64 190.72C421.31 191.57 420.85 192.78 420.27 194.31C419.05 197.46 417.32 201.97 415.18 207.52L398.57 251.16C392.11 268.16 386.19 283.63 381.81 294.75C379.63 300.31 377.81 304.8 376.57 307.9C375.95 309.42 375.46 310.61 375.11 311.45C374.94 311.84 374.82 312.14 374.72 312.38L374.57 312.68C374.588 312.569 374.622 312.462 374.67 312.36C374.75 312.12 374.87 311.81 375.01 311.42C375.34 310.56 375.8 309.36 376.38 307.82C377.6 304.67 379.33 300.17 381.47 294.62L398.08 251C404.54 233.95 410.45 218.54 414.84 207.42C417.02 201.86 418.84 197.36 420.08 194.27C420.7 192.75 421.19 191.55 421.54 190.71C421.71 190.33 421.83 190.02 421.93 189.79L422.08 189.45Z" fill="#263238"/>
<path d="M422.62 224C421.83 224.566 420.994 225.064 420.12 225.49L414 228.89C411.6 230.22 409.42 231.41 407.81 232.22C406.964 232.7 406.069 233.089 405.14 233.38C405.937 232.824 406.772 232.326 407.64 231.89L413.74 228.44C416.14 227.11 418.33 225.95 419.95 225.16C420.801 224.689 421.695 224.301 422.62 224Z" fill="#263238"/>
<path d="M404.33 232.74C404.2 232.8 401.82 228.26 399.02 222.6C396.22 216.94 394.02 212.3 394.17 212.23C394.32 212.16 396.68 216.71 399.49 222.37C402.3 228.03 404.46 232.67 404.33 232.74Z" fill="#263238"/>
<path d="M395.59 259.37C394.791 258.78 394.054 258.11 393.39 257.37C392.09 256.07 390.39 254.22 388.54 252.08C386.69 249.94 385.19 247.92 384.13 246.42C383.507 245.646 382.967 244.808 382.52 243.92C383.207 244.634 383.842 245.396 384.42 246.2C385.56 247.64 387.13 249.61 388.94 251.74C390.75 253.87 392.43 255.74 393.65 257.11C394.353 257.814 395.001 258.569 395.59 259.37Z" fill="#263238"/>
<path d="M413.88 255.07C413.026 255.412 412.142 255.673 411.24 255.85C409.6 256.26 407.32 256.79 404.8 257.35C402.28 257.91 399.98 258.35 398.32 258.71C397.429 258.935 396.518 259.072 395.6 259.12C396.454 258.782 397.338 258.524 398.24 258.35C399.88 257.94 402.16 257.35 404.69 256.84C407.22 256.33 409.5 255.84 411.16 255.49C412.052 255.267 412.962 255.126 413.88 255.07Z" fill="#263238"/>
<path d="M409.15 279.57C408.04 279.955 406.904 280.259 405.75 280.48C403.63 280.97 400.75 281.62 397.47 282.3C394.19 282.98 391.28 283.58 389.15 283.98C388.009 284.253 386.849 284.437 385.68 284.53C386.789 284.143 387.926 283.838 389.08 283.62C391.19 283.13 394.08 282.48 397.36 281.8C400.64 281.12 403.54 280.52 405.67 280.12C406.814 279.847 407.978 279.664 409.15 279.57Z" fill="#263238"/>
<path d="M386.2 284.25C385.922 284.057 385.669 283.829 385.45 283.57C384.99 283.11 384.35 282.43 383.56 281.57C381.99 279.85 379.88 277.42 377.66 274.65C375.44 271.88 373.53 269.28 372.2 267.37C371.53 266.42 371.01 265.64 370.66 265.09C370.452 264.819 370.283 264.519 370.16 264.2C370.411 264.429 370.632 264.688 370.82 264.97L372.5 267.16C373.9 269.01 375.85 271.56 378.07 274.32C380.29 277.08 382.34 279.55 383.84 281.32C384.69 282.244 385.479 283.223 386.2 284.25Z" fill="#263238"/>
<path d="M376.2 351.24C358.84 337.24 356.32 313.31 358.5 292.1C358.87 288.56 358.73 284.79 360.63 281.79C362.53 278.79 366.63 276.94 369.7 278.65C372.25 280.07 373.18 283.22 374.48 285.85C376.22 289.366 378.917 292.319 382.26 294.37C384.44 295.7 387.19 296.61 389.5 295.53C392.68 294.05 393.33 289.85 393.55 286.32L394.78 266.58C395 263.04 395.24 259.44 396.57 256.17C397.9 252.9 400.57 249.95 403.96 249.23C407.35 248.51 411.4 250.75 411.87 254.23C411.903 255.7 411.836 257.17 411.67 258.63C411.67 260.1 412.24 261.77 413.6 262.27C414.96 262.77 416.46 261.88 417.6 260.92C421.49 257.61 424.27 253.19 426.9 248.78C429.53 244.37 432.08 239.85 435.66 236.19C439.24 232.53 444.01 229.76 449.09 229.82C454.17 229.88 459.33 233.37 460.27 238.42C461.21 243.47 457.96 248.34 454.52 252.15C449.413 257.815 443.511 262.709 437 266.68C435.729 267.254 434.677 268.222 434 269.44C433.07 271.74 435.14 274.23 437.41 275.17C439.98 276.22 442.86 276.17 445.59 276.66C448.32 277.15 451.22 278.59 452.08 281.26C453.28 284.97 450 288.54 446.86 290.82C440.602 295.369 433.611 298.812 426.19 301C423.52 301.77 420.73 302.41 418.51 304.09C416.29 305.77 414.81 308.86 415.91 311.43C417.01 314 420.2 315.03 422.91 314.71C425.62 314.39 428.2 313.08 430.86 312.28C435.86 310.78 442.08 311.55 444.86 315.95C446.71 318.85 446.63 322.7 445.37 325.95C443.965 329.106 441.942 331.949 439.42 334.31C431.1 343.019 420.616 349.362 409.04 352.69C397.52 355.82 387.04 356.16 376.12 351.3" fill="#A3333D"/>
<g opacity="0.1">
<path d="M376.2 351.24C358.84 337.24 356.32 313.31 358.5 292.1C358.87 288.56 358.73 284.79 360.63 281.79C362.53 278.79 366.63 276.94 369.7 278.65C372.25 280.07 373.18 283.22 374.48 285.85C376.22 289.366 378.917 292.319 382.26 294.37C384.44 295.7 387.19 296.61 389.5 295.53C392.68 294.05 393.33 289.85 393.55 286.32L394.78 266.58C395 263.04 395.24 259.44 396.57 256.17C397.9 252.9 400.57 249.95 403.96 249.23C407.35 248.51 411.4 250.75 411.87 254.23C411.903 255.7 411.836 257.17 411.67 258.63C411.67 260.1 412.24 261.77 413.6 262.27C414.96 262.77 416.46 261.88 417.6 260.92C421.49 257.61 424.27 253.19 426.9 248.78C429.53 244.37 432.08 239.85 435.66 236.19C439.24 232.53 444.01 229.76 449.09 229.82C454.17 229.88 459.33 233.37 460.27 238.42C461.21 243.47 457.96 248.34 454.52 252.15C449.413 257.815 443.511 262.709 437 266.68C435.729 267.254 434.677 268.222 434 269.44C433.07 271.74 435.14 274.23 437.41 275.17C439.98 276.22 442.86 276.17 445.59 276.66C448.32 277.15 451.22 278.59 452.08 281.26C453.28 284.97 450 288.54 446.86 290.82C440.602 295.369 433.611 298.812 426.19 301C423.52 301.77 420.73 302.41 418.51 304.09C416.29 305.77 414.81 308.86 415.91 311.43C417.01 314 420.2 315.03 422.91 314.71C425.62 314.39 428.2 313.08 430.86 312.28C435.86 310.78 442.08 311.55 444.86 315.95C446.71 318.85 446.63 322.7 445.37 325.95C443.965 329.106 441.942 331.949 439.42 334.31C431.1 343.019 420.616 349.362 409.04 352.69C397.52 355.82 387.04 356.16 376.12 351.3" fill="black"/>
</g>
<path d="M374.84 367C376.506 357.211 379.105 347.604 382.6 338.31C386.926 326.972 391.897 315.89 397.49 305.12L401.84 296.62C403.28 293.83 404.7 291.07 406.26 288.45C409.263 283.435 412.538 278.588 416.07 273.93C419.42 269.46 422.75 265.34 425.9 261.51C429.05 257.68 432.07 254.18 434.95 251.1C439.473 246.218 444.375 241.7 449.61 237.59C451.46 236.14 452.93 235.06 453.94 234.34L455.09 233.53C455.217 233.434 455.35 233.347 455.49 233.27C455.385 233.39 455.264 233.494 455.13 233.58L454.02 234.45C453.02 235.2 451.59 236.31 449.77 237.8C444.609 241.971 439.769 246.524 435.29 251.42C432.44 254.51 429.45 258.03 426.29 261.86C423.13 265.69 419.84 269.86 416.52 274.3C413.007 278.942 409.755 283.776 406.78 288.78C405.23 291.39 403.78 294.13 402.39 296.92L398.04 305.42C392.462 316.169 387.484 327.219 383.13 338.52C379.624 347.774 376.989 357.336 375.26 367.08" fill="#263238"/>
<path d="M406.45 288.42C406.309 287.921 406.225 287.408 406.2 286.89C406.09 285.89 405.96 284.47 405.83 282.69C405.58 279.15 405.39 274.23 405.2 268.82C405.01 263.41 404.75 258.5 404.44 254.96C404.29 253.2 404.16 251.77 404.05 250.78C403.96 250.269 403.93 249.748 403.96 249.23C404.123 249.721 404.237 250.227 404.3 250.74C404.48 251.74 404.69 253.15 404.9 254.92C405.33 258.45 405.66 263.36 405.9 268.79C406.14 274.22 406.23 278.97 406.34 282.67C406.41 284.34 406.46 285.74 406.51 286.87C406.54 287.387 406.52 287.906 406.45 288.42Z" fill="#263238"/>
<path d="M452.41 283.05C451.805 283.145 451.192 283.178 450.58 283.15C449.41 283.15 447.72 283.15 445.58 283.29C441.4 283.46 435.58 283.88 429.27 284.64C422.96 285.4 417.2 286.33 413.08 287.13C411.02 287.51 409.36 287.87 408.21 288.13C407.62 288.286 407.018 288.39 406.41 288.44C406.973 288.203 407.555 288.015 408.15 287.88C409.28 287.56 410.93 287.14 412.99 286.69C417.09 285.78 422.82 284.77 429.19 284C434.627 283.337 440.094 282.953 445.57 282.85C447.67 282.85 449.37 282.85 450.57 282.91C451.186 282.902 451.802 282.949 452.41 283.05Z" fill="#263238"/>
<path d="M383.22 337.49C383.101 337.315 383.01 337.123 382.95 336.92L382.28 335.22C381.71 333.75 380.94 331.59 380.03 328.92C378.2 323.57 375.9 316.1 373.47 307.83C371.04 299.56 368.82 292.07 367.1 286.69C366.26 284.07 365.56 281.92 365.05 280.32L364.5 278.59C364.422 278.391 364.372 278.183 364.35 277.97C364.464 278.148 364.555 278.34 364.62 278.54C364.8 279 365.02 279.54 365.28 280.24C365.85 281.71 366.62 283.87 367.54 286.54C369.37 291.89 371.67 299.36 374.09 307.64C376.51 315.92 378.75 323.39 380.47 328.77C381.31 331.39 382 333.54 382.47 335.14L383.02 336.87C383.115 337.067 383.183 337.275 383.22 337.49Z" fill="#263238"/>
<path d="M444.86 322.19C444.666 322.294 444.457 322.365 444.24 322.4L442.45 322.87L435.85 324.52C430.27 325.91 422.6 327.92 414.12 330.16C405.64 332.4 397.94 334.34 392.33 335.62C389.53 336.26 387.26 336.76 385.68 337.07L383.86 337.42C383.651 337.473 383.436 337.496 383.22 337.49C383.414 337.398 383.619 337.331 383.83 337.29L385.63 336.82L392.23 335.17C397.8 333.78 405.48 331.76 413.96 329.52C422.44 327.28 430.14 325.34 435.74 324.06C438.54 323.42 440.82 322.93 442.39 322.62L444.21 322.27C444.423 322.219 444.641 322.192 444.86 322.19Z" fill="#263238"/>
<path d="M380.24 75.1899H137.73V407.49H380.24V75.1899Z" fill="#455A64"/>
<path d="M370.65 387.73H325.74H157.93V88.6196H370.65V350.52V387.73Z" fill="#E0E0E0"/>
<path d="M367.29 382.18H322.78H156.48V84.6699H367.29V345.17V382.18Z" fill="#EBEBEB"/>
<path d="M344.64 359.03L320.36 378.8H152.55V85.4199H365.27V342.3L344.64 359.03Z" fill="#FAFAFA"/>
<path d="M344.64 359C344.64 359 345.07 358.63 345.94 357.92L349.83 354.74L365.22 342.21V342.27C365.22 300.07 365.14 206.27 365.07 85.3899L365.3 85.6299H154.43H152.58L152.84 85.3699C152.84 195.67 152.84 297.42 152.78 378.75L152.58 378.54L320.39 378.66H320.33L338.57 363.87L343.14 360.18C344.14 359.36 344.67 358.96 344.67 358.96L343.17 360.21L338.6 364L320.42 378.86L152.55 379H152.34V378.79C152.34 297.46 152.34 195.71 152.29 85.4099V85.1499H154.4H365.27H365.51V85.3799C365.44 206.3 365.38 300.06 365.36 342.26L349.91 354.73L346 358L344.64 359Z" fill="#263238"/>
<path d="M230.21 64.9199H288.36C292.113 64.9199 295.712 66.4107 298.366 69.0644C301.019 71.718 302.51 75.3171 302.51 79.0699V94.7599H215.45V79.6699C215.453 75.7571 217.009 72.0054 219.777 69.2395C222.544 66.4736 226.297 64.9199 230.21 64.9199Z" fill="#A3333D"/>
<path d="M236.78 64.9198L233.6 48.8198H283.73L280.94 64.9198H236.78Z" fill="#A3333D"/>
<path d="M210.63 168H174.8V132.16H210.63V168ZM175.8 167H209.63V133.16H175.8V167Z" fill="#A3333D"/>
<path d="M337.28 140.82C337.28 140.96 312.33 141.08 281.57 141.08C250.81 141.08 225.85 140.96 225.85 140.82C225.85 140.68 250.79 140.56 281.57 140.56C312.35 140.56 337.28 140.67 337.28 140.82Z" fill="#263238"/>
<path d="M337.28 148.26C337.28 148.41 312.33 148.52 281.57 148.52C250.81 148.52 225.85 148.41 225.85 148.26C225.85 148.11 250.79 148 281.57 148C312.35 148 337.28 148.12 337.28 148.26Z" fill="#263238"/>
<path d="M337.28 155.71C337.28 155.85 312.33 155.97 281.57 155.97C250.81 155.97 225.85 155.85 225.85 155.71C225.85 155.57 250.79 155.45 281.57 155.45C312.35 155.45 337.28 155.57 337.28 155.71Z" fill="#263238"/>
<path d="M337.28 163.16C337.28 163.3 312.33 163.42 281.57 163.42C250.81 163.42 225.85 163.3 225.85 163.16C225.85 163.02 250.79 162.9 281.57 162.9C312.35 162.9 337.28 163 337.28 163.16Z" fill="#263238"/>
<path d="M210.63 223.23H174.8V187.39H210.63V223.23ZM175.8 222.23H209.63V188.39H175.8V222.23Z" fill="#A3333D"/>
<path d="M181.92 206.05L186.68 200.94L194.61 207.28L212.76 189.66L217.11 194.79L194.26 217.33L181.92 206.05Z" fill="#A3333D"/>
<path d="M337.28 196.05C337.28 196.19 312.33 196.31 281.57 196.31C250.81 196.31 225.85 196.19 225.85 196.05C225.85 195.91 250.79 195.79 281.57 195.79C312.35 195.79 337.28 195.91 337.28 196.05Z" fill="#263238"/>
<path d="M337.28 203.5C337.28 203.64 312.33 203.76 281.57 203.76C250.81 203.76 225.85 203.64 225.85 203.5C225.85 203.36 250.79 203.24 281.57 203.24C312.35 203.24 337.28 203.35 337.28 203.5Z" fill="#263238"/>
<path d="M337.28 210.94C337.28 211.09 312.33 211.2 281.57 211.2C250.81 211.2 225.85 211.09 225.85 210.94C225.85 210.79 250.79 210.68 281.57 210.68C312.35 210.68 337.28 210.8 337.28 210.94Z" fill="#263238"/>
<path d="M337.28 218.39C337.28 218.53 312.33 218.65 281.57 218.65C250.81 218.65 225.85 218.53 225.85 218.39C225.85 218.25 250.79 218.13 281.57 218.13C312.35 218.13 337.28 218.25 337.28 218.39Z" fill="#263238"/>
<path d="M210.63 276.68H174.8V240.84H210.63V276.68ZM175.8 275.68H209.63V241.84H175.8V275.68Z" fill="#A3333D"/>
<path d="M181.92 259.5L186.68 254.39L194.61 260.73L212.76 243.11L217.11 248.24L194.26 270.78L181.92 259.5Z" fill="#A3333D"/>
<path d="M337.28 249.5C337.28 249.64 312.33 249.76 281.57 249.76C250.81 249.76 225.85 249.64 225.85 249.5C225.85 249.36 250.79 249.24 281.57 249.24C312.35 249.24 337.28 249.35 337.28 249.5Z" fill="#263238"/>
<path d="M337.28 256.94C337.28 257.09 312.33 257.2 281.57 257.2C250.81 257.2 225.85 257.09 225.85 256.94C225.85 256.79 250.79 256.68 281.57 256.68C312.35 256.68 337.28 256.8 337.28 256.94Z" fill="#263238"/>
<path d="M337.28 264.39C337.28 264.54 312.33 264.65 281.57 264.65C250.81 264.65 225.85 264.54 225.85 264.39C225.85 264.24 250.79 264.13 281.57 264.13C312.35 264.13 337.28 264.25 337.28 264.39Z" fill="#263238"/>
<path d="M337.28 271.84C337.28 271.98 312.33 272.1 281.57 272.1C250.81 272.1 225.85 271.98 225.85 271.84C225.85 271.7 250.79 271.58 281.57 271.58C312.35 271.58 337.28 271.7 337.28 271.84Z" fill="#263238"/>
<path d="M210.63 328.29H174.8V292.45H210.63V328.29ZM175.8 327.29H209.63V293.45H175.8V327.29Z" fill="#A3333D"/>
<path d="M181.92 311.11L186.68 306L194.61 312.34L212.76 294.72L217.11 299.84L194.26 322.38L181.92 311.11Z" fill="#A3333D"/>
<path d="M337.28 301.1C337.28 301.25 312.33 301.36 281.57 301.36C250.81 301.36 225.85 301.25 225.85 301.1C225.85 300.95 250.79 300.84 281.57 300.84C312.35 300.84 337.28 301 337.28 301.1Z" fill="#263238"/>
<path d="M337.28 308.55C337.28 308.69 312.33 308.81 281.57 308.81C250.81 308.81 225.85 308.69 225.85 308.55C225.85 308.41 250.79 308.29 281.57 308.29C312.35 308.29 337.28 308.41 337.28 308.55Z" fill="#263238"/>
<path d="M337.28 316C337.28 316.14 312.33 316.26 281.57 316.26C250.81 316.26 225.85 316.14 225.85 316C225.85 315.86 250.79 315.74 281.57 315.74C312.35 315.74 337.28 315.85 337.28 316Z" fill="#263238"/>
<path d="M337.28 323.44C337.28 323.59 312.33 323.7 281.57 323.7C250.81 323.7 225.85 323.59 225.85 323.44C225.85 323.29 250.79 323.18 281.57 323.18C312.35 323.18 337.28 323.3 337.28 323.44Z" fill="#263238"/>
<path d="M327.03 330.23L303.71 378.53H320.36L327.03 330.23Z" fill="#E0E0E0"/>
<path d="M320.36 378.8L327.03 330.5L365.27 342.3L320.36 378.8Z" fill="#FAFAFA"/>
<path d="M320.36 378.8L333.22 368.21L365.11 342.1L365.2 342.54L350.43 338L327 330.73L327.31 330.53C325.31 344.53 323.6 356.58 322.39 365.12C321.18 373.43 320.56 377.72 320.39 378.8C320.386 378.726 320.386 378.653 320.39 378.58L320.48 377.92C320.56 377.29 320.67 376.41 320.82 375.29C321.13 372.94 321.57 369.57 322.13 365.29C323.29 356.68 324.91 344.57 326.8 330.42V330.14L327.07 330.22L350.56 337.46L365.32 342.02L365.78 342.16L365.41 342.46C352.5 352.87 341.21 361.97 333.13 368.46L323.7 376.03L321.18 378.03L320.54 378.54L320.36 378.8Z" fill="#263238"/>
<g opacity="0.3">
<path d="M280.26 48.8198L277.5 64.9198H280.94L283.73 48.8198H279.34" fill="black"/>
</g>
<path d="M133.43 218.62C134.636 218.711 135.847 218.558 136.992 218.171C138.138 217.783 139.193 217.168 140.096 216.364C140.998 215.559 141.729 214.581 142.246 213.488C142.762 212.394 143.052 211.208 143.1 210C143.29 205.1 143.46 200.15 143.46 200.15C143.46 200.15 150.88 199.46 151.46 192.15C152.04 184.84 151.75 167.86 151.75 167.86C147.682 165.808 143.141 164.88 138.594 165.172C134.048 165.464 129.662 166.965 125.89 169.52L126.34 195.36V209.27C126.35 213.89 128.78 218.27 133.43 218.62Z" fill="#FFBE9D"/>
<path d="M144.1 183.15C143.558 182.371 142.742 181.825 141.815 181.621C140.888 181.417 139.919 181.57 139.1 182.05C138.269 182.627 137.67 183.481 137.41 184.459C137.15 185.437 137.245 186.476 137.68 187.39C138.058 188.068 138.574 188.66 139.194 189.129C139.814 189.597 140.524 189.931 141.28 190.11C141.95 190.256 142.544 190.641 142.951 191.193C143.358 191.745 143.549 192.427 143.49 193.11C143.182 195.04 142.28 196.826 140.91 198.22C138.645 200.525 135.63 201.944 132.41 202.22C129.28 202.59 125.7 201.94 123.88 199.37C122.55 197.5 122.46 195.05 122.41 192.76C122.297 187.347 122.183 181.933 122.07 176.52C121.952 174.569 122.076 172.611 122.44 170.69C122.823 168.753 123.923 167.031 125.52 165.87C127.31 164.69 129.57 164.59 131.6 163.94C134.15 163.11 136.31 161.43 138.69 160.21C141.07 158.99 143.98 158.26 146.37 159.46C148.09 160.32 149.24 162.03 150.9 162.98C153.28 164.33 156.51 163.98 157.66 167.52C158.065 168.73 158.065 170.04 157.66 171.25C156.05 176 150.17 177.92 145.93 175.87C145.85 176.67 146.64 178.46 145.79 181C145.52 181.82 145.43 183.05 144.16 183.08" fill="#263238"/>
<path d="M123.83 168C124.995 165.677 125.791 163.188 126.19 160.62C126.378 159.334 126.268 158.022 125.867 156.785C125.467 155.549 124.787 154.421 123.88 153.49C122.541 152.328 120.811 151.716 119.04 151.78C117.357 151.876 115.745 152.489 114.424 153.536C113.102 154.583 112.137 156.013 111.66 157.63C111.248 159.26 111.312 160.974 111.843 162.569C112.375 164.164 113.352 165.573 114.66 166.63C115.997 167.657 117.581 168.312 119.253 168.53C120.925 168.748 122.624 168.52 124.18 167.87" fill="#263238"/>
<path d="M125.27 165.35C125.216 166.248 124.829 167.093 124.186 167.722C123.543 168.35 122.689 168.717 121.79 168.75C121.79 168.6 122.87 168.31 123.79 167.35C124.71 166.39 125.13 165.31 125.27 165.35Z" fill="#A3333D"/>
<path d="M122.86 167.15C122.287 167.751 121.609 168.242 120.86 168.6C120.059 169.057 119.161 169.314 118.24 169.35C117.655 169.382 117.071 169.273 116.537 169.033C116.003 168.793 115.534 168.428 115.17 167.97C114.847 167.488 114.632 166.942 114.539 166.369C114.446 165.796 114.477 165.21 114.63 164.65C114.862 163.762 115.281 162.933 115.86 162.22C116.339 161.544 116.927 160.953 117.6 160.47C117.155 161.161 116.674 161.829 116.16 162.47C115.658 163.167 115.298 163.955 115.1 164.79C114.975 165.283 114.954 165.796 115.039 166.297C115.123 166.798 115.311 167.276 115.59 167.7C115.909 168.091 116.315 168.402 116.775 168.61C117.234 168.818 117.736 168.917 118.24 168.9C119.094 168.886 119.935 168.681 120.7 168.3C122 167.63 122.81 167.07 122.86 167.15Z" fill="#263238"/>
<path d="M110.38 175.44C110.531 175.694 110.648 175.966 110.73 176.25C110.989 176.999 111.356 177.707 111.82 178.35C112.128 178.815 112.56 179.185 113.067 179.418C113.574 179.651 114.136 179.739 114.69 179.67C115.353 179.483 115.956 179.127 116.441 178.639C116.927 178.15 117.278 177.544 117.46 176.88C117.819 175.481 118.07 174.057 118.21 172.62C118.351 171.387 118.836 170.22 119.61 169.25C120.164 168.612 120.919 168.182 121.75 168.03C122.051 167.956 122.367 167.984 122.65 168.11C122.65 168.11 122.32 168.11 121.79 168.23C121.039 168.437 120.374 168.879 119.89 169.49C119.209 170.43 118.791 171.534 118.68 172.69C118.565 174.162 118.32 175.621 117.95 177.05C117.744 177.8 117.341 178.482 116.784 179.025C116.227 179.568 115.535 179.953 114.78 180.14C114.089 180.25 113.382 180.116 112.78 179.76C112.281 179.457 111.851 179.051 111.52 178.57C111.062 177.882 110.723 177.121 110.52 176.32C110.417 176.038 110.37 175.739 110.38 175.44Z" fill="#263238"/>
<path d="M106.77 237.13C106.77 237.13 103.02 264.55 106.77 268.03C110.52 271.51 114.11 270.35 114.11 270.35L121.24 264.35L122.64 237.09L106.77 237.13Z" fill="#FFBE9D"/>
<path d="M184.22 160.16L188.98 155.05L196.91 161.39L215.06 143.77L219.41 148.9L196.56 171.44L184.22 160.16Z" fill="#A3333D"/>
<path d="M206.58 161.55L199.68 165.98C199.37 163.25 197.29 160.55 197.39 161.92C197.49 163.29 197.39 170.4 197.39 170.4L185.1 196.29C183.43 200.39 180.04 202.97 177.51 203.58L166 207L170.49 222.19L186.49 216.89C188.532 216.213 190.387 215.067 191.907 213.544C193.426 212.021 194.568 210.164 195.24 208.12L206.24 174.6C206.97 172.441 207.558 170.236 208 168C208.48 165.19 206.58 161.55 206.58 161.55Z" fill="#FFBE9D"/>
<path d="M150.05 444.72L149.87 437.05L135.49 437.28L135.62 448.51L136.52 448.56C140.52 448.71 156.73 449.07 159.37 448.23C162.31 447.28 150.05 444.72 150.05 444.72Z" fill="#A3333D"/>
<g opacity="0.5">
<path d="M140.84 448.32C140.597 447.123 139.925 446.056 138.95 445.32C137.989 444.573 136.782 444.216 135.57 444.32L135.63 448.32H140.84Z" fill="white"/>
</g>
<g opacity="0.4">
<path d="M156 446.19C156 446.19 160.3 447.35 159.78 448.07C159.26 448.79 142.84 449.07 135.58 448.51V448.19L154.74 448.06C154.74 448.06 155.21 446.24 156 446.19Z" fill="white"/>
</g>
<path d="M135.41 448.18H135.66H136.37L138.99 448.25C141.2 448.3 144.25 448.32 147.62 448.25C150.99 448.18 154.05 448.09 156.25 447.98L158.87 447.83L159.58 447.78H159.82H159.57H158.86L156.25 447.88C154.04 447.95 150.99 448.05 147.62 448.1C144.25 448.15 141.2 448.1 138.99 448.1H136.38H135.38L135.41 448.18Z" fill="#263238"/>
<path d="M154.8 448.28C154.904 447.846 155.062 447.426 155.27 447.03C155.522 446.666 155.813 446.33 156.14 446.03C155.714 446.23 155.359 446.554 155.12 446.959C154.881 447.364 154.769 447.831 154.8 448.3V448.28Z" fill="#263238"/>
<path d="M150.52 446.19C150.52 446.19 150.76 445.97 150.97 445.64C151.18 445.31 151.3 445.01 151.26 444.99C151.22 444.97 151.02 445.21 150.82 445.54C150.62 445.87 150.48 446.17 150.52 446.19Z" fill="#263238"/>
<path d="M149.35 445.6C149.35 445.6 149.6 445.48 149.85 445.25C150.1 445.02 150.26 444.81 150.23 444.78C150.2 444.75 149.97 444.9 149.73 445.12C149.49 445.34 149.31 445.56 149.35 445.6Z" fill="#263238"/>
<path d="M148.59 444.25C148.83 444.337 149.087 444.365 149.34 444.33C149.593 444.36 149.85 444.329 150.09 444.24C149.848 444.163 149.593 444.136 149.34 444.16C149.086 444.132 148.83 444.163 148.59 444.25Z" fill="#263238"/>
<path d="M148.32 443.3C148.572 443.455 148.864 443.534 149.16 443.53C149.456 443.573 149.759 443.527 150.03 443.4C149.744 443.372 149.456 443.372 149.17 443.4C148.89 443.34 148.606 443.307 148.32 443.3Z" fill="#263238"/>
<path d="M151 444.93C151.304 444.986 151.616 444.986 151.92 444.93C152.26 444.885 152.595 444.808 152.92 444.7C153.114 444.639 153.302 444.559 153.48 444.46C153.536 444.43 153.586 444.389 153.625 444.339C153.665 444.289 153.694 444.232 153.71 444.17C153.722 444.1 153.714 444.029 153.688 443.964C153.661 443.898 153.617 443.842 153.56 443.8C153.204 443.635 152.802 443.598 152.421 443.694C152.04 443.791 151.705 444.015 151.47 444.33C151.335 444.517 151.237 444.727 151.18 444.95C151.162 445.032 151.162 445.118 151.18 445.2C151.276 444.917 151.414 444.651 151.59 444.41C151.796 444.165 152.066 443.981 152.37 443.88C152.734 443.754 153.132 443.775 153.48 443.94C153.62 444.05 153.57 444.22 153.41 444.32C153.244 444.413 153.07 444.49 152.89 444.55C152.564 444.663 152.23 444.75 151.89 444.81C151.34 444.9 151 444.9 151 444.93Z" fill="#263238"/>
<path d="M151.23 445C151.342 444.807 151.378 444.578 151.33 444.36C151.292 444.119 151.2 443.89 151.06 443.69C150.981 443.555 150.869 443.441 150.734 443.361C150.599 443.281 150.447 443.236 150.29 443.23C150.243 443.239 150.199 443.258 150.159 443.285C150.12 443.312 150.086 443.346 150.06 443.386C150.034 443.426 150.016 443.471 150.007 443.518C149.999 443.565 150 443.613 150.01 443.66C150.032 443.807 150.087 443.947 150.17 444.07C150.291 444.275 150.443 444.46 150.62 444.62C150.763 444.786 150.945 444.913 151.15 444.99C151.15 444.99 150.97 444.83 150.71 444.54C150.56 444.369 150.426 444.185 150.31 443.99C150.18 443.8 150.09 443.45 150.31 443.4C150.53 443.35 150.78 443.6 150.92 443.78C151.054 443.958 151.149 444.163 151.2 444.38C151.227 444.585 151.237 444.793 151.23 445Z" fill="#263238"/>
<path d="M135.65 444.24C135.65 444.24 136.06 444.24 136.71 444.24C137.558 444.32 138.366 444.639 139.04 445.159C139.714 445.68 140.227 446.38 140.52 447.18C140.75 447.79 140.78 448.18 140.81 448.18C140.83 448.084 140.83 447.986 140.81 447.89C140.777 447.629 140.72 447.371 140.64 447.12C140.363 446.285 139.841 445.552 139.141 445.017C138.442 444.482 137.599 444.169 136.72 444.12C136.457 444.091 136.192 444.091 135.93 444.12C135.83 444.141 135.734 444.182 135.65 444.24Z" fill="#263238"/>
<path d="M137.05 438.24C136.961 439.221 136.934 440.206 136.97 441.19C136.938 442.191 136.968 443.193 137.06 444.19C137.151 443.193 137.178 442.191 137.14 441.19C137.164 440.206 137.134 439.221 137.05 438.24Z" fill="#263238"/>
<path d="M142.62 446.89C143.314 447.033 144.022 447.09 144.73 447.06C145.436 447.09 146.142 447.023 146.83 446.86C146.83 446.81 145.83 446.86 144.73 446.86C143.63 446.86 142.63 446.84 142.62 446.89Z" fill="#263238"/>
<path d="M139.81 446.92C139.81 446.92 139.89 447.12 139.98 447.34C140.07 447.56 140.14 447.74 140.19 447.74C140.24 447.74 140.26 447.51 140.14 447.26C140.02 447.01 139.84 446.89 139.81 446.92Z" fill="#263238"/>
<path d="M138.72 445.62C138.72 445.62 138.78 445.8 138.94 445.95C139.1 446.1 139.24 446.19 139.27 446.16C139.3 446.13 139.21 445.97 139.06 445.83C138.91 445.69 138.76 445.58 138.72 445.62Z" fill="#263238"/>
<path d="M137.19 445C137.19 445 137.4 445 137.61 445.11C137.82 445.22 137.97 445.29 138.01 445.26C138.05 445.23 137.93 445.03 137.66 444.95C137.39 444.87 137.18 445 137.19 445Z" fill="#263238"/>
<path d="M136.11 444.77C136.11 444.77 136.17 444.89 136.29 444.93C136.41 444.97 136.52 444.98 136.54 444.93C136.56 444.88 136.47 444.81 136.35 444.77C136.23 444.73 136.12 444.72 136.11 444.77Z" fill="#263238"/>
<path d="M99.2899 442.27L104.17 436.34L93.1099 427.13L85.8899 435.73L86.5299 436.35C89.4399 439.06 101.53 449.92 104.07 451C106.92 452.21 99.2899 442.27 99.2899 442.27Z" fill="#A3333D"/>
<g opacity="0.5">
<path d="M90 439C90.6118 437.931 90.8076 436.674 90.55 435.47C90.3048 434.28 89.619 433.226 88.63 432.52L86 435.59L90 439Z" fill="white"/>
</g>
<g opacity="0.4">
<path d="M102.88 447.29C102.88 447.29 105.38 450.98 104.52 451.18C103.66 451.38 90.9999 440.86 85.8899 435.73L86.1099 435.5L100.72 447.9C100.72 447.9 102.21 446.78 102.88 447.29Z" fill="white"/>
</g>
<path d="M85.9399 435.35L86.1099 435.53L86.6299 436.02L88.5699 437.78C90.2099 439.25 92.5099 441.26 95.0999 443.42C97.6899 445.58 100.1 447.49 101.82 448.85L103.9 450.44L104.47 450.86L104.68 451L104.49 450.83L103.94 450.38L101.94 448.75C100.21 447.37 97.8399 445.45 95.2499 443.29C92.6599 441.13 90.3499 439.14 88.6899 437.69L86.6899 435.97L86.1499 435.5L85.9399 435.35Z" fill="#263238"/>
<path d="M100.57 448.07C100.934 447.805 101.331 447.586 101.75 447.42C102.182 447.31 102.624 447.243 103.07 447.22C102.624 447.056 102.135 447.056 101.69 447.22C101.226 447.358 100.828 447.66 100.57 448.07Z" fill="#263238"/>
<path d="M98.6899 443.69C98.6899 443.74 99.0199 443.69 99.3899 443.56C99.7599 443.43 100.06 443.31 100.04 443.26C100.02 443.21 99.7099 443.26 99.3399 443.39C99.1042 443.442 98.8825 443.545 98.6899 443.69Z" fill="#263238"/>
<path d="M98.1899 442.47C98.1899 442.47 98.4599 442.55 98.7999 442.54C99.1399 442.53 99.3999 442.48 99.3999 442.43C99.3999 442.38 99.1199 442.35 98.7899 442.36C98.5841 442.35 98.3788 442.388 98.1899 442.47Z" fill="#263238"/>
<path d="M98.49 441C98.49 441 98.69 441.28 99.01 441.55C99.1905 441.732 99.4044 441.878 99.64 441.98C99.64 441.98 99.44 441.69 99.12 441.42C98.8 441.15 98.53 440.92 98.49 441Z" fill="#263238"/>
<path d="M98.9099 440.06C99.0188 440.334 99.1848 440.582 99.3968 440.788C99.6089 440.993 99.8622 441.15 100.14 441.25C99.9462 441.04 99.7391 440.843 99.5199 440.66C99.1899 440.34 98.9999 440 98.9099 440.06Z" fill="#263238"/>
<path d="M99.8698 443C100.068 443.239 100.309 443.439 100.58 443.59C100.864 443.773 101.165 443.927 101.48 444.05C101.666 444.134 101.86 444.198 102.06 444.24C102.186 444.261 102.315 444.232 102.42 444.16C102.475 444.117 102.517 444.06 102.54 443.994C102.563 443.928 102.566 443.857 102.55 443.79C102.396 443.424 102.118 443.124 101.766 442.941C101.413 442.758 101.008 442.705 100.62 442.79C100.391 442.835 100.176 442.93 99.9898 443.07C99.9198 443.115 99.8587 443.172 99.8098 443.24C100.066 443.084 100.347 442.972 100.64 442.91C100.957 442.855 101.284 442.893 101.58 443.02C101.936 443.158 102.224 443.431 102.38 443.78C102.38 443.96 102.27 444.06 102.08 444.03C101.895 443.988 101.715 443.931 101.54 443.86C101.232 443.746 100.934 443.605 100.65 443.44C100.16 443.25 99.8898 443 99.8698 443Z" fill="#263238"/>
<path d="M100 443.23C100 443.23 100.26 443.15 100.5 442.81C100.629 442.604 100.711 442.371 100.74 442.13C100.763 441.974 100.749 441.815 100.698 441.665C100.648 441.516 100.563 441.38 100.45 441.27C100.364 441.224 100.263 441.214 100.169 441.242C100.075 441.27 99.9966 441.334 99.95 441.42C99.8739 441.545 99.8261 441.685 99.81 441.83C99.7808 442.066 99.7808 442.304 99.81 442.54C99.81 442.76 99.865 442.977 99.97 443.17C99.97 443.17 99.97 442.92 99.97 442.54C99.9672 442.312 99.9873 442.084 100.03 441.86C100.03 441.63 100.21 441.31 100.42 441.42C100.63 441.53 100.64 441.88 100.64 442.11C100.622 442.331 100.557 442.546 100.45 442.74C100.319 442.919 100.168 443.084 100 443.23Z" fill="#263238"/>
<path d="M88.6899 432.52C88.6899 432.52 89.0299 432.75 89.4799 433.22C90.0656 433.839 90.4703 434.607 90.6499 435.44C90.8156 436.276 90.7464 437.141 90.4499 437.94C90.2199 438.56 89.9699 438.89 89.9999 438.94C90.0751 438.874 90.1393 438.796 90.1899 438.71C90.339 438.495 90.4631 438.263 90.5599 438.02C90.9056 437.206 90.9963 436.307 90.8199 435.44C90.6394 434.575 90.204 433.785 89.5699 433.17C89.381 432.985 89.1732 432.821 88.9499 432.68C88.8743 432.61 88.7861 432.556 88.6899 432.52Z" fill="#263238"/>
<path d="M93.6698 428.87C92.9595 429.559 92.2916 430.29 91.6698 431.06C91.0097 431.793 90.3889 432.561 89.8098 433.36C90.5246 432.679 91.1928 431.951 91.8098 431.18C92.4688 430.442 93.0896 429.671 93.6698 428.87Z" fill="#263238"/>
<path d="M92.25 439.07C92.6774 439.631 93.1747 440.135 93.73 440.57C94.2492 441.052 94.8311 441.463 95.46 441.79C95.46 441.79 94.73 441.19 93.85 440.44C92.97 439.69 92.29 439 92.25 439.07Z" fill="#263238"/>
<path d="M90.09 437.26C90.09 437.26 90.02 437.46 89.96 437.69C89.9 437.92 89.81 438.09 89.85 438.12C89.89 438.15 90.05 438 90.13 437.73C90.21 437.46 90.14 437.25 90.09 437.26Z" fill="#263238"/>
<path d="M90.1199 435.56C90.0699 435.56 90.0499 435.74 90.0699 435.95C90.0899 436.16 90.1399 436.33 90.1899 436.33C90.2399 436.33 90.2599 436.15 90.1899 435.94C90.1199 435.73 90.1699 435.56 90.1199 435.56Z" fill="#263238"/>
<path d="M89.3398 434.12C89.3398 434.17 89.4698 434.29 89.5798 434.48C89.6898 434.67 89.7398 434.86 89.7898 434.86C89.8398 434.86 89.8699 434.63 89.7299 434.39C89.5899 434.15 89.3598 434.08 89.3398 434.12Z" fill="#263238"/>
<path d="M88.6899 433.21C88.6899 433.21 88.6899 433.35 88.6899 433.46C88.6899 433.57 88.8399 433.64 88.8799 433.62C88.9199 433.6 88.8799 433.48 88.8799 433.37C88.8799 433.26 88.7299 433.19 88.6899 433.21Z" fill="#263238"/>
<path d="M129.22 281.59C129.22 281.59 124.43 301.85 125.79 305.86C127.15 309.87 135.92 312.18 135.92 312.18L135.62 367.67L87.0999 427.67L105 442.31C105 442.31 157.54 382.22 162.17 371.31C166.8 360.4 159.17 280.66 159.17 280.66L129.22 281.59Z" fill="#263238"/>
<path d="M154 273.33L156.37 441.85L131.7 442L119.31 304.72C116.69 302.22 113 297.94 113.51 288.39L114.11 277.3L154 273.33Z" fill="#263238"/>
<path d="M128 377.05C128.036 376.961 128.083 376.877 128.14 376.8C128.27 376.62 128.42 376.39 128.61 376.11L130.44 373.52L137.14 364.24V364.37C136.6 358.52 135.95 351.43 135.25 343.78C134.35 333.78 133.63 324.68 133.2 318.09C132.98 314.8 132.84 312.14 132.76 310.3C132.76 309.42 132.7 308.71 132.69 308.17C132.659 307.924 132.659 307.676 132.69 307.43C132.738 307.674 132.768 307.922 132.78 308.17C132.78 308.7 132.88 309.41 132.95 310.29C133.1 312.18 133.3 314.82 133.56 318.07C134.08 324.64 134.86 333.71 135.76 343.73C136.43 351.41 137.11 358.49 137.56 364.37V364.44V364.5L130.71 373.66L128.78 376.19L128.26 376.84C128.05 377 128 377.06 128 377.05Z" fill="#455A64"/>
<path d="M135.56 307.43C133.352 307.313 131.162 306.978 129.02 306.43C126.841 306.061 124.704 305.479 122.64 304.69C124.826 304.97 126.993 305.381 129.13 305.92C131.3 306.3 133.447 306.804 135.56 307.43Z" fill="#455A64"/>
<path d="M152.46 365C150.331 364.117 148.089 363.531 145.8 363.26C143.493 363.167 141.185 363.393 138.94 363.93C139.526 363.56 140.178 363.305 140.86 363.18C142.49 362.755 144.18 362.606 145.86 362.74C147.529 362.874 149.164 363.283 150.7 363.95C151.345 364.192 151.941 364.548 152.46 365Z" fill="#455A64"/>
<path d="M161.17 372.78C161.28 372.87 154.34 382.19 145.66 393.59C136.98 404.99 129.85 414.18 129.74 414.1C129.63 414.02 136.57 404.69 145.25 393.28C153.93 381.87 161.06 372.69 161.17 372.78Z" fill="#455A64"/>
<path d="M157.83 285.84C157.545 286.57 157.064 287.207 156.44 287.68C155.725 288.306 154.889 288.777 153.983 289.064C153.078 289.352 152.123 289.448 151.178 289.349C150.233 289.249 149.319 288.956 148.494 288.486C147.668 288.016 146.948 287.381 146.38 286.62C145.851 286.035 145.503 285.309 145.38 284.53C145.765 285.17 146.185 285.787 146.64 286.38C147.783 287.765 149.424 288.646 151.21 288.833C152.997 289.02 154.785 288.498 156.19 287.38C156.763 286.895 157.31 286.381 157.83 285.84Z" fill="#455A64"/>
<path d="M124.1 199.13C120.035 195.267 117.638 189.971 117.419 184.368C117.201 178.764 119.178 173.297 122.93 169.13" fill="#263238"/>
<path d="M110.23 214.85C110.23 214.85 104.87 220.91 103.76 244.08C103.76 244.08 119.03 246.98 119.31 246.15C119.59 245.32 110.23 214.85 110.23 214.85Z" fill="#A3333D"/>
<g opacity="0.3">
<path d="M110.23 214.85C110.23 214.85 104.87 220.91 103.76 244.08C103.76 244.08 119.03 246.98 119.31 246.15C119.59 245.32 110.23 214.85 110.23 214.85Z" fill="black"/>
</g>
<path d="M112.71 282.34H159.6L158.84 275.01C158.84 275.01 153.48 247.15 153.52 246.78L154.36 245.01C155.456 242.712 156.042 240.204 156.078 237.658C156.114 235.112 155.6 232.589 154.57 230.26L177.57 222.41L171.95 203.47C161.53 205.22 145.78 207.19 145.78 207.19L143.44 207.38C143.44 207.38 127.18 208.23 126.83 208.27C120.03 209.1 112.12 209.62 109.23 216.9C107.68 220.79 109.15 226.63 111.68 232.65L117.68 251.15C120.08 261.32 116.25 260.83 114.14 271.07C113.8 272.61 112.68 280.92 112.71 282.34Z" fill="#A3333D"/>
<g opacity="0.3">
<path d="M112.71 282.34H159.6L158.84 275.01C158.84 275.01 153.48 247.15 153.52 246.78L154.36 245.01C155.456 242.712 156.042 240.204 156.078 237.658C156.114 235.112 155.6 232.589 154.57 230.26L177.57 222.41L171.95 203.47C161.53 205.22 145.78 207.19 145.78 207.19L143.44 207.38C143.44 207.38 127.18 208.23 126.83 208.27C120.03 209.1 112.12 209.62 109.23 216.9C107.68 220.79 109.15 226.63 111.68 232.65L117.68 251.15C120.08 261.32 116.25 260.83 114.14 271.07C113.8 272.61 112.68 280.92 112.71 282.34Z" fill="black"/>
</g>
<path d="M177.31 222.72C176.993 222.899 176.658 223.043 176.31 223.15C175.65 223.39 174.68 223.72 173.48 224.15C171.08 224.96 167.74 226.03 164.06 227.21C160.38 228.39 157.06 229.56 154.76 230.52C153.58 231 152.65 231.42 152 231.7C151.685 231.875 151.349 232.009 151 232.1C151.29 231.869 151.606 231.671 151.94 231.51C152.57 231.18 153.48 230.7 154.64 230.18C157.672 228.859 160.773 227.704 163.93 226.72C167.62 225.54 170.93 224.52 173.4 223.8C174.61 223.44 175.6 223.16 176.28 222.97C176.612 222.844 176.958 222.76 177.31 222.72Z" fill="#263238"/>
<path d="M174.59 212.63C174.59 212.77 160.72 212.89 143.59 212.89C126.46 212.89 112.59 212.77 112.59 212.63C112.59 212.49 126.45 212.37 143.59 212.37C160.73 212.37 174.59 212.49 174.59 212.63Z" fill="#FAFAFA"/>
<path d="M176 221.84C176 221.98 160.57 222.1 141.54 222.1C122.51 222.1 107.09 221.98 107.09 221.84C107.09 221.7 122.51 221.58 141.54 221.58C160.57 221.58 176 221.7 176 221.84Z" fill="#FAFAFA"/>
<path d="M111 232.32C110.063 232.574 109.088 232.662 108.12 232.58C107.155 232.662 106.184 232.574 105.25 232.32C106.184 232.066 107.155 231.978 108.12 232.06C109.088 231.978 110.063 232.066 111 232.32Z" fill="#FAFAFA"/>
<path d="M156 232.64C156 232.78 145.91 232.9 133.47 232.9C121.03 232.9 110.94 232.78 110.94 232.64C110.94 232.5 121.02 232.38 133.47 232.38C145.92 232.38 156 232.49 156 232.64Z" fill="#FAFAFA"/>
<path d="M155 243.43C155 243.58 145.94 243.69 134.78 243.69C123.62 243.69 114.55 243.58 114.55 243.43C114.55 243.28 123.6 243.17 134.78 243.17C145.96 243.17 155 243.29 155 243.43Z" fill="#FAFAFA"/>
<path d="M154.72 253.44C154.72 253.58 146.52 253.7 136.4 253.7C126.28 253.7 118.06 253.58 118.06 253.44C118.06 253.3 126.27 253.18 136.4 253.18C146.53 253.18 154.72 253.29 154.72 253.44Z" fill="#FAFAFA"/>
<path d="M156.33 261.53C156.33 261.68 147.55 261.79 136.72 261.79C125.89 261.79 117.11 261.68 117.11 261.53C117.11 261.38 125.89 261.27 136.72 261.27C147.55 261.27 156.33 261.39 156.33 261.53Z" fill="#FAFAFA"/>
<path d="M158.87 271.85C158.87 272 148.87 272.11 136.56 272.11C124.25 272.11 114.25 272 114.25 271.85C114.25 271.7 124.25 271.59 136.56 271.59C148.87 271.59 158.87 271.71 158.87 271.85Z" fill="#FAFAFA"/>
<path d="M117.37 250.28C117.181 249.998 117.039 249.687 116.95 249.36L115.95 246.8C115.12 244.64 113.95 241.66 112.75 238.33C111.55 235 110.54 231.96 109.91 229.73C109.6 228.61 109.36 227.73 109.23 227.07C109.134 226.744 109.077 226.409 109.06 226.07C109.523 227.231 109.923 228.416 110.26 229.62C110.98 231.82 112.03 234.84 113.26 238.16C114.49 241.48 115.57 244.48 116.26 246.68C116.63 247.78 116.91 248.68 117.09 249.3C117.225 249.613 117.319 249.943 117.37 250.28Z" fill="#263238"/>
</svg>
