<svg width="20" height="18" viewBox="0 0 20 18" fill="none" xmlns="http://www.w3.org/2000/svg">
<path d="M14.2786 0.727051H1.44429C1.06366 0.728524 0.698884 0.8796 0.428675 1.14767C0.158466 1.41574 0.00449714 1.77931 0 2.15991L0 2.74134C0.000756783 3.12389 0.153256 3.49052 0.42403 3.76075C0.694804 4.03099 1.06173 4.18277 1.44429 4.18277H14.2786C14.6611 4.18277 15.0281 4.03099 15.2988 3.76075C15.5696 3.49052 15.7221 3.12389 15.7229 2.74134V2.15848C15.718 1.77813 15.5639 1.41493 15.2937 1.14716C15.0235 0.879397 14.6589 0.728519 14.2786 0.727051Z" fill="#2A2B2E"/>
<path d="M18.5571 7.27148H1.44429C1.06378 7.27333 0.69921 7.42452 0.42908 7.69251C0.15895 7.96051 0.00486431 8.32386 0 8.70434L0 9.28577C0.000378636 9.66857 0.152711 10.0356 0.423526 10.3061C0.694341 10.5767 1.06148 10.7286 1.44429 10.7286H18.5571C18.7466 10.7286 18.9342 10.6913 19.1093 10.6188C19.2844 10.5463 19.4434 10.44 19.5774 10.306C19.7114 10.172 19.8177 10.013 19.8902 9.83793C19.9627 9.66287 20 9.47525 20 9.28577V8.70291C19.9955 8.32269 19.8417 7.95949 19.5717 7.69169C19.3018 7.42388 18.9374 7.27296 18.5571 7.27148Z" fill="#2A2B2E"/>
<path d="M9.28571 13.8169H1.44429C1.0644 13.8184 0.70025 13.9688 0.430161 14.236C0.160071 14.5031 0.00561138 14.8656 0 15.2455L0 15.8255C0.000378636 16.2083 0.152711 16.5753 0.423526 16.8458C0.694341 17.1164 1.06148 17.2683 1.44429 17.2683H9.28571C9.66852 17.2683 10.0357 17.1164 10.3065 16.8458C10.5773 16.5753 10.7296 16.2083 10.73 15.8255V15.244C10.724 14.8644 10.5694 14.5023 10.2993 14.2355C10.0293 13.9686 9.66536 13.8183 9.28571 13.8169Z" fill="#2A2B2E"/>
</svg>
