<svg width="26" height="26" viewBox="0 0 26 26" fill="none" xmlns="http://www.w3.org/2000/svg">
<path d="M13.0056 11.9999C12.4533 11.9968 12.003 12.442 11.9999 12.9942C11.9967 13.5465 12.4419 13.9968 12.9942 13.9999C13.5464 14.0031 13.9967 13.5579 13.9998 13.0056C14.003 12.4534 13.5578 12.0031 13.0056 11.9999Z" stroke="#A3333D" stroke-width="2" stroke-linecap="round" stroke-linejoin="round"/>
<path d="M6.00555 11.9602C5.45328 11.957 5.00302 12.4022 4.99987 12.9544C4.99672 13.5067 5.44188 13.957 5.99416 13.9601C6.54643 13.9633 6.99669 13.5181 6.99984 12.9658C7.00299 12.4136 6.55783 11.9633 6.00555 11.9602Z" stroke="#A3333D" stroke-width="2" stroke-linecap="round" stroke-linejoin="round"/>
<path d="M20.0056 12.04C19.4533 12.0368 19.003 12.482 18.9999 13.0343C18.9967 13.5865 19.4419 14.0368 19.9942 14.04C20.5464 14.0431 20.9967 13.5979 20.9998 13.0457C21.003 12.4934 20.5578 12.0431 20.0056 12.04Z" stroke="#A3333D" stroke-width="2" stroke-linecap="round" stroke-linejoin="round"/>
</svg>
