<svg xmlns="http://www.w3.org/2000/svg" viewBox="0 0 500 500"><g id="freepik--background-simple--inject-29"><path d="M437.59,108.48l-2.41-4c-20.37-33.56-57.19-53.8-96-51.34a100.75,100.75,0,0,0-14.86,2c-35.3,7.55-66,34.25-78.75,68.44-7.49,20.1-9.58,43.25-23.79,59.21-18.49,20.77-49.89,21.43-77.49,20.57s-59-.13-77.42,20.72c-11.53,13.06-15.19,31.63-14.26,49.12,2.46,46.31,34.72,87.71,75.76,108.29S217.69,404,262.6,394.92c62.91-12.68,122.74-47.51,158.7-101.3S466.37,166.54,437.59,108.48Z" style="fill:#f5f5f5"></path><circle cx="141.68" cy="99.12" r="48.49" transform="translate(-27.6 63.89) rotate(-23.22)" style="fill:#f5f5f5"></circle></g><g id="freepik--Plant--inject-29"><path d="M134.11,362.4c.09.14-1.73,1.38-4.55,3.53a106.3,106.3,0,0,0-19.67,19.33c-2.19,2.78-3.47,4.58-3.6,4.49s.95-2,3-4.94a79.77,79.77,0,0,1,9.07-10.61,78.52,78.52,0,0,1,10.76-8.88C132.08,363.32,134,362.29,134.11,362.4Z" style="fill:#263238"></path><path d="M130.38,347.13c.29.07-.68,5-2.16,11S125.31,369,125,368.92s.69-5,2.16-11S130.1,347.06,130.38,347.13Z" style="fill:#263238"></path><path d="M128.76,346.3c-.73.32-.94,2.12-.34,3a2.24,2.24,0,0,0,2.86.5,2.41,2.41,0,0,0,.95-3.22,2.37,2.37,0,0,0-3.55-.22" style="fill:#455a64"></path><path d="M136.52,353.24c.12.26-1.65,1.33-4,2.38s-4.28,1.69-4.4,1.43,1.65-1.34,4-2.39S136.4,353,136.52,353.24Z" style="fill:#263238"></path><path d="M136.34,351.51a3.57,3.57,0,0,0-1.4,1.79,1.59,1.59,0,0,0,.83,1.92,1.52,1.52,0,0,0,1.4-.3,2.86,2.86,0,0,0,.8-1.24,2.24,2.24,0,0,0,.09-1.57,1.1,1.1,0,0,0-1.28-.69" style="fill:#455a64"></path><path d="M136.29,360.4a2.14,2.14,0,1,1-.46,0" style="fill:#455a64"></path><path d="M89.13,300.4a24,24,0,0,1,.26,3.58c.08,2.47.19,5.76.32,9.74.22,8.23.45,19.59.64,32.14s.3,23.92.33,32.15c0,4,0,7.27,0,9.74a21.5,21.5,0,0,1-.16,3.58,24,24,0,0,1-.26-3.57c-.08-2.47-.18-5.76-.31-9.74-.22-8.23-.45-19.6-.65-32.15S89,321.94,89,313.72c0-4,0-7.27,0-9.75A24,24,0,0,1,89.13,300.4Z" style="fill:#263238"></path><path d="M105.14,293.54A15.86,15.86,0,1,1,88.08,279,15.87,15.87,0,0,1,105.14,293.54Z" style="fill:#A3333D"></path><g style="opacity:0.30000000000000004"><path d="M88.68,310.7c-.16,0,0-1.78.13-4.59a25.89,25.89,0,0,0-1.62-10.67A14.81,14.81,0,0,0,80,287.76c-2.52-1.16-4.34-1-4.33-1.2s.44-.17,1.25-.17a9.58,9.58,0,0,1,3.37.69A14.53,14.53,0,0,1,88.17,295a23.63,23.63,0,0,1,1.39,11.12C89.28,309,88.8,310.72,88.68,310.7Z"></path></g><g style="opacity:0.30000000000000004"><path d="M103.47,288.6c0,.32-4.45,0-8.8,2.85s-5.93,7-6.21,6.86c-.12-.05.08-1.14.93-2.7a14.2,14.2,0,0,1,11.24-7.28C102.4,288.21,103.48,288.47,103.47,288.6Z"></path></g><g style="opacity:0.30000000000000004"><path d="M96.38,289.86c-.18,0-.38-1.05-1.36-2.4a7.15,7.15,0,0,0-11.12-.92c-1.19,1.16-1.57,2.2-1.74,2.13s0-1.2,1.19-2.64a7.44,7.44,0,0,1,12.29,1C96.56,288.67,96.49,289.86,96.38,289.86Z"></path></g><g style="opacity:0.30000000000000004"><path d="M92,292.9c-.31,0-.65-2.15-2-4.42s-3-3.67-2.84-3.92,2.31.86,3.76,3.39S92.28,292.92,92,292.9Z"></path></g><g style="opacity:0.30000000000000004"><path d="M90.46,288.18c.07.31-1.24.73-2.32,1.79s-1.84,2.28-2.12,2.12.07-1.54,1.38-2.89S90.45,287.93,90.46,288.18Z"></path></g><path d="M55.35,349.08c.28-.09,4.64,12.76,9.74,28.68s9,28.92,8.74,29S69.19,394,64.09,378.09,55.07,349.17,55.35,349.08Z" style="fill:#263238"></path><path d="M65.5,380.77c-.18.19-4.63-3.33-10.2-7.61s-9.93-8-9.74-8.23S50.38,368,56,372.33,65.72,380.53,65.5,380.77Z" style="fill:#263238"></path><path d="M43.09,363.61c-.86.79-.55,2.54.42,3.51s3.22.5,4-.66a2.6,2.6,0,0,0-1-3.52,2.88,2.88,0,0,0-3.62.95" style="fill:#455a64"></path><path d="M65.5,342.82c.32.06-.63,4.64-2.52,10s-3,9.77-3.32,9.72.43-4.67,2.32-10.06S65.25,342.77,65.5,342.82Z" style="fill:#263238"></path><path d="M65,338.86c-1.06.76-1.11,1.21-1.51,2.45s.17,2.86,1.44,3.13,2.29-.78,2.79-1.89a3.32,3.32,0,0,0,0-3.18,1.85,1.85,0,0,0-2.84-.31" style="fill:#455a64"></path><path d="M46.83,376.82c-.1-.27,1.77-1.31,4.19-2.33s4.47-1.63,4.59-1.37-1.75,1.32-4.18,2.34S46.94,377.09,46.83,376.82Z" style="fill:#263238"></path><path d="M43,375.05c-.72.38-1,2.14-1,2.87a2.37,2.37,0,0,0,1.12,1.81,2.83,2.83,0,1,0-.14-4.68" style="fill:#455a64"></path><path d="M50.67,346.11a3.77,3.77,0,0,0,6.51,3.32,2.71,2.71,0,0,0,.73-2.15,4.36,4.36,0,0,0-3.4-3.13,3.89,3.89,0,0,0-3.84,2" style="fill:#455a64"></path><path d="M105,361.9c.14.06-.38,1.65-1.26,4.2q-1.55,4.42-3.49,9.94c-1.33,3.66-2.52,7-3.58,9.92-.94,2.53-1.54,4.08-1.69,4s1.48-6.55,4.27-14.31S104.72,361.78,105,361.9Z" style="fill:#263238"></path><path d="M121.85,354.62a13.58,13.58,0,1,1-10.46-16.1A13.59,13.59,0,0,1,121.85,354.62Z" style="fill:#A3333D"></path><g style="opacity:0.30000000000000004"><path d="M104.16,364.69c-.14-.07.44-1.46,1.18-3.75a22.39,22.39,0,0,0,1.24-9.13,12.7,12.7,0,0,0-4-8c-1.77-1.57-3.29-1.9-3.23-2.09s1.66,0,3.7,1.51a12.46,12.46,0,0,1,4.54,8.47,19.9,19.9,0,0,1-1.59,9.49C105.1,363.47,104.28,364.74,104.16,364.69Z"></path></g><g style="opacity:0.30000000000000004"><path d="M121.68,350.16c-.06.31-3.66-1-7.89.26s-6.56,4.28-6.78,4.05.3-.94,1.37-2a12.08,12.08,0,0,1,5.11-3,11.9,11.9,0,0,1,5.93-.21C120.91,349.54,121.73,350,121.68,350.16Z"></path></g><g style="opacity:0.30000000000000004"><path d="M115.55,349.47c-.17,0-.09-1-.58-2.29a6.1,6.1,0,0,0-8.82-3.43c-1.26.64-1.83,1.39-2,1.28s.28-1,1.59-1.92a6.38,6.38,0,0,1,9.91,3.86C116,348.53,115.66,349.5,115.55,349.47Z"></path></g><g style="opacity:0.30000000000000004"><path d="M111.23,350.9c-.31-.07-.09-1.93-.63-4.1s-1.54-3.73-1.3-3.93,1.75,1.24,2.33,3.69S111.49,351,111.23,350.9Z"></path></g><g style="opacity:0.30000000000000004"><path d="M111.1,346.64c0,.32-1.18.38-2.3,1s-2.07,1.39-2.29,1.16.38-1.3,1.81-2.1S111.16,346.39,111.1,346.64Z"></path></g><path d="M73.76,333.43a10.31,10.31,0,0,1,.52,2.26c.29,1.68.64,3.75,1,6.18.83,5.23,1.91,12.46,3,20.45s2.08,15.23,2.73,20.48c.28,2.45.51,4.53.71,6.23a9.13,9.13,0,0,1,.11,2.3,10.09,10.09,0,0,1-.52-2.25q-.42-2.52-1-6.18c-.83-5.22-1.91-12.46-3-20.46S75.23,347.2,74.58,342c-.28-2.45-.51-4.53-.71-6.22A9.77,9.77,0,0,1,73.76,333.43Z" style="fill:#263238"></path><path d="M85.29,319.17a13.57,13.57,0,1,1-16.73-9.41A13.57,13.57,0,0,1,85.29,319.17Z" style="fill:#A3333D"></path><g style="opacity:0.30000000000000004"><path d="M74.3,336.29c-.16,0-.29-1.49-.7-3.87a22.45,22.45,0,0,0-3.13-8.66,12.75,12.75,0,0,0-7.23-5.25c-2.29-.57-3.8-.15-3.82-.35s1.45-.79,4-.38a12.45,12.45,0,0,1,7.95,5.4,19.91,19.91,0,0,1,3,9.14C74.56,334.78,74.43,336.29,74.3,336.29Z"></path></g><g style="opacity:0.30000000000000004"><path d="M83.07,315.29c.09.31-3.7.82-6.86,3.9s-3.83,6.83-4.13,6.73c-.13,0-.16-1,.28-2.44a12,12,0,0,1,8.27-8C82.11,315.1,83.06,315.16,83.07,315.29Z"></path></g><g style="opacity:0.30000000000000004"><path d="M77.33,317.52c-.16.07-.53-.79-1.58-1.75a6.1,6.1,0,0,0-9.4,1.05c-.82,1.16-1,2.08-1.16,2.05s-.22-1,.52-2.44a6.4,6.4,0,0,1,10.58-1.18C77.32,316.48,77.44,317.5,77.33,317.52Z"></path></g><g style="opacity:0.30000000000000004"><path d="M74.16,320.8c-.3.08-1-1.67-2.45-3.34s-3.1-2.59-3-2.87,2.12.28,3.77,2.18S74.43,320.76,74.16,320.8Z"></path></g><g style="opacity:0.30000000000000004"><path d="M72.08,317.09c.13.29-.88.88-1.59,1.93s-1.19,2.19-1.5,2.08-.26-1.32.63-2.69S72,316.84,72.08,317.09Z"></path></g><polygon points="75.7 477.81 63.37 388.93 116.4 388.93 105.58 477.81 75.7 477.81" style="fill:#263238"></polygon><path d="M112.58,423.69c0,.24-9.94.44-22.19.44s-22.2-.2-22.2-.44,9.94-.45,22.2-.45S112.58,423.44,112.58,423.69Z" style="fill:#fafafa"></path><path d="M111.47,429.4c0,.25-9.51.45-21.24.45S69,429.65,69,429.4,78.5,429,90.23,429,111.47,429.16,111.47,429.4Z" style="fill:#fafafa"></path><path d="M110.81,434.87c0,.25-9.2.45-20.53.45s-20.54-.2-20.54-.45,9.2-.44,20.54-.44S110.81,434.63,110.81,434.87Z" style="fill:#fafafa"></path><path d="M110.08,440.81c0,.25-8.84.45-19.75.45s-19.76-.2-19.76-.45,8.84-.44,19.76-.44S110.08,440.57,110.08,440.81Z" style="fill:#fafafa"></path><path d="M109.42,446.24c0,.25-8.44.45-18.85.45s-18.85-.2-18.85-.45,8.44-.45,18.85-.45S109.42,446,109.42,446.24Z" style="fill:#fafafa"></path><path d="M108.37,451.67c0,.24-8.13.44-18.15.44s-18.15-.2-18.15-.44,8.13-.45,18.15-.45S108.37,451.42,108.37,451.67Z" style="fill:#fafafa"></path><path d="M108.1,457.1c0,.24-7.9.44-17.64.44s-17.63-.2-17.63-.44,7.89-.45,17.63-.45S108.1,456.85,108.1,457.1Z" style="fill:#fafafa"></path><path d="M107.44,462.53c0,.24-7.58.44-16.93.44s-16.93-.2-16.93-.44,7.58-.45,16.93-.45S107.44,462.28,107.44,462.53Z" style="fill:#fafafa"></path></g><g id="freepik--Character--inject-29"><path d="M227.41,90.88c-1.59,2.59-5.36,3.1-8.11,1.83s-4.65-3.87-6.15-6.51-2.74-5.47-4.75-7.73a14.11,14.11,0,0,0-14-4.26,12.89,12.89,0,0,0-9.24,11.12c-.43,6.18,4.11,11.88,9.69,14.55s12,2.89,18.19,2.64" style="fill:#263238"></path><path d="M302.45,95.18c6-2.87,13.65.64,17.07,6.36s3.43,12.89,2.1,19.42c-1.25,6.19-3.29,13.55,1.12,18.07,3.45,3.55,9.77,3.75,12.21,8.05,3.52,6.17-4.37,13.4-3.29,20.42.69,4.44,4.8,7.52,8.91,9.32s8.64,2.87,12.16,5.65,5.65,8.14,3,11.81l-23,7.22-4.68-8.08c1.62,3.41.89,7.58-1,10.82s-4.91,5.72-7.95,7.95c-11.9,8.69-26.33,14.73-41,13.92" style="fill:#263238"></path><path d="M202.47,107.15C202.29,101,208,96.27,213.68,94s12.06-3.1,17.15-6.53c4.51-3,7.54-7.77,11.36-11.63A37.78,37.78,0,0,1,305.73,93.2c2.2,8.74.7,19.07-6.19,24.88-8,6.74-19.85,5.24-30.09,3.15s-21.84-4.17-30.39,1.85c-5.16,3.63-8.11,9.53-11.27,15s-7.11,11-13.07,13.09-14.06-1.49-14.29-7.8" style="fill:#263238"></path><path d="M202.88,110.52c.67,5.14-3,9.75-6.75,13.38s-7.89,7.48-8.55,12.62c-.76,6,3.63,11.94,2.35,17.86-.8,3.76-3.73,6.66-5.5,10.07a21.39,21.39,0,0,0-1.09,15.77c1.52,5.18,4,16.74,7.56,20.77,9.95,11.13,25.81,20.73,40.36,24.08s29.67,3.36,44.58,2.45c12.2-.76,26.23-.19,36.4-17,5.27-8.7,7.88-20.26,10.68-30,2.41-8.41,4.49-17.42,2-25.81-1.46-4.89-4.4-9.23-5.84-14.12-1.8-6.12-1.14-12.65-1.87-19a43.54,43.54,0,0,0-61.95-34.38" style="fill:#263238"></path><path d="M311.36,131.61c-1.14-17.52-12.79-39-30.24-37.09l-54.46,13.89a10.26,10.26,0,0,0-9.16,10.43L221,238.5a31.57,31.57,0,0,0,32.25,30.63h0a31.58,31.58,0,0,0,30.89-31.52c0-8.53,0-18.57,0-18.53s22.37-3.76,26.94-33C313.41,171.59,312.63,151.06,311.36,131.61Z" style="fill:#ffbe9d"></path><path d="M301.65,154.19A3.75,3.75,0,0,1,298,158a3.58,3.58,0,0,1-3.86-3.37,3.74,3.74,0,0,1,3.59-3.79A3.59,3.59,0,0,1,301.65,154.19Z" style="fill:#263238"></path><path d="M306.23,144c-.47.49-3.31-1.6-7.34-1.58s-7,2-7.41,1.54c-.22-.21.26-1.1,1.54-2a10.35,10.35,0,0,1,5.93-1.84,9.89,9.89,0,0,1,5.84,1.87C306,142.9,306.46,143.78,306.23,144Z" style="fill:#263238"></path><path d="M263,154.19a3.75,3.75,0,0,1-3.6,3.79,3.59,3.59,0,0,1-3.87-3.37,3.75,3.75,0,0,1,3.6-3.79A3.58,3.58,0,0,1,263,154.19Z" style="fill:#263238"></path><path d="M266.63,144.84c-.47.49-3.31-1.6-7.34-1.58s-7,2-7.41,1.54c-.22-.21.25-1.1,1.54-2a10.28,10.28,0,0,1,5.93-1.84,9.89,9.89,0,0,1,5.84,1.87C266.43,143.74,266.85,144.62,266.63,144.84Z" style="fill:#263238"></path><path d="M281.31,174.68c0-.22,2.49-.66,6.55-1.19,1-.11,2-.32,2.17-1s-.19-1.85-.69-3.05q-1.47-3.72-3.06-7.82c-4.25-11.15-7.33-20.31-6.88-20.48s4.26,8.73,8.51,19.88q1.53,4.11,2.93,7.87c.39,1.17,1.06,2.49.54,4a2.54,2.54,0,0,1-1.69,1.5,6.56,6.56,0,0,1-1.74.25C283.86,174.89,281.33,174.91,281.31,174.68Z" style="fill:#263238"></path><path d="M245.48,208.69S255,228.74,284.19,226v-6.87A73.59,73.59,0,0,1,245.48,208.69Z" style="fill:#eb996e"></path><path d="M279.63,184.4a7.25,7.25,0,0,0-6.51-2.68,6.63,6.63,0,0,0-4.57,2.46,4.19,4.19,0,0,0-.31,4.8c1.09,1.53,3.36,1.88,5.28,1.33a15.23,15.23,0,0,0,5.15-3.09,4.44,4.44,0,0,0,1.14-1.19,1.34,1.34,0,0,0,0-1.5" style="fill:#A3333D"></path><path d="M269.46,177.5c.66,0,.68,4.33,4.43,7.43s8.4,2.6,8.44,3.21c.06.28-1,.85-3,.91a10.84,10.84,0,0,1-7-2.44,9.43,9.43,0,0,1-3.43-6.22C268.68,178.56,269.17,177.47,269.46,177.5Z" style="fill:#263238"></path><path d="M267.6,133c-.4,1.1-4.42.59-9.14,1.17s-8.55,1.88-9.18.89c-.28-.47.38-1.5,1.92-2.56a16,16,0,0,1,14-1.57C266.89,131.66,267.77,132.52,267.6,133Z" style="fill:#263238"></path><path d="M304.72,132.34c-.71.92-3.48,0-6.82-.06s-6.16.63-6.82-.33c-.28-.46.16-1.38,1.39-2.25a9.54,9.54,0,0,1,5.55-1.51,9.39,9.39,0,0,1,5.44,1.83C304.64,131,305,131.9,304.72,132.34Z" style="fill:#263238"></path><path d="M206.28,204.46a25.93,25.93,0,0,0,30.84-28.67c-.91-7.17-4.78-14.47-2.29-21.25,3.29-9,15.86-11.73,19.2-20.69,1.94-5.2.2-11.29,2.4-16.39,2.07-4.79,7.11-7.56,12-9.33s10.18-3,14.3-6.21,6.7-9.25,4-13.74a276.4,276.4,0,0,0-63.8,15.5c-4.76,1.77-9.76,3.91-12.58,8.15-3,4.48-2.84,10.27-2.59,15.64q1.85,39.33,3.67,78.64" style="fill:#263238"></path><path d="M287.6,77.12c.75,7.36,1.49,14.93-.52,22s-7.42,13.78-14.72,15c-3.45.58-7.33,0-10.17,2-6,4.35-1.1,14.53-4.65,21.06-3.19,5.85-11.76,6.38-16,11.51-4.68,5.66-2.26,14.18,1,20.75s7.3,13.82,5.12,20.83c-2.44,7.83-11.8,12-14.1,19.87-1.48,5.08.08,11.33-3.55,15.18-2.8,3-7.45,3-11.51,2.65A115.18,115.18,0,0,1,171,212.86a27.07,27.07,0,0,0,3.92-13.45l-8.17,6-18.84-23.48a38.22,38.22,0,0,1,21.17-21.25c5.7-2.27,13-4.19,14.33-10.18.74-3.31-3.24-9.34-1.09-17,0,0,3.58-14.65,12.06-18.78s7.3-6.61,9.15-12.25" style="fill:#263238"></path><path d="M152.58,179.47c0-.2,2.63-.11,7.33-.06a69,69,0,0,0,8.49-.39,33.38,33.38,0,0,0,10.66-2.88,25.57,25.57,0,0,0,5.34-3.43,18.83,18.83,0,0,0,4.33-5.18,19.61,19.61,0,0,0,2.19-6.9c.4-2.54.54-5.25,1-8.09A21.92,21.92,0,0,1,194.8,144a12.2,12.2,0,0,1,3.38-3.53,13.8,13.8,0,0,1,4.56-1.91c3.18-.74,6.34-.66,9.33-1s5.85-1.13,7.75-3.27a16.49,16.49,0,0,0,3.64-7.91c.63-2.93.83-6,1.44-9.11a19.8,19.8,0,0,1,3.61-8.71,17.08,17.08,0,0,1,3.39-3.2,19.77,19.77,0,0,1,4-2.14C241.34,101,247,101,252,101.55s9.52,1.32,13.65,1.49a33.9,33.9,0,0,0,5.85-.17,22.87,22.87,0,0,0,5-1.21,18.89,18.89,0,0,0,7-4.35,13,13,0,0,0,2.9-4.36c.46-1.12.61-1.76.72-1.74a4.12,4.12,0,0,1-.23,1.91A11.8,11.8,0,0,1,284.25,98a18.91,18.91,0,0,1-7.21,5,23.79,23.79,0,0,1-5.32,1.5,35,35,0,0,1-6.15.37c-4.3-.06-8.9-.79-13.78-1.18a43.27,43.27,0,0,0-7.47,0,26.35,26.35,0,0,0-7.54,1.81,15.47,15.47,0,0,0-6.31,4.65,17.37,17.37,0,0,0-3.06,7.66c-.56,2.89-.75,6-1.42,9.17a19,19,0,0,1-4.27,9.16,11.62,11.62,0,0,1-4.43,3,19.63,19.63,0,0,1-4.93,1.1c-3.22.36-6.29.29-9,.93a11.21,11.21,0,0,0-3.73,1.51,9.71,9.71,0,0,0-2.7,2.79,19.68,19.68,0,0,0-2.64,7.54c-.44,2.67-.61,5.39-1.07,8.07a22,22,0,0,1-2.57,7.61,20.88,20.88,0,0,1-4.93,5.66,27.07,27.07,0,0,1-5.85,3.55,33.9,33.9,0,0,1-11.29,2.66,60,60,0,0,1-8.67,0C155.15,180.06,152.57,179.63,152.58,179.47Z" style="fill:#e0e0e0"></path><path d="M216.54,89.9c.31.14.16,1.3-.56,3A21.48,21.48,0,0,1,212,98.81a22.89,22.89,0,0,1-5.54,4.45c-1.6.87-2.73,1.15-2.91.85-.38-.64,3-3.24,6.53-7.07S215.85,89.6,216.54,89.9Z" style="fill:#A3333D"></path><polygon points="343.56 422.44 348.94 477.87 180.16 477.81 212.77 411.99 343.56 422.44" style="fill:#A3333D"></polygon><path d="M348.68,357.59,381.52,406s6.71-53.12,7.33-51.93-36.8-50.86-36.8-50.86Z" style="fill:#eb996e"></path><path d="M213.1,239.87c-1.3,0-43.15,17-47.94,24.86S190.29,420,190.29,420l153.27,3.15,1.51-70.46,11.43-94.27-63.38-21.36-8.45-7.36L267.5,259.6l-47.17-30.22Z" style="fill:#A3333D"></path><g style="opacity:0.30000000000000004"><path d="M206.74,473c10.16-2.65,18.54-10.12,24.37-18.85s9.41-18.74,12.85-28.66,6.83-20,12.33-28.91c4.06-6.59,9.18-12.45,14.27-18.27a39.39,39.39,0,0,1,8-7.58c3.85-2.48,8.42-3.53,12.88-4.55l23.48-5.33a26.67,26.67,0,0,0,8.47-2.95c2.54-1.6,4.6-4.31,4.58-7.32-11.71,1.18-23.53.82-35.23,2.07s-23.58,4.31-32.93,11.46-15.45,17.93-20.18,28.8c-11.49,26.43-16.87,55.62-32.09,80.09"></path></g><path d="M165.16,264.73s-12.71,8.34-16,34.89c-2.48,19.73-7.43,75.58-7.43,75.58l60.47-5.05Z" style="fill:#A3333D"></path><path d="M141.68,375.2a1.05,1.05,0,0,1,.31-.05l.89-.1,3.46-.34,12.72-1.15,42-3.58,1.08-.09-.24.29c-2.13-16.06-4-30.55-5.44-41.06l-1.59-12.41c-.17-1.44-.3-2.57-.4-3.38,0-.36-.07-.65-.09-.88a1.35,1.35,0,0,1,0-.3,1.48,1.48,0,0,1,.07.3c0,.22.08.51.14.87.12.8.29,1.93.5,3.36.42,3,1,7.18,1.75,12.39,1.43,10.51,3.41,25,5.6,41l0,.27-.28,0-1.08.09-42,3.43-12.73,1-3.47.24-.9.05Z" style="fill:#263238"></path><path d="M267,259.21a4.78,4.78,0,0,1-1-.27l-2.76-.88-9.87-3.3.25-.1L249,262.49l-.12.2-.21-.11c-2.42-1.17-5-2.48-7.65-3.89A221.34,221.34,0,0,1,221.64,247c-2.4-1.61-4.3-3-5.61-3.94L214.54,242a3.21,3.21,0,0,1-.5-.42,2.83,2.83,0,0,1,.56.33l1.54,1.05c1.35.9,3.28,2.22,5.71,3.79,4.84,3.16,11.65,7.37,19.45,11.51,2.63,1.41,5.21,2.72,7.62,3.9l-.32.1,4.68-7.79.09-.15.17.06,9.81,3.47,2.73,1A6.87,6.87,0,0,1,267,259.21Z" style="fill:#263238"></path><path d="M292.37,237.32a1.6,1.6,0,0,1,0,.48c0,.32-.06.78-.15,1.38a46.52,46.52,0,0,1-1,5,51.56,51.56,0,0,1-2.38,7.17c-.55,1.31-1.17,2.67-1.89,4-.36.69-.74,1.38-1.15,2.07a5.94,5.94,0,0,1-.71,1,1.57,1.57,0,0,1-1.29.56,2.08,2.08,0,0,1-1.2-.65c-.31-.3-.55-.62-.81-.91l-1.53-1.79-2.89-3.38a5.29,5.29,0,0,0-1.48-1.3,1.41,1.41,0,0,0-1.6.1,6.64,6.64,0,0,0-1.16,1.31l-1,1.35-3.09,4-.86,1.08a2.81,2.81,0,0,1-.33.36s.07-.16.24-.42l.78-1.14,3-4.12,1-1.36a6.93,6.93,0,0,1,1.22-1.43,1.89,1.89,0,0,1,2.07-.16,5.62,5.62,0,0,1,1.63,1.4c.93,1.07,1.91,2.19,2.91,3.36l1.54,1.78c.52.58,1,1.3,1.67,1.39s1.13-.69,1.51-1.35.78-1.36,1.14-2c.72-1.35,1.35-2.69,1.9-4a56,56,0,0,0,2.46-7.07c.57-2.06.91-3.76,1.13-4.94A15.07,15.07,0,0,1,292.37,237.32Z" style="fill:#263238"></path><path d="M320.39,399c.07.13-13.2,7.56-29.64,16.61s-29.82,16.27-29.89,16.15,13.2-7.56,29.64-16.61S320.32,398.83,320.39,399Z" style="fill:#263238"></path><path d="M311.23,428.17c0,.14-8.54.72-19.09,1.28s-19.1.9-19.11.76,8.54-.72,19.09-1.28S311.22,428,311.23,428.17Z" style="fill:#263238"></path><polygon points="349.77 364.78 341.19 355.95 349.8 310.8 358.42 341.11 349.77 364.78" style="fill:#A3333D"></polygon><path d="M343.37,419.86a1,1,0,0,1,0-.23V419q0-1,0-2.61c0-2.32.11-5.58.18-9.6.16-8.1.39-19.29.52-31.65s.11-23.57-.1-31.66c-.08-4.05-.25-7.32-.39-9.58-.08-1.1-.14-2-.19-2.61,0-.27,0-.49,0-.67a.73.73,0,0,1,0-.24.65.65,0,0,1,.05.23l.09.67c.07.64.17,1.51.29,2.6.19,2.26.42,5.53.55,9.59.3,8.1.38,19.3.25,31.67s-.41,23.56-.67,31.66c-.14,4-.26,7.28-.35,9.59-.05,1.1-.09,2-.13,2.61,0,.27,0,.5,0,.68A.89.89,0,0,1,343.37,419.86Z" style="fill:#263238"></path><path d="M314.51,234.12a5.34,5.34,0,0,0-5.33,1.08c-2.38,2.23-2.08,4.76-1.34,7.14a5.15,5.15,0,0,0,2.23,3.12l9.81-4.61Z" style="fill:#eb996e"></path><path d="M305.57,249.69s-4.11,2.81-4.26,3.66c-.11.61.64,1.38,1.8,1a35.62,35.62,0,0,0,3.85-2.06Z" style="fill:#A3333D"></path><g style="opacity:0.30000000000000004"><path d="M305.57,249.69s-4.11,2.81-4.26,3.66c-.11.61.64,1.38,1.8,1a35.62,35.62,0,0,0,3.85-2.06Z"></path></g><path d="M315.23,239.32,303.91,250l2.52,3.5,12.23-4.37,62.42-35.43a4.59,4.59,0,0,0,1.61-6.46h0a4.58,4.58,0,0,0-6.08-1.55Z" style="fill:#455a64"></path><path d="M434.51,373.6c-.7-10.14-64.19-97.82-68.16-103.29l-11-22.77-4.66-19.18S325.8,214,323.83,214,312.17,226.39,312,228.36a4.7,4.7,0,0,0,1.26,3.41l1.25,12.55a7,7,0,0,0-.35,5.33c1.07,2.56,5.37,2.56,5.37,2.56l-1.61,5.42s.36,6.05,1.43,7.12c.42.42,2.54.72,4.9.28,2.07-.38,2.65-3.39,2.55-4.83.66,1.07,2.91,0,2.91,0,.21,2.55,2.87,4.45,2.87,4.45s3.8,15.34,4.34,17.31,3.94,7,9,8.79a11,11,0,0,1,1.24.52C350.79,305,376.17,399.63,381.52,406c5.77,6.85,21.4,11.14,35.47,10.42S435.23,384.06,434.51,373.6Z" style="fill:#ffbe9d"></path><path d="M337.22,226.1a23.28,23.28,0,0,1-3.54.23c-2.19.07-5.21.13-8.55.14-1.67,0-3.26,0-4.7,0-.73,0-1.42,0-2.07-.08a3.09,3.09,0,0,0-1.61.38,9.33,9.33,0,0,0-2.06,1.48c-.45.41-.68.66-.71.63s.16-.31.57-.77a8,8,0,0,1,2-1.67,3.43,3.43,0,0,1,1.81-.48c.63,0,1.32,0,2,0h13.25A24.12,24.12,0,0,1,337.22,226.1Z" style="fill:#eb996e"></path><path d="M329.72,226.1c0,.06-.59-.1-1.36-.62a14,14,0,0,1-2.68-2.42l-.28-.33.43-.28a1.58,1.58,0,0,1,0,1.11,3,3,0,0,1-.45.83,6.09,6.09,0,0,1-1,1.09c-.65.55-1.11.78-1.15.73s.34-.39.91-1a8.44,8.44,0,0,0,.89-1.1,1.6,1.6,0,0,0,.33-1.44l-.72-1.64,1.16,1.36.27.32a21.63,21.63,0,0,0,2.51,2.46C329.26,225.76,329.76,226,329.72,226.1Z" style="fill:#eb996e"></path><path d="M335.43,237.3a30.25,30.25,0,0,1-3.09.12c-1.91.05-4.54.19-7.44.44a17.29,17.29,0,0,0-7,1.92c-1.67.9-2.56,1.69-2.62,1.62s.18-.25.58-.6a13.45,13.45,0,0,1,1.85-1.34,16.07,16.07,0,0,1,7.2-2.12,73.5,73.5,0,0,1,7.47-.29A13.83,13.83,0,0,1,335.43,237.3Z" style="fill:#eb996e"></path><path d="M323.67,237.72a5,5,0,0,1-5-3.9,17.24,17.24,0,0,0,2.12,2.45A17.62,17.62,0,0,0,323.67,237.72Z" style="fill:#eb996e"></path><path d="M335.18,244.69a6.39,6.39,0,0,1-2.07,1.07,34.64,34.64,0,0,1-5.45,1.32,26.7,26.7,0,0,0-5.35,1.39c-1.3.53-2,1-2.08,1a5.41,5.41,0,0,1,1.93-1.3,21.53,21.53,0,0,1,5.4-1.57,49.61,49.61,0,0,0,5.43-1.15C334.34,245,335.14,244.62,335.18,244.69Z" style="fill:#eb996e"></path><path d="M325.16,254.85s.53.13,1.18.69a4.49,4.49,0,0,1,1.51,3,2.93,2.93,0,0,1-.35,1.87,4.32,4.32,0,0,1-1,1.18c-.7.55-1.29.56-1.29.5s.49-.22,1-.78a4.48,4.48,0,0,0,.79-1.13,2.72,2.72,0,0,0,.26-1.58,4.78,4.78,0,0,0-1.26-2.75C325.54,255.21,325.11,254.92,325.16,254.85Z" style="fill:#eb996e"></path><path d="M332.67,254.06c.06,0-.06.44-.35,1.08a5.28,5.28,0,0,1-1.71,2.17,3.07,3.07,0,0,1-1.48.56,2.44,2.44,0,0,1-1.28-.21c-.69-.33-.87-.81-.81-.83s.33.3.94.49a2.67,2.67,0,0,0,2.33-.44A6.49,6.49,0,0,0,332,255C332.36,254.39,332.6,254,332.67,254.06Z" style="fill:#eb996e"></path><path d="M334.91,261.72c0,.06-.43.22-1.15.14a4,4,0,0,1-2.49-1.29,4.07,4.07,0,0,1-1-2.62c0-.73.2-1.14.26-1.12s0,.44.11,1.1a4.35,4.35,0,0,0,1,2.29,4.26,4.26,0,0,0,2.16,1.27C334.47,261.66,334.9,261.64,334.91,261.72Z" style="fill:#eb996e"></path><path d="M377.54,217.12a23.16,23.16,0,0,1-5.62-8.86c.12,0,1.18,2,2.74,4.47S377.64,217,377.54,217.12Z" style="fill:#263238"></path><path d="M378.61,215.5q-8,4.67-16.27,8.88l-.1.06a.64.64,0,0,0,.36.92,1.65,1.65,0,0,0,1.13-.1,18.23,18.23,0,0,0,2.65-1.33l10.85-6.18a3.72,3.72,0,0,0,1.16-.88A1.29,1.29,0,0,0,378.61,215.5Z" style="fill:#263238"></path><path d="M217.4,377.42l-17.57,27.11-1-34.11-49.06,4.1c-.08,1.33,3.53,41.47,9,76.1,2.37,15.1,17.77,26.56,33.06,26.56h0A31.05,31.05,0,0,0,220,459.27L250,384Z" style="fill:#ffbe9d"></path><path d="M253.74,270.61c-.07-.46,1.49-6.79,1.49-6.79s76.22-3.81,76.39-3.71l4.59,2.76Z" style="fill:#fff"></path><path d="M253.74,270.61l.44-.07,1.26-.13,4.8-.49,17.62-1.73,58.33-5.58-.11.49-2.55-1.54-1.42-.85a2.69,2.69,0,0,0-.71-.37,5.21,5.21,0,0,1-.69.05l-3.27.15-6.43.3-12.38.59-22.36,1.06-31,1.43.09-.08c-.53,2.16-.94,3.84-1.23,5s-.36,1.76-.36,1.76a7.42,7.42,0,0,1,.26-1.78c.24-1.16.61-2.85,1.13-5l0-.07h.08l31-1.65,22.35-1.13,12.39-.61,6.43-.3,3.27-.15c.31,0,.64,0,.95,0a2.88,2.88,0,0,1,.74.38l1.41.86,2.55,1.53.68.41-.79.07-58.52,5.38-17.59,1.57-4.75.41-1.22.1Z" style="fill:#263238"></path><polygon points="254.14 271.85 253.74 270.61 252.73 264.25 181.29 249.68 174.34 254.91 184.8 347.65 257.4 365.73 254.14 271.85" style="fill:#fff"></polygon><path d="M254.14,271.85s0,.15,0,.44,0,.73.06,1.29c0,1.16.12,2.85.21,5.05.17,4.44.41,10.92.73,19.14.59,16.48,1.44,40,2.45,68l0,.3-.3-.07L184.74,347.9l-.17,0,0-.18-.79-6.91c-3.52-31.32-6.83-60.72-9.65-85.82v-.13l.1-.08,7-5.22.08-.06.09,0,71.42,14.71h.05v.05c.52,3.43.83,5.5,1,6.36h0c.34,1.09.38,1.25.38,1.25s-.06-.15-.42-1.24h0c-.14-.87-.49-2.92-1.06-6.35l.06.06-71.47-14.43.17,0-6.95,5.24.09-.2c2.84,25.1,6.17,54.49,9.72,85.81.27,2.37.54,4.73.78,6.92l-.19-.23,72.59,18.11-.29.23c-.93-28-1.71-51.45-2.26-67.92-.26-8.23-.46-14.71-.6-19.15-.06-2.21-.11-3.9-.14-5.06,0-.57,0-1,0-1.31S254.14,271.85,254.14,271.85Z" style="fill:#263238"></path><path d="M171.62,254.14l6.72,93.69,79.06,16.39,79.72-14.33.93-87.35-79.44,4.51s-.48,3.56-6.31,3.43l-3.92-1.34-72.77-14.22Z" style="fill:#455a64"></path><line x1="258.61" y1="267.05" x2="260.68" y2="368.4" style="fill:#fff"></line><path d="M260.68,368.4c-.15,0-.72-22.69-1.3-50.67s-.91-50.68-.77-50.68.72,22.68,1.29,50.67S260.82,368.39,260.68,368.4Z" style="fill:#263238"></path><path d="M250.51,365.72s0-.08,0-.24,0-.44-.06-.73c0-.69-.1-1.63-.17-2.81-.15-2.44-.31-6-.49-10.35-.35-8.73-.69-20.81-.95-34.14s-.4-25.42-.45-34.16c0-4.34,0-7.87,0-10.36,0-1.18,0-2.12,0-2.81l0-.73c0-.17,0-.25,0-.25a.79.79,0,0,1,0,.25l0,.73c0,.68.05,1.62.08,2.81,0,2.49.11,6,.2,10.35.15,8.78.36,20.84.6,34.16s.54,25.4.8,34.14c.13,4.34.24,7.86.32,10.35,0,1.19.06,2.13.08,2.81,0,.3,0,.54,0,.73A.67.67,0,0,1,250.51,365.72Z" style="fill:#263238"></path><path d="M240.65,396.05l-.31.13Z" style="fill:#ffbe9d"></path><path d="M240.73,396l0,0Z" style="fill:#ffbe9d"></path><path d="M240.77,396h0Z" style="fill:#ffbe9d"></path><path d="M240.69,396l0,0Z" style="fill:#ffbe9d"></path><path d="M276.64,342.34c3.87-3.82,7.66-7.71,8.53-9.12,1.91-3.1-1.2-5.25-3.34-6.21s-30.32,23.16-30.32,23.16,23.63-21,25.07-22.44,2.38-3.34.95-7.16-6-2.39-7.64-2.15-28.4,22.68-28.4,22.68,15.51-15,16.94-16.23,1.91-3.35,1.44-6.21-3.58-2.62-5.73-2.62-35.73,29.83-35.73,29.83l1.6,15.75-5.69,24.13L240.77,396c4.54-1.91,13.13-13.09,14.8-15.28s11.22-18.38,11.22-18.38c3.82-2.15,9.31-10.74,11.46-13.13s1.43-3.58.23-5.49c-.64-1-6.87,4-12.5,8.78l1.29-1.14S272,346.9,276.64,342.34Z" style="fill:#ffbe9d"></path><path d="M228.65,352.11c0,.05-.48.45-1.48.69a5.84,5.84,0,0,1-3.93-.46,5.91,5.91,0,0,1-2.71-2.89,2.86,2.86,0,0,1-.33-1.6c.09,0,.21.59.66,1.44a6.33,6.33,0,0,0,2.61,2.58,6.22,6.22,0,0,0,3.63.57C228.06,352.3,228.62,352,228.65,352.11Z" style="fill:#eb996e"></path><path d="M239.55,361.1a2.37,2.37,0,0,1-1.41.12,5.41,5.41,0,0,1-4.68-4.5,2.34,2.34,0,0,1,.06-1.41c.09,0,.09.53.3,1.33a6,6,0,0,0,1.59,2.74,5.91,5.91,0,0,0,2.8,1.47C239,361,239.55,361,239.55,361.1Z" style="fill:#eb996e"></path><path d="M251.64,370.15A3.13,3.13,0,0,1,250,370a7.1,7.1,0,0,1-5.13-5.78,3.05,3.05,0,0,1,.05-1.66c.08,0,.08.63.31,1.59a7.69,7.69,0,0,0,4.88,5.5A15,15,0,0,1,251.64,370.15Z" style="fill:#eb996e"></path><path d="M203.68,399.13c.12.08-5.46,8.76-12.46,19.38s-12.76,19.18-12.88,19.1,5.45-8.76,12.45-19.38S203.56,399.05,203.68,399.13Z" style="fill:#eb996e"></path><path d="M290.4,295.72l-.57,6.72-1,.11-3.21-4.29-.4,4.7-1.21.14.57-6.72,1-.12,3.22,4.3.39-4.7Z" style="fill:#263238"></path><path d="M291.44,299.51A3.88,3.88,0,0,1,295,295.1c2-.22,3.27.79,3.46,2.46a3.87,3.87,0,0,1-3.58,4.4C292.92,302.18,291.63,301.17,291.44,299.51Zm5.82-1.74a1.78,1.78,0,0,0-2.23-1.58,2.68,2.68,0,0,0-2.37,3.11,1.78,1.78,0,0,0,2.22,1.58A2.68,2.68,0,0,0,297.26,297.77Z" style="fill:#263238"></path><path d="M301.23,295.55l-2.17.24.09-1.06,5.57-.63-.1,1.06-2.18.25-.47,5.66-1.22.14Z" style="fill:#263238"></path><path d="M306.76,294.91l-.14,1.75,3.18-.36-.08,1-3.19.36-.16,1.86,3.72-.42-.09,1-4.93.56.57-6.72,4.8-.54-.09,1.05Z" style="fill:#263238"></path><path d="M310.89,299.38l.41-1a3.5,3.5,0,0,0,2.22.47c1-.1,1.54-.52,1.47-1.1-.14-1.22-3.38-.21-3.62-2.32-.14-1.3.93-2.26,2.63-2.45a4.2,4.2,0,0,1,2.26.31l-.37,1a3.33,3.33,0,0,0-1.84-.31c-1,.12-1.54.59-1.48,1.16.14,1.23,3.38.25,3.61,2.26.15,1.31-.93,2.27-2.66,2.46A4.21,4.21,0,0,1,310.89,299.38Z" style="fill:#263238"></path><path d="M321.52,302.19c0,.14-9.32,1.63-20.87,3.32s-20.92,2.94-20.94,2.8,9.32-1.63,20.87-3.32S321.5,302.05,321.52,302.19Z" style="fill:#263238"></path><path d="M322.25,306.21c0,.14-8.39,1.59-18.79,3.23s-18.84,2.85-18.86,2.71,8.39-1.58,18.78-3.23S322.22,306.07,322.25,306.21Z" style="fill:#263238"></path></g><g id="freepik--Desk--inject-29"><path d="M466.36,477.81c0,.14-96.87.26-216.35.26S33.64,478,33.64,477.81s96.85-.26,216.37-.26S466.36,477.67,466.36,477.81Z" style="fill:#263238"></path></g></svg>