<svg width="160" height="160" viewBox="0 0 160 160" fill="none" xmlns="http://www.w3.org/2000/svg">
<g clip-path="url(#clip0_949_1986)">
<path d="M80 160C124.183 160 160 124.183 160 80C160 35.8172 124.183 0 80 0C35.8172 0 0 35.8172 0 80C0 124.183 35.8172 160 80 160Z" fill="#EAEAEA"/>
<g clip-path="url(#clip1_949_1986)">
<path d="M113.627 106.375C109.244 98.8177 102.44 92.9602 94.3146 89.75C98.3024 86.7592 101.248 82.5895 102.734 77.8315C104.221 73.0735 104.172 67.9685 102.596 63.2396C101.02 58.5107 97.9953 54.3976 93.9515 51.483C89.9077 48.5684 85.0493 47 80.0646 47C75.0799 47 70.2216 48.5684 66.1778 51.483C62.134 54.3976 59.1097 58.5107 57.5334 63.2396C55.9571 67.9685 55.9087 73.0735 57.3949 77.8315C58.8812 82.5895 61.8269 86.7592 65.8146 89.75C57.6895 92.9602 50.8851 98.8177 46.5021 106.375C46.0048 107.237 45.8703 108.261 46.1282 109.222C46.386 110.183 47.0151 111.003 47.8771 111.5C48.739 111.997 49.7632 112.132 50.7244 111.874C51.6855 111.616 52.5048 110.987 53.0021 110.125C55.745 105.375 59.6899 101.43 64.4403 98.6877C69.1908 95.9452 74.5794 94.5014 80.0646 94.5014C85.5499 94.5014 90.9385 95.9452 95.689 98.6877C100.439 101.43 104.384 105.375 107.127 110.125C107.459 110.693 107.933 111.165 108.503 111.494C109.073 111.823 109.719 111.997 110.377 112C111.036 112.005 111.684 111.833 112.252 111.5C112.679 111.254 113.053 110.926 113.354 110.535C113.654 110.145 113.874 109.698 114.002 109.222C114.13 108.746 114.162 108.25 114.098 107.761C114.034 107.273 113.874 106.802 113.627 106.375ZM63.8146 70.75C63.8146 67.5361 64.7677 64.3943 66.5533 61.722C68.3388 59.0497 70.8767 56.9669 73.846 55.737C76.8153 54.507 80.0827 54.1852 83.2349 54.8122C86.387 55.4392 89.2825 56.9869 91.5551 59.2595C93.8277 61.5321 95.3754 64.4276 96.0024 67.5798C96.6294 70.732 96.3076 73.9993 95.0777 76.9686C93.8478 79.9379 91.765 82.4758 89.0927 84.2614C86.4204 86.047 83.2786 87 80.0646 87C75.7549 87 71.6216 85.2879 68.5742 82.2405C65.5267 79.193 63.8146 75.0598 63.8146 70.75Z" fill="#A3333D"/>
</g>
</g>
<defs>
<clipPath id="clip0_949_1986">
<rect width="160" height="160" fill="white"/>
</clipPath>
<clipPath id="clip1_949_1986">
<rect width="70" height="66" fill="white" transform="translate(44 47)"/>
</clipPath>
</defs>
</svg>
