<svg width="70" height="66" viewBox="0 0 70 66" fill="none" xmlns="http://www.w3.org/2000/svg">
<path d="M68.5626 59.625C64.1797 52.0677 57.3752 46.2102 49.2501 43C53.2379 40.0092 56.1836 35.8395 57.6698 31.0815C59.1561 26.3235 59.1077 21.2185 57.5314 16.4896C55.9551 11.7607 52.9308 7.64761 48.887 4.733C44.8432 1.81839 39.9848 0.25 35.0001 0.25C30.0154 0.25 25.1571 1.81839 21.1133 4.733C17.0695 7.64761 14.0452 11.7607 12.4689 16.4896C10.8926 21.2185 10.8442 26.3235 12.3304 31.0815C13.8167 35.8395 16.7624 40.0092 20.7501 43C12.625 46.2102 5.82062 52.0677 1.43764 59.625C0.940358 60.487 0.805854 61.5111 1.06372 62.4723C1.32158 63.4334 1.95069 64.2527 2.81264 64.75C3.67459 65.2473 4.69879 65.3818 5.65991 65.1239C6.62104 64.8661 7.44036 64.237 7.93764 63.375C10.6805 58.6248 14.6254 54.6802 19.3758 51.9377C24.1263 49.1952 29.5149 47.7514 35.0001 47.7514C40.4854 47.7514 45.874 49.1952 50.6245 51.9377C55.3749 54.6802 59.3198 58.6248 62.0626 63.375C62.3944 63.9433 62.8687 64.4152 63.4387 64.744C64.0087 65.0729 64.6546 65.2473 65.3126 65.25C65.9713 65.2553 66.6191 65.0825 67.1876 64.75C67.6146 64.504 67.989 64.1762 68.2892 63.7854C68.5894 63.3946 68.8097 62.9485 68.9374 62.4725C69.0651 61.9965 69.0977 61.5 69.0334 61.0114C68.9691 60.5229 68.8091 60.0517 68.5626 59.625ZM18.7501 24C18.7501 20.7861 19.7032 17.6443 21.4888 14.972C23.2743 12.2997 25.8122 10.2169 28.7815 8.98696C31.7508 7.75703 35.0182 7.43523 38.1704 8.06224C41.3226 8.68925 44.218 10.2369 46.4906 12.5095C48.7632 14.7821 50.3109 17.6776 50.9379 20.8298C51.5649 23.982 51.2431 27.2493 50.0132 30.2186C48.7833 33.1879 46.7005 35.7258 44.0282 37.5114C41.3559 39.297 38.2141 40.25 35.0001 40.25C30.6904 40.25 26.5571 38.5379 23.5097 35.4905C20.4622 32.443 18.7501 28.3098 18.7501 24Z" fill="#FFFFFF"/>
</svg>
