<svg width="24" height="24" viewBox="0 0 24 24" fill="none" xmlns="http://www.w3.org/2000/svg">
<path d="M12 15C13.6569 15 15 13.6569 15 12C15 10.3431 13.6569 9 12 9C10.3431 9 9 10.3431 9 12C9 13.6569 10.3431 15 12 15Z" stroke="#A3333D" stroke-width="2" stroke-linecap="round" stroke-linejoin="round"/>
<path fill-rule="evenodd" clip-rule="evenodd" d="M14.2705 4.54104C14.2705 3.68995 13.5806 3 12.7295 3H11.2708C10.4197 3 9.72978 3.68995 9.72978 4.54104C9.72978 5.19575 9.30691 5.76411 8.73157 6.07658C8.64162 6.12544 8.5529 6.17624 8.46547 6.22895C7.90058 6.56948 7.19265 6.65124 6.62015 6.32367C5.87307 5.89621 4.92106 6.15129 4.48779 6.89501L3.78337 8.10415C3.3518 8.84495 3.60649 9.79549 4.35063 10.2213C4.92067 10.5474 5.20445 11.1992 5.19056 11.8558C5.18954 11.9037 5.18903 11.9518 5.18903 12C5.18903 12.0482 5.18954 12.0963 5.19056 12.1443C5.20445 12.8009 4.92068 13.4526 4.35065 13.7787C3.60652 14.2045 3.35183 15.155 3.7834 15.8958L4.48784 17.105C4.92111 17.8487 5.8731 18.1038 6.62018 17.6763C7.19268 17.3488 7.90059 17.4305 8.46547 17.7711C8.5529 17.8238 8.64162 17.8746 8.73157 17.9234C9.30691 18.2359 9.72978 18.8042 9.72978 19.459C9.72978 20.3101 10.4197 21 11.2708 21H12.7295C13.5806 21 14.2705 20.3101 14.2705 19.459C14.2705 18.8042 14.6934 18.2359 15.2687 17.9234C15.3587 17.8746 15.4474 17.8238 15.5348 17.7711C16.0997 17.4305 16.8076 17.3488 17.3801 17.6763C18.1272 18.1038 19.0792 17.8487 19.5125 17.105L20.2169 15.8958C20.6485 15.1551 20.3938 14.2045 19.6496 13.7788C19.0796 13.4526 18.7958 12.8009 18.8097 12.1443C18.8107 12.0963 18.8113 12.0482 18.8113 12C18.8113 11.9518 18.8107 11.9037 18.8097 11.8558C18.7958 11.1992 19.0796 10.5474 19.6497 10.2213C20.3938 9.79548 20.6485 8.84494 20.2169 8.10414L19.5125 6.89501C19.0792 6.15128 18.1272 5.8962 17.3801 6.32366C16.8076 6.65123 16.0997 6.56948 15.5348 6.22894C15.4474 6.17624 15.3587 6.12543 15.2687 6.07658C14.6934 5.76411 14.2705 5.19575 14.2705 4.54104Z" stroke="#A3333D" stroke-width="2"/>
</svg>
