<svg width="500" height="500" viewBox="0 0 500 500" fill="none" xmlns="http://www.w3.org/2000/svg">
<path d="M246.14 74.7501C255.244 72.542 264.715 72.3035 273.919 74.0504C283.123 75.7974 291.848 79.4896 299.51 84.8801C323.12 101.19 335.97 128.23 336.39 156.63C336.69 176.86 327.02 197.54 331.86 217.63C337.41 240.77 357.7 247 379 246.4C405.91 245.66 423.53 267.08 424.6 293.02C425.54 315.85 414.89 342.07 393.77 352.85C365.48 367.29 335.71 355.62 310.44 340.47C292.54 329.75 273.58 312.86 252.84 308.29C234.92 304.35 220.67 315.13 206.1 323.42C186.3 334.68 164.24 344.42 141.22 338.8C78.45 323.51 53.15 260.4 75.47 201.27C85.1 175.74 106.24 158.77 133.52 156.79C147.52 155.79 161.98 160.63 174.61 152.6C194.99 139.65 196.61 106.6 216.31 90.0501C224.93 82.7019 235.143 77.4634 246.14 74.7501Z" fill="#F5F5F5"/>
<path opacity="0.9" d="M246.14 74.7501C255.244 72.542 264.715 72.3035 273.919 74.0504C283.123 75.7974 291.848 79.4896 299.51 84.8801C323.12 101.19 335.97 128.23 336.39 156.63C336.69 176.86 327.02 197.54 331.86 217.63C337.41 240.77 357.7 247 379 246.4C405.91 245.66 423.53 267.08 424.6 293.02C425.54 315.85 414.89 342.07 393.77 352.85C365.48 367.29 335.71 355.62 310.44 340.47C292.54 329.75 273.58 312.86 252.84 308.29C234.92 304.35 220.67 315.13 206.1 323.42C186.3 334.68 164.24 344.42 141.22 338.8C78.45 323.51 53.15 260.4 75.47 201.27C85.1 175.74 106.24 158.77 133.52 156.79C147.52 155.79 161.98 160.63 174.61 152.6C194.99 139.65 196.61 106.6 216.31 90.0501C224.93 82.7019 235.143 77.4634 246.14 74.7501Z" fill="#F5F5F5"/>
<path d="M250 427.56C357.082 427.56 443.89 422.492 443.89 416.24C443.89 409.988 357.082 404.92 250 404.92C142.918 404.92 56.11 409.988 56.11 416.24C56.11 422.492 142.918 427.56 250 427.56Z" fill="#F5F5F5"/>
<path d="M419.07 349.38L419.18 352.36H415.42L411.93 355.13L406.97 352.36L408.19 349.38L405.26 347.78L406.97 344.88L413.06 340.41L415.42 344.88H420.05L419.07 349.38Z" fill="#263238"/>
<path opacity="0.9" d="M419.07 349.38L419.18 352.36H415.42L411.93 355.13L406.97 352.36L408.19 349.38L405.26 347.78L406.97 344.88L413.06 340.41L415.42 344.88H420.05L419.07 349.38Z" fill="white"/>
<path opacity="0.1" d="M419.07 349.38L419.18 352.38H415.42L411.93 355.15L406.93 352.38L408.15 349.38L405.22 347.78L406.93 344.88V346.88L410.28 347.75L411.05 344.85L412.05 346.29L412.57 348.82L411.14 349.82L411.01 350.99C411.01 350.99 411.67 352.29 412.01 352.29C412.978 351.779 413.892 351.172 414.74 350.48L416.3 350.86L418.11 348.55L419.93 344.81L419.07 349.38Z" fill="black"/>
<path d="M310.16 231.64C310.124 231.65 310.086 231.65 310.05 231.64C308.94 231.11 307.82 230.64 306.69 230.09C306.655 230.081 306.622 230.065 306.593 230.042C306.565 230.019 306.542 229.99 306.526 229.957C306.51 229.924 306.501 229.888 306.5 229.852C306.5 229.815 306.507 229.779 306.522 229.746C306.537 229.713 306.559 229.683 306.586 229.659C306.614 229.635 306.646 229.617 306.681 229.607C306.716 229.597 306.753 229.595 306.789 229.6C306.825 229.606 306.86 229.62 306.89 229.64C308.02 230.14 309.15 230.64 310.27 231.19C310.324 231.213 310.369 231.254 310.395 231.306C310.422 231.359 310.43 231.419 310.416 231.476C310.403 231.533 310.37 231.584 310.324 231.62C310.277 231.655 310.219 231.673 310.16 231.67V231.64Z" fill="#263238"/>
<path d="M322.84 238.55C322.798 238.563 322.752 238.563 322.71 238.55C319.95 236.89 317.11 235.27 314.27 233.73C314.213 233.696 314.172 233.643 314.153 233.58C314.135 233.517 314.141 233.449 314.17 233.39C314.204 233.333 314.257 233.292 314.32 233.273C314.383 233.254 314.451 233.26 314.51 233.29C317.36 234.83 320.2 236.46 322.97 238.13C323.027 238.163 323.068 238.218 323.085 238.281C323.102 238.345 323.093 238.413 323.06 238.47C323.033 238.5 322.998 238.523 322.96 238.537C322.922 238.551 322.88 238.556 322.84 238.55Z" fill="#263238"/>
<path d="M336.39 247.49C336.339 247.488 336.29 247.471 336.25 247.44C333.06 245.18 329.75 242.94 326.4 240.78C326.345 240.745 326.306 240.69 326.291 240.626C326.276 240.563 326.286 240.496 326.32 240.44C326.357 240.384 326.414 240.345 326.479 240.33C326.544 240.315 326.613 240.326 326.67 240.36C330.02 242.52 333.34 244.76 336.54 247.04C336.562 247.062 336.58 247.089 336.592 247.118C336.604 247.147 336.611 247.178 336.611 247.21C336.611 247.241 336.604 247.273 336.592 247.302C336.58 247.331 336.562 247.358 336.54 247.38C336.524 247.408 336.502 247.432 336.477 247.451C336.451 247.47 336.421 247.483 336.39 247.49Z" fill="#263238"/>
<path d="M343.31 252.59C343.255 252.594 343.202 252.576 343.16 252.54C342.11 251.74 341.05 250.94 339.99 250.16C339.937 250.12 339.902 250.061 339.893 249.995C339.883 249.93 339.9 249.863 339.94 249.81C339.959 249.783 339.983 249.759 340.011 249.742C340.04 249.724 340.071 249.713 340.104 249.708C340.137 249.704 340.17 249.706 340.202 249.715C340.234 249.724 340.264 249.739 340.29 249.76C341.35 250.54 342.41 251.34 343.46 252.14C343.512 252.183 343.545 252.244 343.555 252.31C343.564 252.377 343.548 252.445 343.51 252.5C343.486 252.529 343.455 252.553 343.42 252.568C343.386 252.584 343.348 252.591 343.31 252.59Z" fill="#263238"/>
<path d="M367.38 273.81C367.346 273.81 367.313 273.802 367.282 273.788C367.251 273.775 367.223 273.755 367.2 273.73C360.69 267.208 353.83 261.046 346.65 255.27C346.624 255.249 346.603 255.223 346.588 255.194C346.572 255.165 346.562 255.133 346.559 255.1C346.556 255.067 346.559 255.033 346.569 255.002C346.578 254.97 346.594 254.941 346.615 254.915C346.636 254.889 346.662 254.868 346.691 254.853C346.72 254.837 346.752 254.827 346.785 254.824C346.818 254.821 346.852 254.824 346.883 254.834C346.915 254.843 346.944 254.859 346.97 254.88C354.166 260.666 361.04 266.842 367.56 273.38C367.606 273.427 367.631 273.49 367.631 273.555C367.631 273.62 367.606 273.683 367.56 273.73C367.538 273.756 367.51 273.776 367.479 273.79C367.448 273.804 367.414 273.811 367.38 273.81Z" fill="#263238"/>
<path d="M392.64 304.54C392.599 304.54 392.558 304.53 392.522 304.51C392.485 304.491 392.454 304.464 392.43 304.43C385.922 294.667 378.56 285.501 370.43 277.04C370.406 277.018 370.387 276.991 370.374 276.96C370.361 276.93 370.354 276.898 370.354 276.865C370.354 276.832 370.361 276.8 370.374 276.77C370.387 276.74 370.406 276.713 370.43 276.69C370.478 276.644 370.543 276.618 370.61 276.618C370.677 276.618 370.742 276.644 370.79 276.69C378.937 285.173 386.319 294.358 392.85 304.14C392.869 304.168 392.882 304.198 392.888 304.231C392.895 304.264 392.895 304.297 392.888 304.33C392.882 304.362 392.869 304.393 392.85 304.421C392.832 304.448 392.808 304.472 392.78 304.49C392.74 304.522 392.691 304.539 392.64 304.54Z" fill="#263238"/>
<path d="M409.48 338.05C409.427 338.051 409.375 338.035 409.332 338.004C409.289 337.974 409.257 337.93 409.24 337.88C405.584 327.576 400.809 317.703 395 308.44C394.977 308.385 394.974 308.324 394.992 308.267C395.01 308.21 395.048 308.162 395.099 308.13C395.149 308.099 395.21 308.087 395.269 308.096C395.327 308.105 395.381 308.135 395.42 308.18C401.25 317.473 406.039 327.379 409.7 337.72C409.723 337.782 409.719 337.851 409.691 337.911C409.663 337.971 409.612 338.018 409.55 338.04L409.48 338.05Z" fill="#263238"/>
<path d="M348.23 264.33C348.17 264.326 348.114 264.301 348.07 264.26C347.18 263.48 346.29 262.7 345.39 261.93C345.348 261.885 345.324 261.827 345.322 261.765C345.32 261.704 345.341 261.644 345.38 261.597C345.42 261.55 345.475 261.52 345.536 261.511C345.597 261.502 345.659 261.516 345.71 261.55C346.62 262.32 347.51 263.1 348.4 263.89C348.446 263.937 348.471 264 348.471 264.065C348.471 264.131 348.446 264.193 348.4 264.24C348.379 264.266 348.353 264.287 348.324 264.302C348.295 264.318 348.263 264.327 348.23 264.33Z" fill="#263238"/>
<path d="M354.1 269.76C354.037 269.757 353.977 269.732 353.93 269.69C353 268.79 352.06 267.91 351.12 267.03C351.074 266.982 351.048 266.917 351.048 266.85C351.048 266.783 351.074 266.718 351.12 266.67C351.169 266.626 351.234 266.601 351.3 266.601C351.366 266.601 351.431 266.626 351.48 266.67C352.433 267.55 353.373 268.44 354.3 269.34C354.324 269.363 354.343 269.39 354.356 269.42C354.369 269.45 354.376 269.482 354.376 269.515C354.376 269.548 354.369 269.58 354.356 269.61C354.343 269.641 354.324 269.668 354.3 269.69C354.274 269.716 354.242 269.735 354.208 269.747C354.173 269.759 354.136 269.764 354.1 269.76Z" fill="#263238"/>
<path d="M369.92 286.43C369.885 286.43 369.849 286.423 369.817 286.41C369.784 286.396 369.755 286.376 369.73 286.35C365.73 281.7 361.52 277.16 357.14 272.86C357.116 272.837 357.097 272.809 357.083 272.778C357.07 272.747 357.064 272.714 357.064 272.68C357.064 272.646 357.07 272.613 357.083 272.582C357.097 272.551 357.116 272.523 357.14 272.5C357.187 272.454 357.25 272.428 357.315 272.428C357.38 272.428 357.443 272.454 357.49 272.5C361.88 276.81 366.13 281.36 370.11 286.02C370.156 286.067 370.181 286.13 370.181 286.195C370.181 286.26 370.156 286.323 370.11 286.37C370.057 286.413 369.989 286.435 369.92 286.43Z" fill="#263238"/>
<path d="M394.61 321.92C394.565 321.919 394.521 321.907 394.483 321.884C394.444 321.861 394.412 321.829 394.39 321.79C387.988 310.421 380.628 299.618 372.39 289.5C372.366 289.478 372.347 289.451 372.334 289.42C372.321 289.39 372.314 289.358 372.314 289.325C372.314 289.292 372.321 289.26 372.334 289.23C372.347 289.2 372.366 289.173 372.39 289.15C372.437 289.104 372.5 289.079 372.565 289.079C372.63 289.079 372.693 289.104 372.74 289.15C381.003 299.292 388.389 310.118 394.82 321.51C394.853 321.569 394.863 321.638 394.846 321.703C394.829 321.769 394.787 321.825 394.73 321.86C394.695 321.889 394.654 321.909 394.61 321.92Z" fill="#263238"/>
<path d="M405.3 342.71C405.253 342.709 405.207 342.695 405.166 342.671C405.126 342.646 405.093 342.611 405.07 342.57C402.36 336.73 399.49 331.03 396.55 325.65C396.533 325.621 396.522 325.59 396.517 325.557C396.513 325.524 396.516 325.49 396.525 325.458C396.534 325.426 396.55 325.396 396.572 325.371C396.593 325.345 396.62 325.325 396.65 325.31C396.678 325.294 396.709 325.285 396.741 325.281C396.773 325.278 396.805 325.281 396.836 325.29C396.867 325.299 396.896 325.315 396.92 325.335C396.945 325.356 396.965 325.381 396.98 325.41C399.93 330.8 402.81 336.5 405.53 342.36C405.557 342.42 405.56 342.488 405.538 342.55C405.515 342.611 405.469 342.662 405.41 342.69C405.376 342.706 405.338 342.713 405.3 342.71Z" fill="#263238"/>
<path d="M436.53 396.54C436.702 396.192 436.787 395.808 436.777 395.421C436.768 395.033 436.664 394.653 436.475 394.315C436.286 393.976 436.018 393.689 435.693 393.477C435.368 393.265 434.996 393.136 434.61 393.1C434.942 392.109 434.964 391.039 434.673 390.035C434.382 389.031 433.791 388.14 432.98 387.48C432.784 387.301 432.534 387.192 432.27 387.17C431.989 387.201 431.724 387.316 431.51 387.5L427 390.73C426.637 390.951 426.33 391.252 426.1 391.61C425.18 393.4 428.5 395.68 427.1 397.15C426.71 397.57 426.1 397.66 425.6 397.96C424.53 398.63 424.4 400.1 423.9 401.26C423.4 402.42 421.66 403.32 420.99 402.26C421.48 401.14 419.99 400.19 418.79 400.04C417.59 399.89 416.32 399.84 415.65 398.7C413.94 400.2 410.1 396.02 410.19 394.34C409.515 394.461 408.895 394.791 408.416 395.282C407.937 395.773 407.624 396.402 407.52 397.08C407.32 398.47 407.269 399.879 407.37 401.28C407.37 404.01 406.45 406.68 406.5 409.41C406.5 411.53 407.35 413.89 409.3 414.74C410.261 415.081 411.282 415.221 412.3 415.15L434.43 415.01C434.963 415.041 435.496 414.952 435.99 414.75C436.99 414.23 437.2 412.91 437.29 411.75C437.677 406.943 438.073 402.137 438.48 397.33L436.53 396.54Z" fill="#A3333D"/>
<path opacity="0.3" d="M436.53 396.54C436.702 396.192 436.787 395.808 436.777 395.421C436.768 395.033 436.664 394.653 436.475 394.315C436.286 393.976 436.018 393.689 435.693 393.477C435.368 393.265 434.996 393.136 434.61 393.1C434.942 392.109 434.964 391.039 434.673 390.035C434.382 389.031 433.791 388.14 432.98 387.48C432.784 387.301 432.534 387.192 432.27 387.17C431.989 387.201 431.724 387.316 431.51 387.5L427 390.73C426.637 390.951 426.33 391.252 426.1 391.61C425.18 393.4 428.5 395.68 427.1 397.15C426.71 397.57 426.1 397.66 425.6 397.96C424.53 398.63 424.4 400.1 423.9 401.26C423.4 402.42 421.66 403.32 420.99 402.26C421.48 401.14 419.99 400.19 418.79 400.04C417.59 399.89 416.32 399.84 415.65 398.7C413.94 400.2 410.1 396.02 410.19 394.34C409.515 394.461 408.895 394.791 408.416 395.282C407.937 395.773 407.624 396.402 407.52 397.08C407.32 398.47 407.269 399.879 407.37 401.28C407.37 404.01 406.45 406.68 406.5 409.41C406.5 411.53 407.35 413.89 409.3 414.74C410.261 415.081 411.282 415.221 412.3 415.15L434.43 415.01C434.963 415.041 435.496 414.952 435.99 414.75C436.99 414.23 437.2 412.91 437.29 411.75C437.677 406.943 438.073 402.137 438.48 397.33L436.53 396.54Z" fill="white"/>
<path d="M437.82 373.15H403.49L403.77 376.62L403.98 379.1L404.5 385.55L404.8 389.25L405.19 394.18L405.36 396.29L405.42 396.92L405.62 399.41L405.9 402.81L406.06 404.92L406.24 407.07L406.44 409.55L406.6 411.43L406.77 413.55L406.84 414.47H438.35L438.42 413.55L438.59 411.44L438.74 409.55L438.95 407.06L439.12 404.92L439.29 402.81L439.57 399.4L439.77 396.92L439.82 396.29L439.99 394.18L440.39 389.25L440.69 385.55L441.2 379.1L441.41 376.62L441.69 373.15H437.82ZM439.89 375.43L439.23 374.77H440L439.89 375.43ZM439.72 377.53L439.66 378.37L436.58 381.45L433.06 377.92L436.21 374.77H437L439.72 377.53ZM438.83 388.53L436.58 390.78L433.06 387.26L436.58 383.74L439.02 386.18L438.83 388.53ZM406.16 386.18L408.6 383.74L412.12 387.26L408.6 390.78L406.35 388.53L406.16 386.18ZM435.45 382.59L431.92 386.12L428.39 382.59L431.92 379.07L435.45 382.59ZM429.9 374.78H433.9L431.9 376.78L429.9 374.78ZM430.77 387.26L427.26 390.78L423.73 387.26L427.26 383.74L430.77 387.26ZM419.07 391.92L422.59 388.4L426.11 391.92L422.59 395.45L419.07 391.92ZM421.45 396.58L417.92 400.11L414.41 396.59L417.93 393.07L421.45 396.58ZM427.26 393.07L430.77 396.59L427.26 400.11L423.73 396.58L427.26 393.07ZM422.59 386.12L419.07 382.59L422.59 379.07L426.11 382.59L422.59 386.12ZM421.45 387.26L417.93 390.78L414.41 387.26L417.93 383.74L421.45 387.26ZM413.26 386.12L409.74 382.59L413.26 379.07L416.79 382.59L413.26 386.12ZM413.26 388.4L416.79 391.92L413.26 395.45L409.74 391.92L413.26 388.4ZM416.79 401.25L413.26 404.77L409.74 401.25L413.26 397.73L416.79 401.25ZM417.92 402.39L421.45 405.92L417.93 409.44L414.41 405.92L417.92 402.39ZM419.07 401.25L422.59 397.73L426.11 401.25L422.59 404.77L419.07 401.25ZM427.26 402.39L430.77 405.92L427.26 409.44L423.73 405.92L427.26 402.39ZM431.92 407.05L435.45 410.58L433.16 412.86H430.68L428.39 410.58L431.92 407.05ZM428.39 401.25L431.92 397.73L435.45 401.25L431.92 404.77L428.39 401.25ZM428.39 391.92L431.92 388.4L435.45 391.92L431.92 395.45L428.39 391.92ZM430.77 377.92L427.26 381.45L423.73 377.92L426.89 374.77H427.63L430.77 377.92ZM422.59 376.78L420.59 374.78H424.59L422.59 376.78ZM421.45 377.92L417.93 381.45L414.41 377.92L417.56 374.77H418.3L421.45 377.92ZM415.28 374.77L413.28 376.77L411.28 374.77H415.28ZM408.97 374.77L412.12 377.92L408.6 381.45L405.53 378.37L405.47 377.53L408.23 374.77H408.97ZM405.97 374.77L405.32 375.42L405.26 374.77H405.97ZM405.75 380.86L407.48 382.58L406 384.05L405.75 380.86ZM406.75 392.68L406.62 391.01L407.52 391.91L406.75 392.68ZM406.92 394.8L408.66 393.06L412.18 396.58L408.66 400.1L407.24 398.68L406.92 394.8ZM407.45 401.32V401.16L407.53 401.24L407.46 401.32H407.45ZM408.06 408.83L407.62 403.42L408.62 402.42L412.14 405.95L408.62 409.46L408.02 408.87L408.06 408.83ZM408.38 412.83L408.32 412.03L408.66 411.69L409.8 412.83H408.38ZM409.8 410.55L413.32 407.02L416.85 410.55L414.56 412.83H412L409.8 410.55ZM416.85 412.83L417.99 411.69L419.14 412.83H416.85ZM421.41 412.83L419.13 410.55L422.65 407.02L426.17 410.55L423.9 412.83H421.41ZM426.17 412.83L427.32 411.69L428.46 412.83H426.17ZM436.92 412.83H435.5L436.64 411.69L436.98 412.03L436.92 412.83ZM437.25 408.83L436.64 409.42L433.12 405.91L436.64 402.38L437.64 403.38L437.25 408.83ZM437.87 401.16V401.32L437.8 401.24L437.89 401.16H437.87ZM438.07 398.68L436.64 400.1L433.12 396.58L436.64 393.06L438.38 394.8L438.07 398.68ZM438.55 392.68L437.78 391.9L438.69 391L438.55 392.68ZM439.55 380.84L439.3 384.05L437.82 382.57L439.55 380.84Z" fill="#A3333D"/>
<g opacity="0.6">
<path d="M437.82 373.15H403.49L403.77 376.62L403.98 379.1L404.5 385.55L404.8 389.25L405.19 394.18L405.36 396.29L405.42 396.92L405.62 399.41L405.9 402.81L406.06 404.92L406.24 407.07L406.44 409.55L406.6 411.43L406.77 413.55L406.84 414.47H438.35L438.42 413.55L438.59 411.44L438.74 409.55L438.95 407.06L439.12 404.92L439.29 402.81L439.57 399.4L439.77 396.92L439.82 396.29L439.99 394.18L440.39 389.25L440.69 385.55L441.2 379.1L441.41 376.62L441.69 373.15H437.82ZM439.89 375.43L439.23 374.77H440L439.89 375.43ZM439.72 377.53L439.66 378.37L436.58 381.45L433.06 377.92L436.21 374.77H437L439.72 377.53ZM438.83 388.53L436.58 390.78L433.06 387.26L436.58 383.74L439.02 386.18L438.83 388.53ZM406.16 386.18L408.6 383.74L412.12 387.26L408.6 390.78L406.35 388.53L406.16 386.18ZM435.45 382.59L431.92 386.12L428.39 382.59L431.92 379.07L435.45 382.59ZM429.9 374.78H433.9L431.9 376.78L429.9 374.78ZM430.77 387.26L427.26 390.78L423.73 387.26L427.26 383.74L430.77 387.26ZM419.07 391.92L422.59 388.4L426.11 391.92L422.59 395.45L419.07 391.92ZM421.45 396.58L417.92 400.11L414.41 396.59L417.93 393.07L421.45 396.58ZM427.26 393.07L430.77 396.59L427.26 400.11L423.73 396.58L427.26 393.07ZM422.59 386.12L419.07 382.59L422.59 379.07L426.11 382.59L422.59 386.12ZM421.45 387.26L417.93 390.78L414.41 387.26L417.93 383.74L421.45 387.26ZM413.26 386.12L409.74 382.59L413.26 379.07L416.79 382.59L413.26 386.12ZM413.26 388.4L416.79 391.92L413.26 395.45L409.74 391.92L413.26 388.4ZM416.79 401.25L413.26 404.77L409.74 401.25L413.26 397.73L416.79 401.25ZM417.92 402.39L421.45 405.92L417.93 409.44L414.41 405.92L417.92 402.39ZM419.07 401.25L422.59 397.73L426.11 401.25L422.59 404.77L419.07 401.25ZM427.26 402.39L430.77 405.92L427.26 409.44L423.73 405.92L427.26 402.39ZM431.92 407.05L435.45 410.58L433.16 412.86H430.68L428.39 410.58L431.92 407.05ZM428.39 401.25L431.92 397.73L435.45 401.25L431.92 404.77L428.39 401.25ZM428.39 391.92L431.92 388.4L435.45 391.92L431.92 395.45L428.39 391.92ZM430.77 377.92L427.26 381.45L423.73 377.92L426.89 374.77H427.63L430.77 377.92ZM422.59 376.78L420.59 374.78H424.59L422.59 376.78ZM421.45 377.92L417.93 381.45L414.41 377.92L417.56 374.77H418.3L421.45 377.92ZM415.28 374.77L413.28 376.77L411.28 374.77H415.28ZM408.97 374.77L412.12 377.92L408.6 381.45L405.53 378.37L405.47 377.53L408.23 374.77H408.97ZM405.97 374.77L405.32 375.42L405.26 374.77H405.97ZM405.75 380.86L407.48 382.58L406 384.05L405.75 380.86ZM406.75 392.68L406.62 391.01L407.52 391.91L406.75 392.68ZM406.92 394.8L408.66 393.06L412.18 396.58L408.66 400.1L407.24 398.68L406.92 394.8ZM407.45 401.32V401.16L407.53 401.24L407.46 401.32H407.45ZM408.06 408.83L407.62 403.42L408.62 402.42L412.14 405.95L408.62 409.46L408.02 408.87L408.06 408.83ZM408.38 412.83L408.32 412.03L408.66 411.69L409.8 412.83H408.38ZM409.8 410.55L413.32 407.02L416.85 410.55L414.56 412.83H412L409.8 410.55ZM416.85 412.83L417.99 411.69L419.14 412.83H416.85ZM421.41 412.83L419.13 410.55L422.65 407.02L426.17 410.55L423.9 412.83H421.41ZM426.17 412.83L427.32 411.69L428.46 412.83H426.17ZM436.92 412.83H435.5L436.64 411.69L436.98 412.03L436.92 412.83ZM437.25 408.83L436.64 409.42L433.12 405.91L436.64 402.38L437.64 403.38L437.25 408.83ZM437.87 401.16V401.32L437.8 401.24L437.89 401.16H437.87ZM438.07 398.68L436.64 400.1L433.12 396.58L436.64 393.06L438.38 394.8L438.07 398.68ZM438.55 392.68L437.78 391.9L438.69 391L438.55 392.68ZM439.55 380.84L439.3 384.05L437.82 382.57L439.55 380.84Z" fill="white"/>
</g>
<path d="M402.93 376.2H442.25C443.156 376.2 443.89 375.466 443.89 374.56V373.35C443.89 372.444 443.156 371.71 442.25 371.71H402.93C402.024 371.71 401.29 372.444 401.29 373.35V374.56C401.29 375.466 402.024 376.2 402.93 376.2Z" fill="#A3333D"/>
<path d="M439.17 412.05H406C405.094 412.05 404.36 412.784 404.36 413.69V414.9C404.36 415.806 405.094 416.54 406 416.54H439.17C440.076 416.54 440.81 415.806 440.81 414.9V413.69C440.81 412.784 440.076 412.05 439.17 412.05Z" fill="#A3333D"/>
<path d="M197.1 393.8L225.92 391V358.48H237.34V391L266.27 393.84C267.655 393.977 268.941 394.623 269.876 395.655C270.811 396.686 271.329 398.028 271.33 399.42V403.75H192V399.42C191.992 398.015 192.511 396.658 193.455 395.617C194.4 394.576 195.701 393.928 197.1 393.8Z" fill="#263238"/>
<path opacity="0.1" d="M197.1 393.8L225.92 391V358.48H237.34V391L266.27 393.84C267.655 393.977 268.941 394.623 269.876 395.655C270.811 396.686 271.329 398.028 271.33 399.42V403.75H192V399.42C191.992 398.015 192.511 396.658 193.455 395.617C194.4 394.576 195.701 393.928 197.1 393.8Z" fill="white"/>
<path d="M268.28 416.55C272.406 416.55 275.75 413.206 275.75 409.08C275.75 404.955 272.406 401.61 268.28 401.61C264.154 401.61 260.81 404.955 260.81 409.08C260.81 413.206 264.154 416.55 268.28 416.55Z" fill="#263238"/>
<path d="M195.09 416.55C199.216 416.55 202.56 413.206 202.56 409.08C202.56 404.955 199.216 401.61 195.09 401.61C190.964 401.61 187.62 404.955 187.62 409.08C187.62 413.206 190.964 416.55 195.09 416.55Z" fill="#263238"/>
<path d="M235.17 367.18H228.08C226.985 367.18 225.934 366.745 225.16 365.971C224.385 365.196 223.95 364.146 223.95 363.05V331.12H239.25V363.04C239.253 364.129 238.826 365.174 238.062 365.949C237.298 366.725 236.258 367.167 235.17 367.18Z" fill="#263238"/>
<path opacity="0.2" d="M235.17 367.18H228.08C226.985 367.18 225.934 366.745 225.16 365.971C224.385 365.196 223.95 364.146 223.95 363.05V331.12H239.25V363.04C239.253 364.129 238.826 365.174 238.062 365.949C237.298 366.725 236.258 367.167 235.17 367.18Z" fill="white"/>
<path d="M191.75 268.51C191.75 268.51 200.3 321.92 217.18 331.11H200C200 331.11 183 312.92 177.88 268.51H191.75Z" fill="#263238"/>
<path opacity="0.1" d="M191.75 268.51C191.75 268.51 200.3 321.92 217.18 331.11H200C200 331.11 183 312.92 177.88 268.51H191.75Z" fill="white"/>
<path d="M199.18 323.56H266.1C267.426 323.56 268.698 324.087 269.636 325.025C270.573 325.962 271.1 327.234 271.1 328.56V335.25H194.18V328.56C194.18 327.234 194.707 325.962 195.644 325.025C196.582 324.087 197.854 323.56 199.18 323.56Z" fill="#A3333D"/>
<path d="M175.87 279.36H203.37C211.37 279.36 216.66 272.9 215.05 264.93L212.92 254.3C211.32 246.3 203.49 239.87 195.44 239.87H167.94C159.89 239.87 154.65 246.33 156.26 254.3L158.39 264.93C160 272.9 167.82 279.36 175.87 279.36Z" fill="#A3333D"/>
<path opacity="0.2" d="M199.18 323.56H266.1C267.426 323.56 268.698 324.087 269.636 325.025C270.573 325.962 271.1 327.234 271.1 328.56V335.25H194.18V328.56C194.18 327.234 194.707 325.962 195.644 325.025C196.582 324.087 197.854 323.56 199.18 323.56Z" fill="white"/>
<path opacity="0.2" d="M175.87 279.36H203.37C211.37 279.36 216.66 272.9 215.05 264.93L212.92 254.3C211.32 246.3 203.49 239.87 195.44 239.87H167.94C159.89 239.87 154.65 246.33 156.26 254.3L158.39 264.93C160 272.9 167.82 279.36 175.87 279.36Z" fill="white"/>
<path d="M272.29 329.41H192.98C191.87 329.41 190.97 330.31 190.97 331.42V333.24C190.97 334.35 191.87 335.25 192.98 335.25H272.29C273.4 335.25 274.3 334.35 274.3 333.24V331.42C274.3 330.31 273.4 329.41 272.29 329.41Z" fill="#263238"/>
<path opacity="0.6" d="M272.29 329.41H192.98C191.87 329.41 190.97 330.31 190.97 331.42V333.24C190.97 334.35 191.87 335.25 192.98 335.25H272.29C273.4 335.25 274.3 334.35 274.3 333.24V331.42C274.3 330.31 273.4 329.41 272.29 329.41Z" fill="white"/>
<path d="M277.83 218.28L285.48 214.35C285.724 213.995 286.046 213.7 286.423 213.49C286.799 213.28 287.219 213.16 287.65 213.14C290.34 213.37 294.65 215.25 295.36 216.14C296.43 217.41 296.97 221.86 295.48 223.14C293.99 224.42 286.07 218.94 286.07 218.94L277.88 223.39L277.83 218.28Z" fill="#E4897B"/>
<path d="M283.3 221.13C283.3 221.13 263.44 237.33 259.3 239.13C257.3 239.99 251.3 241.03 245.43 241.89C239.85 242.72 234.43 243.38 233.03 243.56H232.66L235.31 232.18C235.31 232.18 249.43 233.91 254.2 232.03C258.97 230.15 279.05 216.03 279.05 216.03L283.3 221.13Z" fill="#A3333D"/>
<path opacity="0.2" d="M283.3 221.13C283.3 221.13 263.44 237.33 259.3 239.13C257.3 239.99 251.3 241.03 245.43 241.89C239.85 242.72 234.43 243.38 233.03 243.56H232.66L235.31 232.18C235.31 232.18 249.43 233.91 254.2 232.03C258.97 230.15 279.05 216.03 279.05 216.03L283.3 221.13Z" fill="black"/>
<path opacity="0.2" d="M245.41 241.91C239.83 242.74 234.41 243.4 233.01 243.58V242.27L234.21 237.08C236.79 237.69 242.42 239.23 245.41 241.91Z" fill="black"/>
<path d="M280.93 215.08L284.39 221.25L282.35 222.73L278.73 215.49L280.93 215.08Z" fill="#A3333D"/>
<path opacity="0.7" d="M280.93 215.08L284.39 221.25L282.35 222.73L278.73 215.49L280.93 215.08Z" fill="white"/>
<path d="M321.74 368.78L315.44 371.24L310.91 362.7L306.79 354.94L313.78 350.75L317.99 360.29L321.74 368.78Z" fill="#E4897B"/>
<path opacity="0.2" d="M317.99 360.29L310.91 362.7L306.79 354.94L313.78 350.75L317.99 360.29Z" fill="black"/>
<path d="M316.69 355.63L308.11 360.23C308.11 360.23 275.73 303.23 270.74 303.75C265.75 304.27 218.51 334.34 204.1 323.22C189.69 312.1 203.72 278.62 203.72 278.62C203.72 278.62 233.52 270.1 236.72 276.62C237.559 278.572 238.271 280.576 238.85 282.62C239.49 284.67 239.97 286.41 239.97 286.41C240.87 286.05 270.31 273.97 283.46 280.41C296.87 287 316.69 355.63 316.69 355.63Z" fill="#263238"/>
<path opacity="0.3" d="M316.69 355.63L308.11 360.23C308.11 360.23 275.73 303.23 270.74 303.75C265.75 304.27 218.51 334.34 204.1 323.22C189.69 312.1 203.72 278.62 203.72 278.62C203.72 278.62 233.52 270.1 236.72 276.62C237.559 278.572 238.271 280.576 238.85 282.62C239.49 284.67 239.97 286.41 239.97 286.41C240.87 286.05 270.31 273.97 283.46 280.41C296.87 287 316.69 355.63 316.69 355.63Z" fill="white"/>
<path d="M270.12 402.07L263.4 401.3L263.37 391.81L263.36 383.11L271.48 382.73L270.77 392.97L270.12 402.07Z" fill="#E4897B"/>
<path opacity="0.2" d="M270.74 393.18L263.35 392V383.21L271.48 382.78L270.74 393.18Z" fill="black"/>
<path d="M303.92 357.4L316.47 351.12L317.77 356.43L308.27 361.33L303.92 357.4Z" fill="#A3333D"/>
<path d="M226.36 323.31C226.36 323.31 228.43 323.07 260.12 317.2C260.12 317.2 260.83 357.73 262.33 387.93L272.09 388.25C272.09 388.25 286.09 321.2 284.45 311.08C282.81 300.96 270.76 299.59 270.76 299.59C270.76 299.59 249.84 315.84 226.36 323.31Z" fill="#263238"/>
<path opacity="0.4" d="M226.36 323.31C226.36 323.31 228.43 323.07 260.12 317.2C260.12 317.2 260.83 357.73 262.33 387.93L272.09 388.25C272.09 388.25 286.09 321.2 284.45 311.08C282.81 300.96 270.76 299.59 270.76 299.59C270.76 299.59 249.84 315.84 226.36 323.31Z" fill="white"/>
<path opacity="0.3" d="M226.36 323.31C226.36 323.31 228.43 323.07 260.12 317.2C260.12 317.2 260.83 357.73 262.33 387.93L272.09 388.25C272.09 388.25 286.09 321.2 284.45 311.08C282.81 300.96 270.76 299.59 270.76 299.59C270.76 299.59 249.84 315.84 226.36 323.31Z" fill="black"/>
<path d="M260.54 385.23L273.85 384.92L272.03 390.41L261.24 390.51L260.54 385.23Z" fill="#A3333D"/>
<path opacity="0.3" d="M240 286.42L222.72 292.57C222.72 292.57 231.8 285.79 238.88 282.63C239.53 284.68 240 286.42 240 286.42Z" fill="black"/>
<path d="M201.71 276.55L202.35 281.34L234.73 274.48L233.97 268.81L201.71 276.55Z" fill="#263238"/>
<path opacity="0.2" d="M201.71 276.55L202.35 281.34L234.73 274.48L233.97 268.81L201.71 276.55Z" fill="black"/>
<path d="M212.429 273.078L210.817 273.377L212.34 281.587L213.953 281.288L212.429 273.078Z" fill="#263238"/>
<path d="M226.567 270.99L219.504 272.582L220.711 277.937L227.774 276.346L226.567 270.99Z" fill="white"/>
<path d="M232.133 268.208L230.52 268.507L232.043 276.717L233.656 276.418L232.133 268.208Z" fill="#263238"/>
<path opacity="0.3" d="M212.429 273.078L210.817 273.377L212.34 281.587L213.953 281.288L212.429 273.078Z" fill="white"/>
<path opacity="0.3" d="M232.133 268.208L230.52 268.507L232.043 276.717L233.656 276.418L232.133 268.208Z" fill="white"/>
<path d="M334.27 380C333.214 379.682 332.11 379.557 331.01 379.63C331.01 379.63 326.95 377.94 322.01 369.84L317.81 370.4C317.101 370.504 316.442 370.824 315.921 371.316C315.401 371.808 315.044 372.448 314.9 373.15C314.87 373.346 314.87 373.545 314.9 373.74C315.076 374.755 315.32 375.757 315.63 376.74C316.705 379.991 317.977 383.174 319.44 386.27L320.13 385.99L318 379.84C317.28 377.78 319.8 379.52 321.13 381.52C322.46 383.52 324.35 385.46 328.83 383.77C334 381.76 336.09 380.69 334.27 380Z" fill="#263238"/>
<path d="M321 367.64C321 367.64 327.74 377.88 331 379.58C331 379.58 327.29 382.58 322.35 377.76C315.95 371.57 314.89 373.69 314.89 373.69C314.833 372.481 314.887 371.269 315.05 370.07C315.57 367.72 321 367.64 321 367.64Z" fill="#E4897B"/>
<path d="M280.18 414C279.232 413.437 278.188 413.053 277.1 412.87C277.1 412.87 273.56 410.25 270.7 401.23L266.49 400.77C265.777 400.71 265.062 400.869 264.442 401.227C263.822 401.584 263.325 402.123 263.02 402.77C262.932 402.95 262.871 403.142 262.84 403.34C262.775 404.362 262.775 405.388 262.84 406.41C263.116 409.822 263.597 413.215 264.28 416.57L265.01 416.46L264.36 410.05C264.15 407.87 266.18 410.16 267 412.42C267.82 414.68 269.19 417.01 273.95 416.42C279.51 415.69 281.78 415.14 280.18 414Z" fill="#263238"/>
<path d="M270.17 398.88C270.17 398.88 274.3 410.42 277.1 412.88C277.1 412.88 272.8 414.88 269.1 409.06C264.35 401.53 262.81 403.33 262.81 403.33C263.036 402.142 263.37 400.977 263.81 399.85C264.92 397.67 270.17 398.88 270.17 398.88Z" fill="#E4897B"/>
<path d="M234 268.82L201.74 276.55C201.74 276.55 195.74 249.45 196.48 238.69C196.83 233.91 198.53 227.14 215.29 228.56C232.05 229.98 235.29 232.24 235.29 232.24C235.29 232.24 235.45 233.86 235.61 236.58C235.74 238.58 235.85 241.28 235.9 244.34C236 252.23 236 259.59 234 268.82Z" fill="#A3333D"/>
<path d="M221.27 188.89C221.27 188.89 230.27 185.39 238.1 191.89C245.93 198.39 235.1 213.37 235.1 213.37C235.895 215.67 236.043 218.144 235.526 220.521C235.009 222.899 233.848 225.088 232.17 226.85C226.33 233.08 204.31 225.9 199.72 216.55C195.13 207.2 210.14 194.67 215.04 194.55C219.94 194.43 221.27 188.89 221.27 188.89Z" fill="#263238"/>
<path d="M229.52 229.57C229.471 229.572 229.423 229.558 229.381 229.531C229.34 229.504 229.308 229.466 229.29 229.42C229.277 229.39 229.27 229.357 229.269 229.324C229.268 229.291 229.274 229.259 229.286 229.228C229.298 229.197 229.316 229.169 229.339 229.146C229.362 229.122 229.39 229.103 229.42 229.09C230.788 228.629 232.039 227.877 233.089 226.886C234.138 225.895 234.961 224.689 235.5 223.35C237.38 218.35 234.45 212.45 234.42 212.35C234.389 212.29 234.384 212.221 234.405 212.157C234.425 212.094 234.47 212.041 234.53 212.01C234.59 211.98 234.659 211.974 234.723 211.995C234.787 212.015 234.839 212.06 234.87 212.12C234.99 212.37 237.93 218.24 235.97 223.48C235.4 224.876 234.537 226.134 233.44 227.169C232.343 228.204 231.037 228.992 229.61 229.48L229.52 229.57Z" fill="#263238"/>
<path opacity="0.6" d="M210.973 255.38L214.901 255.075C215.336 255.041 215.661 254.661 215.627 254.226L215.051 246.809C215.018 246.374 214.638 246.048 214.203 246.082L210.274 246.387C209.84 246.421 209.514 246.801 209.548 247.236L210.124 254.654C210.158 255.089 210.538 255.414 210.973 255.38Z" fill="#263238"/>
<path opacity="0.2" d="M210.719 253.102L215.186 252.755L214.711 246.644L210.245 246.99L210.719 253.102Z" fill="black"/>
<path d="M212.674 244.013L211.687 244.09L211.967 247.689L212.954 247.612L212.674 244.013Z" fill="#263238"/>
<path d="M217.33 232L208.15 228.4C214.37 224.97 210.94 212.91 210.94 212.91L219.06 218.69C217.4 228.46 220.98 230.3 220.98 230.3L217.33 232Z" fill="#E4897B"/>
<path opacity="0.2" d="M218.84 226.14C215.501 224.359 212.973 221.362 211.78 217.77C211.636 216.135 211.352 214.516 210.93 212.93L219.06 218.71C218.57 221.157 218.496 223.669 218.84 226.14Z" fill="black"/>
<path d="M226.18 194.14C234.34 196.6 235.66 201.76 233.72 210.35C231.3 221.09 226.72 227.85 217.2 222.54C204.25 215.31 212.63 190.06 226.18 194.14Z" fill="#E4897B"/>
<path d="M228.58 208.3C228.866 209.72 229.323 211.1 229.94 212.41C229.598 212.673 229.191 212.837 228.763 212.884C228.334 212.932 227.901 212.861 227.51 212.68L228.58 208.3Z" fill="#DE5753"/>
<path d="M223.79 206.13C223.6 206.81 223.09 207.26 222.64 207.13C222.19 207 221.97 206.36 222.16 205.68C222.35 205 222.86 204.56 223.31 204.68C223.76 204.8 224 205.46 223.79 206.13Z" fill="#263238"/>
<path d="M223.11 204.67L224.74 204.5C224.74 204.5 223.67 205.53 223.11 204.67Z" fill="#263238"/>
<path d="M232.22 208.31C232.03 208.98 231.52 209.43 231.07 209.31C230.62 209.19 230.4 208.54 230.59 207.87C230.78 207.2 231.29 206.75 231.74 206.87C232.19 206.99 232.41 207.63 232.22 208.31Z" fill="#263238"/>
<path d="M231.55 206.84L233.17 206.67C233.17 206.67 232.1 207.7 231.55 206.84Z" fill="#263238"/>
<path d="M221.49 201C221.43 201.002 221.371 200.988 221.319 200.96C221.266 200.932 221.222 200.891 221.19 200.84C221.164 200.801 221.145 200.757 221.136 200.71C221.127 200.664 221.127 200.616 221.136 200.569C221.146 200.523 221.164 200.479 221.19 200.439C221.217 200.4 221.251 200.366 221.29 200.34C221.936 199.98 222.657 199.775 223.397 199.74C224.136 199.705 224.873 199.842 225.55 200.14C225.638 200.18 225.706 200.253 225.739 200.343C225.773 200.433 225.77 200.533 225.73 200.62C225.69 200.708 225.617 200.776 225.527 200.81C225.437 200.843 225.338 200.84 225.25 200.8C224.684 200.553 224.07 200.438 223.454 200.462C222.837 200.486 222.234 200.65 221.69 200.94C221.631 200.979 221.561 201 221.49 201Z" fill="#263238"/>
<path d="M234.49 203.93C234.436 203.929 234.383 203.915 234.334 203.891C234.286 203.867 234.244 203.832 234.21 203.79C233.894 203.347 233.483 202.981 233.007 202.718C232.532 202.455 232.003 202.302 231.46 202.27C231.413 202.273 231.365 202.266 231.321 202.25C231.276 202.235 231.235 202.211 231.199 202.179C231.164 202.147 231.135 202.109 231.115 202.066C231.094 202.024 231.083 201.977 231.08 201.93C231.077 201.883 231.084 201.835 231.1 201.791C231.115 201.746 231.14 201.705 231.171 201.669C231.203 201.634 231.241 201.605 231.284 201.585C231.326 201.564 231.373 201.553 231.42 201.55C232.077 201.574 232.719 201.746 233.3 202.055C233.88 202.363 234.383 202.799 234.77 203.33C234.813 203.384 234.84 203.449 234.848 203.517C234.856 203.585 234.845 203.654 234.816 203.717C234.786 203.779 234.741 203.832 234.683 203.87C234.626 203.907 234.559 203.928 234.49 203.93Z" fill="#263238"/>
<path d="M225.35 215.53C224.689 216.336 224.088 217.188 223.55 218.08C223.375 218.022 223.205 217.952 223.04 217.87C220.73 216.87 219.98 215.72 219.84 214.67C219.787 214.158 219.855 213.641 220.04 213.16C220.137 212.886 220.272 212.627 220.44 212.39C221.603 213.608 223.01 214.566 224.57 215.2C225 215.42 225.35 215.53 225.35 215.53Z" fill="#263238"/>
<path d="M224.57 215.2L224.02 215.93C221.85 215.03 220.45 214.1 220.02 213.16C220.117 212.886 220.252 212.627 220.42 212.39C221.588 213.611 223.003 214.568 224.57 215.2Z" fill="white"/>
<path d="M223 217.87C220.69 216.87 219.94 215.72 219.8 214.67C220.671 215.049 221.467 215.58 222.15 216.24C222.597 216.681 222.894 217.251 223 217.87Z" fill="#DE5753"/>
<path d="M213.12 205.21C213.12 205.21 218.95 199.65 219.93 194.3C219.93 194.3 238.1 192.56 233.93 209.22C233.93 209.22 239.93 195.12 225.93 190.57C211.93 186.02 205.88 206.57 211.28 214.87C211.34 214.87 209.5 208.7 213.12 205.21Z" fill="#263238"/>
<path d="M213.93 207.34C214.135 206.371 213.948 205.36 213.411 204.528C212.873 203.697 212.028 203.111 211.06 202.9C208.45 202.42 205.68 207.25 211.6 210.39C212.45 210.84 213.22 210.11 213.93 207.34Z" fill="#E4897B"/>
<path d="M226.18 194.14C226.18 194.14 223.6 204.72 213.18 204.14C200.54 203.43 195.27 214.66 204.02 221.54C204.02 221.54 194.95 215 196.72 207.62C198.49 200.24 209.42 193.62 209.42 193.62C209.42 193.62 209.57 186.62 219.89 187.01C225.68 187.23 226.18 194.14 226.18 194.14Z" fill="#263238"/>
<path d="M221.27 202.92C221.232 202.918 221.194 202.908 221.16 202.891C221.125 202.874 221.095 202.85 221.07 202.82C221.026 202.772 221.002 202.71 221.002 202.645C221.002 202.58 221.026 202.518 221.07 202.47C227.59 197.32 225.7 192.82 225.62 192.63C225.593 192.57 225.59 192.502 225.612 192.441C225.635 192.379 225.681 192.328 225.74 192.3C225.77 192.285 225.803 192.277 225.836 192.276C225.869 192.274 225.903 192.28 225.934 192.292C225.965 192.305 225.993 192.323 226.016 192.347C226.04 192.371 226.058 192.399 226.07 192.43C226.16 192.63 228.22 197.43 221.39 202.86C221.356 202.89 221.314 202.911 221.27 202.92Z" fill="#263238"/>
<path opacity="0.6" d="M206.45 228.47L219.72 246.25C219.72 246.25 225.49 233.1 221.46 229.19L218.12 232.19L206.45 228.47Z" fill="white"/>
<path d="M209.54 226.27L217.75 230.46L219.44 227.33L222.23 228.99L222.28 235.22L218.12 232.21L214.59 236.41L206.45 228.47L209.54 226.27Z" fill="#A3333D"/>
<path opacity="0.7" d="M209.54 226.27L217.75 230.46L219.44 227.33L222.23 228.99L222.28 235.22L218.12 232.21L214.59 236.41L206.45 228.47L209.54 226.27Z" fill="white"/>
<path opacity="0.2" d="M235.9 244.34C232.53 245.94 228.49 247.34 225.23 246.93C218.23 246.1 202.13 240.38 202.13 240.38L235.61 236.58C235.74 238.62 235.85 241.28 235.9 244.34Z" fill="black"/>
<path d="M251.74 226.6L259.64 223.2C259.906 222.86 260.248 222.586 260.639 222.4C261.029 222.214 261.458 222.122 261.89 222.13C264.55 222.54 268.71 224.7 269.38 225.62C270.38 226.95 270.6 231.43 269.03 232.57C267.46 233.71 259.92 227.75 259.92 227.75L251.45 231.64L251.74 226.6Z" fill="#E4897B"/>
<path d="M256.45 231.33C256.45 231.33 233.15 242 228.66 242.7C226.53 243.04 220.41 242.52 214.54 241.89C208.93 241.28 204.42 241.41 202.12 240.38C198.32 238.68 195.85 232.7 199.61 231.38C205.26 229.38 220.41 235.22 225.5 234.6C230.59 233.98 253.6 225.34 253.6 225.34L256.45 231.33Z" fill="#A3333D"/>
<path opacity="0.1" d="M256.45 231.33C256.45 231.33 233.15 242 228.66 242.7C226.53 243.04 220.41 242.52 214.54 241.89C208.93 241.28 204.42 241.41 202.12 240.38C198.32 238.68 195.85 232.7 199.61 231.38C205.26 229.38 220.41 235.22 225.5 234.6C230.59 233.98 253.6 225.34 253.6 225.34L256.45 231.33Z" fill="black"/>
<path d="M255.68 224.87L257.47 231.71L255.12 232.63L253.45 224.71L255.68 224.87Z" fill="#A3333D"/>
<path opacity="0.7" d="M255.68 224.87L257.47 231.71L255.12 232.63L253.45 224.71L255.68 224.87Z" fill="white"/>
<path d="M111.65 262.36L112.47 259.25H146.22L161.76 260.81L162.35 262.36H111.65Z" fill="#263238"/>
<path opacity="0.4" d="M146.22 259.25V262.36H111.65L112.47 259.25H146.22Z" fill="black"/>
<path d="M139.44 244.39C139.489 244.768 139.456 245.153 139.343 245.518C139.23 245.882 139.04 246.218 138.786 246.503C138.531 246.787 138.219 247.014 137.869 247.167C137.52 247.32 137.142 247.396 136.76 247.39H85.06C84.2461 247.374 83.4663 247.06 82.869 246.507C82.2716 245.954 81.8983 245.2 81.82 244.39L78.75 211.29C78.7091 210.956 78.7294 210.617 78.81 210.29C78.9567 209.71 79.2955 209.196 79.7712 208.833C80.247 208.47 80.8316 208.279 81.43 208.29H133.13C133.944 208.306 134.724 208.62 135.321 209.173C135.918 209.726 136.292 210.48 136.37 211.29L139.44 244.39Z" fill="#263238"/>
<path opacity="0.4" d="M136.58 247.36H85.06C84.2461 247.344 83.4663 247.03 82.869 246.477C82.2716 245.924 81.8983 245.17 81.82 244.36L78.75 211.26C78.7091 210.926 78.7294 210.587 78.81 210.26H130.33C131.143 210.278 131.922 210.593 132.519 211.146C133.116 211.698 133.49 212.451 133.57 213.26L136.64 246.36C136.681 246.694 136.661 247.033 136.58 247.36Z" fill="black"/>
<path d="M101.06 227.06H111.75L108.9 257.69L125.81 260.22V262.36H90.19V260.22L97.49 257.69L101.06 227.06Z" fill="#263238"/>
<path opacity="0.1" d="M111.75 227.06L103.83 261.87L97.49 261.68L101.06 227.06H111.75Z" fill="white"/>
<path d="M161.55 252.44V253.13L159.14 254.09H161.55V255.74H159.47L157.28 257.18H158.92L156.73 258.45H158.92V261.72L197.75 261.74V259.91L199.21 258.45H197.43V254.37H200.61V253H202.19V252.44H161.55Z" fill="#A3333D"/>
<path opacity="0.9" d="M161.55 252.44V253.13L159.14 254.09H161.55V255.74H159.47L157.28 257.18H158.92L156.73 258.45H158.92V261.72L197.75 261.74V259.91L199.21 258.45H197.43V254.37H200.61V253H202.19V252.44H161.55Z" fill="white"/>
<path opacity="0.1" d="M161.55 252.44V253.13L159.14 254.09H161.55V255.74H159.47L157.28 257.18H158.92L156.73 258.45H158.92V261.72L180.06 261.74V259.91L181.52 258.45H179.74V254.37H182.92V253H184.5V252.44H161.55Z" fill="black"/>
<path opacity="0.1" d="M197.43 254.37H179.74L179.66 255.6L197.43 254.37Z" fill="black"/>
<path opacity="0.1" d="M200.61 253H182.92L200.61 253.61V253Z" fill="black"/>
<path opacity="0.1" d="M197.43 258.45H179.74L197.43 257.8V258.45Z" fill="black"/>
<path opacity="0.1" d="M197.75 259.91H180.06V260.59L197.75 259.91Z" fill="black"/>
<path opacity="0.1" d="M161.55 253.13L179.74 253L161.55 252.58V253.13Z" fill="black"/>
<path opacity="0.1" d="M161.55 254.09H180.06L161.55 254.71V254.09Z" fill="black"/>
<path opacity="0.1" d="M158.92 257.18H179.46V257.8L158.92 257.18Z" fill="black"/>
<path opacity="0.1" d="M158.92 258.45H173.8L158.92 258.86V258.45Z" fill="black"/>
<path d="M132.23 416.54H126.31L115.66 268.39H123.52L132.23 416.54Z" fill="#263238"/>
<path opacity="0.1" d="M132.23 416.54H126.31L116.18 275.75L115.66 268.63H123.52L123.95 275.75L132.23 416.54Z" fill="white"/>
<path opacity="0.2" d="M123.95 275.39H116.18L115.66 268.63H123.52L123.95 275.39Z" fill="black"/>
<path d="M175.69 416.54H169.77L168.8 268.39H176.66L175.69 416.54Z" fill="#263238"/>
<path opacity="0.1" d="M176.66 268.63L176.51 292.53L175.7 416.54H169.77L168.96 292.53L168.81 268.63H176.66Z" fill="white"/>
<path opacity="0.2" d="M176.66 268.63L176.51 292.79H168.96L168.81 268.63H176.66Z" fill="black"/>
<path d="M238.57 416.54H232.65L222.01 268.39H229.87L238.57 416.54Z" fill="#263238"/>
<path opacity="0.1" d="M238.58 416.54H232.65L222.53 275.75L222.01 268.63H229.87L230.29 275.75L238.58 416.54Z" fill="white"/>
<path opacity="0.2" d="M230.29 275.39H222.53L222.01 268.63H229.87L230.29 275.39Z" fill="black"/>
<path d="M64.47 416.54H58.55L67.26 268.39H75.11L64.47 416.54Z" fill="#263238"/>
<path opacity="0.1" d="M75.11 268.63L74.59 275.75L64.47 416.54H58.55L66.83 275.75L67.25 268.63H75.11Z" fill="white"/>
<path opacity="0.2" d="M67.25 268.63H75.11L74.59 275.39H66.83L67.25 268.63Z" fill="black"/>
<path d="M61 264.68H236.1V269.94C236.1 270.513 235.872 271.062 235.467 271.467C235.062 271.873 234.513 272.1 233.94 272.1H63.19C62.903 272.104 62.6181 272.051 62.3519 271.943C62.0857 271.836 61.8435 271.677 61.6396 271.475C61.4358 271.273 61.2742 271.032 61.1643 270.767C61.0545 270.502 60.9986 270.217 61 269.93V264.67V264.68Z" fill="#A3333D"/>
<path opacity="0.4" d="M61 264.68H236.1V269.94C236.1 270.513 235.872 271.062 235.467 271.467C235.062 271.873 234.513 272.1 233.94 272.1H63.19C62.903 272.104 62.6181 272.051 62.3519 271.943C62.0857 271.836 61.8435 271.677 61.6396 271.475C61.4358 271.273 61.2742 271.032 61.1643 270.767C61.0545 270.502 60.9986 270.217 61 269.93V264.67V264.68Z" fill="white"/>
<path opacity="0.2" d="M236.1 264.68H61.03V268.39H236.1V264.68Z" fill="black"/>
<path d="M239.77 265.64H57.36C57.0852 265.641 56.8128 265.588 56.5586 265.484C56.3045 265.379 56.0735 265.225 55.8792 265.031C55.6849 264.836 55.531 264.606 55.4264 264.351C55.3218 264.097 55.2687 263.825 55.27 263.55C55.27 262.996 55.4902 262.464 55.8821 262.072C56.2741 261.68 56.8057 261.46 57.36 261.46H239.77C240.324 261.463 240.854 261.684 241.245 262.075C241.636 262.466 241.857 262.996 241.86 263.55C241.86 264.104 241.64 264.636 241.248 265.028C240.856 265.42 240.324 265.64 239.77 265.64Z" fill="#A3333D"/>
<path opacity="0.4" d="M239.77 265.64H57.36C57.0852 265.641 56.8128 265.588 56.5586 265.484C56.3045 265.379 56.0735 265.225 55.8792 265.031C55.6849 264.836 55.531 264.606 55.4264 264.351C55.3218 264.097 55.2687 263.825 55.27 263.55C55.27 262.996 55.4902 262.464 55.8821 262.072C56.2741 261.68 56.8057 261.46 57.36 261.46H239.77C240.324 261.463 240.854 261.684 241.245 262.075C241.636 262.466 241.857 262.996 241.86 263.55C241.86 264.104 241.64 264.636 241.248 265.028C240.856 265.42 240.324 265.64 239.77 265.64Z" fill="white"/>
</svg>
